<svg width="50" height="39" viewBox="0 0 50 39" fill="none" xmlns="http://www.w3.org/2000/svg">
<path fill-rule="evenodd" clip-rule="evenodd" d="M41.43 14.34L39.09 12L36.74 14.34L34.39 12L32.05 14.34L36.74 19.04L41.43 14.34Z" fill="#BDAD83"/>
<path fill-rule="evenodd" clip-rule="evenodd" d="M37.49 19.7799L41.92 24.2099L46.61 19.5199L44.26 17.1799L41.92 19.5199L39.83 17.4299L37.49 19.7799Z" fill="#BDAD83"/>
<path fill-rule="evenodd" clip-rule="evenodd" d="M36 19.78L33.65 17.43L31.73 19.35L29.38 17.01L27.04 19.35L31.73 24.05L36 19.78Z" fill="#BDAD83"/>
<path fill-rule="evenodd" clip-rule="evenodd" d="M36.74 26.24L41.92 31.42L49.44 23.9L47.09 21.55L41.92 26.73L39.09 23.9L36.74 21.55L34.39 23.9L31.57 26.73L26.39 21.55L24.04 23.9L31.57 31.42L36.74 26.24Z" fill="#BDAD83"/>
<path fill-rule="evenodd" clip-rule="evenodd" d="M41.92 33.93L39.09 31.1L36.74 28.76L34.39 31.1L31.56 33.93L26.39 28.76L24.04 31.1L31.56 38.63L36.74 33.45L41.92 38.63L49.44 31.1L47.09 28.76L41.92 33.93Z" fill="#BDAD83"/>
<path fill-rule="evenodd" clip-rule="evenodd" d="M17.39 2.34999L15.04 0L12.7 2.34999L10.35 0L8.00998 2.34999L12.7 7.03999L17.39 2.34999Z" fill="#BDAD83"/>
<path fill-rule="evenodd" clip-rule="evenodd" d="M13.44 7.78993L17.87 12.2199L22.57 7.52994L20.22 5.17993L17.87 7.52994L15.79 5.43994L13.44 7.78993Z" fill="#BDAD83"/>
<path fill-rule="evenodd" clip-rule="evenodd" d="M11.95 7.79001L9.60999 5.44002L7.69 7.36002L5.34 5.01001L2.98999 7.36002L7.69 12.05L11.95 7.79001Z" fill="#BDAD83"/>
<path fill-rule="evenodd" clip-rule="evenodd" d="M12.7 14.2501L17.87 19.4301L25.4 11.9001L23.05 9.56006L17.87 14.7301L15.05 11.9001L12.7 9.56006L10.35 11.9001L7.51999 14.7301L2.34998 9.56006L0 11.9001L7.51999 19.4301L12.7 14.2501Z" fill="#BDAD83"/>
<path fill-rule="evenodd" clip-rule="evenodd" d="M17.87 21.94L15.04 19.11L12.7 16.77L10.35 19.11L7.51999 21.94L2.34998 16.77L0 19.11L7.51999 26.63L12.7 21.46L17.87 26.63L25.4 19.11L23.05 16.77L17.87 21.94Z" fill="#BDAD83"/>
</svg>
