<svg width="88" height="92" viewBox="0 0 88 92" fill="none" xmlns="http://www.w3.org/2000/svg">
<path fill-rule="evenodd" clip-rule="evenodd" d="M59.97 8.09L51.88 0L43.79 8.09L35.69 0L27.61 8.09L43.79 24.27L59.97 8.09Z" fill="#2A3928"/>
<path fill-rule="evenodd" clip-rule="evenodd" d="M46.36 26.84L61.63 42.12L77.82 25.94L69.73 17.85L61.63 25.94L54.45 18.75L46.36 26.84Z" fill="#2A3928"/>
<path fill-rule="evenodd" clip-rule="evenodd" d="M41.22 26.84L33.12 18.75L26.51 25.37L18.41 17.28L10.32 25.37L26.51 41.55L41.22 26.84Z" fill="#2A3928"/>
<path fill-rule="evenodd" clip-rule="evenodd" d="M43.79 49.13L61.63 66.98L87.58 41.03L79.49 32.95L61.63 50.79L51.88 41.03L43.79 32.95L35.69 41.03L25.94 50.79L8.08002 32.95L0 41.03L25.94 66.98L43.79 49.13Z" fill="#2A3928"/>
<path fill-rule="evenodd" clip-rule="evenodd" d="M61.64 75.6501L51.88 65.89L43.79 57.8L35.69 65.89L25.93 75.6501L8.09 57.8L0 65.89L25.93 91.83L43.79 73.9801L61.64 91.83L87.58 65.89L79.49 57.8L61.64 75.6501Z" fill="#2A3928"/>
</svg>
