<svg width="1545" height="44" viewBox="0 0 1545 44" fill="none" xmlns="http://www.w3.org/2000/svg">
<path fill-rule="evenodd" clip-rule="evenodd" d="M65.48 2.34999L63.13 0L60.78 2.34999L58.44 0L56.09 2.34999L60.78 7.03999L65.48 2.34999Z" fill="#BDAD83"/>
<path fill-rule="evenodd" clip-rule="evenodd" d="M61.53 7.78999L65.96 12.22L70.65 7.53L68.31 5.17999L65.96 7.53L63.88 5.44L61.53 7.78999Z" fill="#BDAD83"/>
<path fill-rule="evenodd" clip-rule="evenodd" d="M60.04 7.78999L57.69 5.44L55.77 7.36L53.43 5.00999L51.08 7.36L55.77 12.05L60.04 7.78999Z" fill="#BDAD83"/>
<path fill-rule="evenodd" clip-rule="evenodd" d="M60.78 14.25L65.96 19.43L73.48 11.9L71.14 9.56L65.96 14.73L63.13 11.9L60.78 9.56L55.61 14.73L50.43 9.56L48.08 11.9L55.61 19.43L60.78 14.25Z" fill="#BDAD83"/>
<path fill-rule="evenodd" clip-rule="evenodd" d="M65.96 21.94L63.13 19.11L60.78 16.77L55.61 21.94L50.43 16.77L48.08 19.11L55.61 26.63L60.78 21.46L65.96 26.63L73.48 19.11L71.13 16.77L65.96 21.94Z" fill="#BDAD83"/>
<path fill-rule="evenodd" clip-rule="evenodd" d="M65.48 27.1L63.13 24.75L60.78 27.1L58.44 24.75L56.09 27.1L60.78 31.79L65.48 27.1Z" fill="#BDAD83"/>
<path fill-rule="evenodd" clip-rule="evenodd" d="M258.48 2.34999L256.13 0L253.78 2.34999L251.44 0L249.09 2.34999L253.78 7.03999L258.48 2.34999Z" fill="#BDAD83"/>
<path fill-rule="evenodd" clip-rule="evenodd" d="M254.53 7.78999L258.96 12.22L263.65 7.53L261.31 5.17999L258.96 7.53L256.88 5.44L254.53 7.78999Z" fill="#BDAD83"/>
<path fill-rule="evenodd" clip-rule="evenodd" d="M253.04 7.78999L250.69 5.44L248.77 7.36L246.43 5.00999L244.08 7.36L248.77 12.05L253.04 7.78999Z" fill="#BDAD83"/>
<path fill-rule="evenodd" clip-rule="evenodd" d="M253.78 14.25L258.96 19.43L266.48 11.9L264.14 9.56L258.96 14.73L256.13 11.9L253.78 9.56L248.61 14.73L243.43 9.56L241.08 11.9L248.61 19.43L253.78 14.25Z" fill="#BDAD83"/>
<path fill-rule="evenodd" clip-rule="evenodd" d="M258.96 21.94L256.13 19.11L253.78 16.77L248.61 21.94L243.43 16.77L241.08 19.11L248.61 26.63L253.78 21.46L258.96 26.63L266.48 19.11L264.13 16.77L258.96 21.94Z" fill="#BDAD83"/>
<path fill-rule="evenodd" clip-rule="evenodd" d="M258.48 27.1L256.13 24.75L253.78 27.1L251.44 24.75L249.09 27.1L253.78 31.79L258.48 27.1Z" fill="#BDAD83"/>
<path fill-rule="evenodd" clip-rule="evenodd" d="M161.48 2.34999L159.13 0L156.78 2.34999L154.44 0L152.09 2.34999L156.78 7.03999L161.48 2.34999Z" fill="#BDAD83"/>
<path fill-rule="evenodd" clip-rule="evenodd" d="M157.53 7.78999L161.96 12.22L166.65 7.53L164.31 5.17999L161.96 7.53L159.88 5.44L157.53 7.78999Z" fill="#BDAD83"/>
<path fill-rule="evenodd" clip-rule="evenodd" d="M156.04 7.78999L153.69 5.44L151.77 7.36L149.43 5.00999L147.08 7.36L151.77 12.05L156.04 7.78999Z" fill="#BDAD83"/>
<path fill-rule="evenodd" clip-rule="evenodd" d="M156.78 14.25L161.96 19.43L169.48 11.9L167.14 9.56L161.96 14.73L159.13 11.9L156.78 9.56L151.61 14.73L146.43 9.56L144.08 11.9L151.61 19.43L156.78 14.25Z" fill="#BDAD83"/>
<path fill-rule="evenodd" clip-rule="evenodd" d="M161.96 21.94L159.13 19.11L156.78 16.77L151.61 21.94L146.43 16.77L144.08 19.11L151.61 26.63L156.78 21.46L161.96 26.63L169.48 19.11L167.13 16.77L161.96 21.94Z" fill="#BDAD83"/>
<path fill-rule="evenodd" clip-rule="evenodd" d="M161.48 27.1L159.13 24.75L156.78 27.1L154.44 24.75L152.09 27.1L156.78 31.79L161.48 27.1Z" fill="#BDAD83"/>
<path fill-rule="evenodd" clip-rule="evenodd" d="M354.48 2.34999L352.13 0L349.78 2.34999L347.44 0L345.09 2.34999L349.78 7.03999L354.48 2.34999Z" fill="#BDAD83"/>
<path fill-rule="evenodd" clip-rule="evenodd" d="M350.53 7.78999L354.96 12.22L359.65 7.53L357.31 5.17999L354.96 7.53L352.88 5.44L350.53 7.78999Z" fill="#BDAD83"/>
<path fill-rule="evenodd" clip-rule="evenodd" d="M349.04 7.78999L346.69 5.44L344.77 7.36L342.43 5.00999L340.08 7.36L344.77 12.05L349.04 7.78999Z" fill="#BDAD83"/>
<path fill-rule="evenodd" clip-rule="evenodd" d="M349.78 14.25L354.96 19.43L362.48 11.9L360.14 9.56L354.96 14.73L352.13 11.9L349.78 9.56L344.61 14.73L339.43 9.56L337.08 11.9L344.61 19.43L349.78 14.25Z" fill="#BDAD83"/>
<path fill-rule="evenodd" clip-rule="evenodd" d="M354.96 21.94L352.13 19.11L349.78 16.77L344.61 21.94L339.43 16.77L337.08 19.11L344.61 26.63L349.78 21.46L354.96 26.63L362.48 19.11L360.13 16.77L354.96 21.94Z" fill="#BDAD83"/>
<path fill-rule="evenodd" clip-rule="evenodd" d="M354.48 27.1L352.13 24.75L349.78 27.1L347.44 24.75L345.09 27.1L349.78 31.79L354.48 27.1Z" fill="#BDAD83"/>
<path fill-rule="evenodd" clip-rule="evenodd" d="M113.4 2.34999L111.05 0L108.7 2.34999L106.36 0L104.01 2.34999L108.7 7.03999L113.4 2.34999Z" fill="#BDAD83"/>
<path fill-rule="evenodd" clip-rule="evenodd" d="M109.45 7.78999L113.88 12.22L118.57 7.53L116.23 5.17999L113.88 7.53L111.8 5.44L109.45 7.78999Z" fill="#BDAD83"/>
<path fill-rule="evenodd" clip-rule="evenodd" d="M107.96 7.78999L105.61 5.44L103.69 7.36L101.35 5.00999L99 7.36L103.69 12.05L107.96 7.78999Z" fill="#BDAD83"/>
<path fill-rule="evenodd" clip-rule="evenodd" d="M108.7 14.25L113.88 19.43L121.4 11.9L119.06 9.56L113.88 14.73L111.05 11.9L108.7 9.56L103.53 14.73L98.35 9.56L96 11.9L103.53 19.43L108.7 14.25Z" fill="#BDAD83"/>
<path fill-rule="evenodd" clip-rule="evenodd" d="M113.88 21.94L111.05 19.11L108.7 16.77L103.53 21.94L98.35 16.77L96 19.11L103.53 26.63L108.7 21.46L113.88 26.63L121.4 19.11L119.05 16.77L113.88 21.94Z" fill="#BDAD83"/>
<path fill-rule="evenodd" clip-rule="evenodd" d="M113.4 27.1L111.05 24.75L108.7 27.1L106.36 24.75L104.01 27.1L108.7 31.79L113.4 27.1Z" fill="#BDAD83"/>
<path fill-rule="evenodd" clip-rule="evenodd" d="M306.4 2.34999L304.05 0L301.7 2.34999L299.36 0L297.01 2.34999L301.7 7.03999L306.4 2.34999Z" fill="#BDAD83"/>
<path fill-rule="evenodd" clip-rule="evenodd" d="M302.45 7.78999L306.88 12.22L311.57 7.53L309.23 5.17999L306.88 7.53L304.8 5.44L302.45 7.78999Z" fill="#BDAD83"/>
<path fill-rule="evenodd" clip-rule="evenodd" d="M300.96 7.78999L298.61 5.44L296.69 7.36L294.35 5.00999L292 7.36L296.69 12.05L300.96 7.78999Z" fill="#BDAD83"/>
<path fill-rule="evenodd" clip-rule="evenodd" d="M301.7 14.25L306.88 19.43L314.4 11.9L312.06 9.56L306.88 14.73L304.05 11.9L301.7 9.56L296.53 14.73L291.35 9.56L289 11.9L296.53 19.43L301.7 14.25Z" fill="#BDAD83"/>
<path fill-rule="evenodd" clip-rule="evenodd" d="M306.88 21.94L304.05 19.11L301.7 16.77L296.53 21.94L291.35 16.77L289 19.11L296.53 26.63L301.7 21.46L306.88 26.63L314.4 19.11L312.05 16.77L306.88 21.94Z" fill="#BDAD83"/>
<path fill-rule="evenodd" clip-rule="evenodd" d="M306.4 27.1L304.05 24.75L301.7 27.1L299.36 24.75L297.01 27.1L301.7 31.79L306.4 27.1Z" fill="#BDAD83"/>
<path fill-rule="evenodd" clip-rule="evenodd" d="M41.43 14.34L39.09 12L36.74 14.34L34.39 12L32.05 14.34L36.74 19.04L41.43 14.34Z" fill="#BDAD83"/>
<path fill-rule="evenodd" clip-rule="evenodd" d="M37.49 19.78L41.92 24.21L46.61 19.52L44.26 17.18L41.92 19.52L39.83 17.43L37.49 19.78Z" fill="#BDAD83"/>
<path fill-rule="evenodd" clip-rule="evenodd" d="M36 19.78L33.65 17.43L31.73 19.35L29.38 17.01L27.04 19.35L31.73 24.05L36 19.78Z" fill="#BDAD83"/>
<path fill-rule="evenodd" clip-rule="evenodd" d="M36.74 26.24L41.92 31.42L49.44 23.9L47.09 21.55L41.92 26.73L36.74 21.55L34.39 23.9L31.57 26.73L26.39 21.55L24.04 23.9L31.57 31.42L36.74 26.24Z" fill="#BDAD83"/>
<path fill-rule="evenodd" clip-rule="evenodd" d="M41.92 33.93L39.09 31.1L36.74 28.76L34.39 31.1L31.56 33.93L26.39 28.76L24.04 31.1L31.56 38.63L36.74 33.45L41.92 38.63L49.44 31.1L47.09 28.76L41.92 33.93Z" fill="#BDAD83"/>
<path fill-rule="evenodd" clip-rule="evenodd" d="M41.43 39.1L39.09 36.75L36.74 39.1L34.39 36.75L32.05 39.1L36.74 43.79L41.43 39.1Z" fill="#BDAD83"/>
<path fill-rule="evenodd" clip-rule="evenodd" d="M234.43 14.34L232.09 12L229.74 14.34L227.39 12L225.05 14.34L229.74 19.04L234.43 14.34Z" fill="#BDAD83"/>
<path fill-rule="evenodd" clip-rule="evenodd" d="M230.49 19.78L234.92 24.21L239.61 19.52L237.26 17.18L234.92 19.52L232.83 17.43L230.49 19.78Z" fill="#BDAD83"/>
<path fill-rule="evenodd" clip-rule="evenodd" d="M229 19.78L226.65 17.43L224.73 19.35L222.38 17.01L220.04 19.35L224.73 24.05L229 19.78Z" fill="#BDAD83"/>
<path fill-rule="evenodd" clip-rule="evenodd" d="M229.74 26.24L234.92 31.42L242.44 23.9L240.09 21.55L234.92 26.73L229.74 21.55L227.39 23.9L224.57 26.73L219.39 21.55L217.04 23.9L224.57 31.42L229.74 26.24Z" fill="#BDAD83"/>
<path fill-rule="evenodd" clip-rule="evenodd" d="M234.92 33.93L232.09 31.1L229.74 28.76L227.39 31.1L224.56 33.93L219.39 28.76L217.04 31.1L224.56 38.63L229.74 33.45L234.92 38.63L242.44 31.1L240.09 28.76L234.92 33.93Z" fill="#BDAD83"/>
<path fill-rule="evenodd" clip-rule="evenodd" d="M234.43 39.1L232.09 36.75L229.74 39.1L227.39 36.75L225.05 39.1L229.74 43.79L234.43 39.1Z" fill="#BDAD83"/>
<path fill-rule="evenodd" clip-rule="evenodd" d="M137.43 14.34L135.09 12L132.74 14.34L130.39 12L128.05 14.34L132.74 19.04L137.43 14.34Z" fill="#BDAD83"/>
<path fill-rule="evenodd" clip-rule="evenodd" d="M133.49 19.78L137.92 24.21L142.61 19.52L140.26 17.18L137.92 19.52L135.83 17.43L133.49 19.78Z" fill="#BDAD83"/>
<path fill-rule="evenodd" clip-rule="evenodd" d="M132 19.78L129.65 17.43L127.73 19.35L125.38 17.01L123.04 19.35L127.73 24.05L132 19.78Z" fill="#BDAD83"/>
<path fill-rule="evenodd" clip-rule="evenodd" d="M132.74 26.24L137.92 31.42L145.44 23.9L143.09 21.55L137.92 26.73L132.74 21.55L130.39 23.9L127.57 26.73L122.39 21.55L120.04 23.9L127.57 31.42L132.74 26.24Z" fill="#BDAD83"/>
<path fill-rule="evenodd" clip-rule="evenodd" d="M137.92 33.93L135.09 31.1L132.74 28.76L130.39 31.1L127.56 33.93L122.39 28.76L120.04 31.1L127.56 38.63L132.74 33.45L137.92 38.63L145.44 31.1L143.09 28.76L137.92 33.93Z" fill="#BDAD83"/>
<path fill-rule="evenodd" clip-rule="evenodd" d="M137.43 39.1L135.09 36.75L132.74 39.1L130.39 36.75L128.05 39.1L132.74 43.79L137.43 39.1Z" fill="#BDAD83"/>
<path fill-rule="evenodd" clip-rule="evenodd" d="M330.43 14.34L328.09 12L325.74 14.34L323.39 12L321.05 14.34L325.74 19.04L330.43 14.34Z" fill="#BDAD83"/>
<path fill-rule="evenodd" clip-rule="evenodd" d="M326.49 19.78L330.92 24.21L335.61 19.52L333.26 17.18L330.92 19.52L328.83 17.43L326.49 19.78Z" fill="#BDAD83"/>
<path fill-rule="evenodd" clip-rule="evenodd" d="M325 19.78L322.65 17.43L320.73 19.35L318.38 17.01L316.04 19.35L320.73 24.05L325 19.78Z" fill="#BDAD83"/>
<path fill-rule="evenodd" clip-rule="evenodd" d="M325.74 26.24L330.92 31.42L338.44 23.9L336.09 21.55L330.92 26.73L325.74 21.55L323.39 23.9L320.57 26.73L315.39 21.55L313.04 23.9L320.57 31.42L325.74 26.24Z" fill="#BDAD83"/>
<path fill-rule="evenodd" clip-rule="evenodd" d="M330.92 33.93L328.09 31.1L325.74 28.76L323.39 31.1L320.56 33.93L315.39 28.76L313.04 31.1L320.56 38.63L325.74 33.45L330.92 38.63L338.44 31.1L336.09 28.76L330.92 33.93Z" fill="#BDAD83"/>
<path fill-rule="evenodd" clip-rule="evenodd" d="M330.43 39.1L328.09 36.75L325.74 39.1L323.39 36.75L321.05 39.1L325.74 43.79L330.43 39.1Z" fill="#BDAD83"/>
<path fill-rule="evenodd" clip-rule="evenodd" d="M89.39 14.34L87.05 12L84.7 14.34L82.35 12L80.01 14.34L84.7 19.04L89.39 14.34Z" fill="#BDAD83"/>
<path fill-rule="evenodd" clip-rule="evenodd" d="M85.45 19.78L89.88 24.21L94.57 19.52L92.22 17.18L89.88 19.52L87.79 17.43L85.45 19.78Z" fill="#BDAD83"/>
<path fill-rule="evenodd" clip-rule="evenodd" d="M83.96 19.78L81.61 17.43L79.69 19.35L77.34 17.01L75 19.35L79.69 24.05L83.96 19.78Z" fill="#BDAD83"/>
<path fill-rule="evenodd" clip-rule="evenodd" d="M84.7 26.24L89.88 31.42L97.4 23.9L95.05 21.55L89.88 26.73L84.7 21.55L82.35 23.9L79.53 26.73L74.35 21.55L72 23.9L79.53 31.42L84.7 26.24Z" fill="#BDAD83"/>
<path fill-rule="evenodd" clip-rule="evenodd" d="M89.88 33.93L87.05 31.1L84.7 28.76L82.35 31.1L79.52 33.93L74.35 28.76L72 31.1L79.52 38.63L84.7 33.45L89.88 38.63L97.4 31.1L95.05 28.76L89.88 33.93Z" fill="#BDAD83"/>
<path fill-rule="evenodd" clip-rule="evenodd" d="M89.39 39.1L87.05 36.75L84.7 39.1L82.35 36.75L80.01 39.1L84.7 43.79L89.39 39.1Z" fill="#BDAD83"/>
<path fill-rule="evenodd" clip-rule="evenodd" d="M282.39 14.34L280.05 12L277.7 14.34L275.35 12L273.01 14.34L277.7 19.04L282.39 14.34Z" fill="#BDAD83"/>
<path fill-rule="evenodd" clip-rule="evenodd" d="M278.45 19.78L282.88 24.21L287.57 19.52L285.22 17.18L282.88 19.52L280.79 17.43L278.45 19.78Z" fill="#BDAD83"/>
<path fill-rule="evenodd" clip-rule="evenodd" d="M276.96 19.78L274.61 17.43L272.69 19.35L270.34 17.01L268 19.35L272.69 24.05L276.96 19.78Z" fill="#BDAD83"/>
<path fill-rule="evenodd" clip-rule="evenodd" d="M277.7 26.24L282.88 31.42L290.4 23.9L288.05 21.55L282.88 26.73L277.7 21.55L275.35 23.9L272.53 26.73L267.35 21.55L265 23.9L272.53 31.42L277.7 26.24Z" fill="#BDAD83"/>
<path fill-rule="evenodd" clip-rule="evenodd" d="M282.88 33.93L280.05 31.1L277.7 28.76L275.35 31.1L272.52 33.93L267.35 28.76L265 31.1L272.52 38.63L277.7 33.45L282.88 38.63L290.4 31.1L288.05 28.76L282.88 33.93Z" fill="#BDAD83"/>
<path fill-rule="evenodd" clip-rule="evenodd" d="M282.39 39.1L280.05 36.75L277.7 39.1L275.35 36.75L273.01 39.1L277.7 43.79L282.39 39.1Z" fill="#BDAD83"/>
<path fill-rule="evenodd" clip-rule="evenodd" d="M185.39 14.34L183.05 12L180.7 14.34L178.35 12L176.01 14.34L180.7 19.04L185.39 14.34Z" fill="#BDAD83"/>
<path fill-rule="evenodd" clip-rule="evenodd" d="M181.45 19.78L185.88 24.21L190.57 19.52L188.22 17.18L185.88 19.52L183.79 17.43L181.45 19.78Z" fill="#BDAD83"/>
<path fill-rule="evenodd" clip-rule="evenodd" d="M179.96 19.78L177.61 17.43L175.69 19.35L173.34 17.01L171 19.35L175.69 24.05L179.96 19.78Z" fill="#BDAD83"/>
<path fill-rule="evenodd" clip-rule="evenodd" d="M180.7 26.24L185.88 31.42L193.4 23.9L191.05 21.55L185.88 26.73L180.7 21.55L178.35 23.9L175.53 26.73L170.35 21.55L168 23.9L175.53 31.42L180.7 26.24Z" fill="#BDAD83"/>
<path fill-rule="evenodd" clip-rule="evenodd" d="M185.88 33.93L183.05 31.1L180.7 28.76L178.35 31.1L175.52 33.93L170.35 28.76L168 31.1L175.52 38.63L180.7 33.45L185.88 38.63L193.4 31.1L191.05 28.76L185.88 33.93Z" fill="#BDAD83"/>
<path fill-rule="evenodd" clip-rule="evenodd" d="M185.39 39.1L183.05 36.75L180.7 39.1L178.35 36.75L176.01 39.1L180.7 43.79L185.39 39.1Z" fill="#BDAD83"/>
<path fill-rule="evenodd" clip-rule="evenodd" d="M378.39 14.34L376.05 12L373.7 14.34L371.35 12L369.01 14.34L373.7 19.04L378.39 14.34Z" fill="#BDAD83"/>
<path fill-rule="evenodd" clip-rule="evenodd" d="M374.45 19.78L378.88 24.21L383.57 19.52L381.22 17.18L378.88 19.52L376.79 17.43L374.45 19.78Z" fill="#BDAD83"/>
<path fill-rule="evenodd" clip-rule="evenodd" d="M372.96 19.78L370.61 17.43L368.69 19.35L366.34 17.01L364 19.35L368.69 24.05L372.96 19.78Z" fill="#BDAD83"/>
<path fill-rule="evenodd" clip-rule="evenodd" d="M373.7 26.24L378.88 31.42L386.4 23.9L384.05 21.55L378.88 26.73L373.7 21.55L371.35 23.9L368.53 26.73L363.35 21.55L361 23.9L368.53 31.42L373.7 26.24Z" fill="#BDAD83"/>
<path fill-rule="evenodd" clip-rule="evenodd" d="M378.88 33.93L376.05 31.1L373.7 28.76L371.35 31.1L368.52 33.93L363.35 28.76L361 31.1L368.52 38.63L373.7 33.45L378.88 38.63L386.4 31.1L384.05 28.76L378.88 33.93Z" fill="#BDAD83"/>
<path fill-rule="evenodd" clip-rule="evenodd" d="M378.39 39.1L376.05 36.75L373.7 39.1L371.35 36.75L369.01 39.1L373.7 43.79L378.39 39.1Z" fill="#BDAD83"/>
<path fill-rule="evenodd" clip-rule="evenodd" d="M17.39 2.34999L15.04 0L12.7 2.34999L10.35 0L8.00998 2.34999L12.7 7.03999L17.39 2.34999Z" fill="#BDAD83"/>
<path fill-rule="evenodd" clip-rule="evenodd" d="M13.44 7.78999L17.87 12.22L22.57 7.53L20.22 5.17999L17.87 7.53L15.79 5.44L13.44 7.78999Z" fill="#BDAD83"/>
<path fill-rule="evenodd" clip-rule="evenodd" d="M11.95 7.78999L9.60999 5.44L7.69 7.36L5.34 5.00999L2.98999 7.36L7.69 12.05L11.95 7.78999Z" fill="#BDAD83"/>
<path fill-rule="evenodd" clip-rule="evenodd" d="M12.7 14.25L17.87 19.43L25.4 11.9L23.05 9.56L17.87 14.73L15.05 11.9L12.7 9.56L10.35 11.9L7.51999 14.73L2.34998 9.56L0 11.9L7.51999 19.43L12.7 14.25Z" fill="#BDAD83"/>
<path fill-rule="evenodd" clip-rule="evenodd" d="M17.87 21.94L12.7 16.77L10.35 19.11L7.51999 21.94L2.34998 16.77L0 19.11L7.51999 26.63L12.7 21.46L17.87 26.63L25.4 19.11L23.05 16.77L17.87 21.94Z" fill="#BDAD83"/>
<path fill-rule="evenodd" clip-rule="evenodd" d="M17.39 27.1L15.04 24.75L12.7 27.1L10.35 24.75L8.00998 27.1L12.7 31.79L17.39 27.1Z" fill="#BDAD83"/>
<path fill-rule="evenodd" clip-rule="evenodd" d="M210.39 2.34999L208.04 0L205.7 2.34999L203.35 0L201.01 2.34999L205.7 7.03999L210.39 2.34999Z" fill="#BDAD83"/>
<path fill-rule="evenodd" clip-rule="evenodd" d="M206.44 7.78999L210.87 12.22L215.57 7.53L213.22 5.17999L210.87 7.53L208.79 5.44L206.44 7.78999Z" fill="#BDAD83"/>
<path fill-rule="evenodd" clip-rule="evenodd" d="M204.95 7.78999L202.61 5.44L200.69 7.36L198.34 5.00999L195.99 7.36L200.69 12.05L204.95 7.78999Z" fill="#BDAD83"/>
<path fill-rule="evenodd" clip-rule="evenodd" d="M205.7 14.25L210.87 19.43L218.4 11.9L216.05 9.56L210.87 14.73L208.05 11.9L205.7 9.56L203.35 11.9L200.52 14.73L195.35 9.56L193 11.9L200.52 19.43L205.7 14.25Z" fill="#BDAD83"/>
<path fill-rule="evenodd" clip-rule="evenodd" d="M210.87 21.94L205.7 16.77L203.35 19.11L200.52 21.94L195.35 16.77L193 19.11L200.52 26.63L205.7 21.46L210.87 26.63L218.4 19.11L216.05 16.77L210.87 21.94Z" fill="#BDAD83"/>
<path fill-rule="evenodd" clip-rule="evenodd" d="M210.39 27.1L208.04 24.75L205.7 27.1L203.35 24.75L201.01 27.1L205.7 31.79L210.39 27.1Z" fill="#BDAD83"/>
<path fill-rule="evenodd" clip-rule="evenodd" d="M837.48 2.34999L835.13 0L832.78 2.34999L830.44 0L828.09 2.34999L832.78 7.03999L837.48 2.34999Z" fill="#BDAD83"/>
<path fill-rule="evenodd" clip-rule="evenodd" d="M833.53 7.78999L837.96 12.22L842.65 7.53L840.31 5.17999L837.96 7.53L835.88 5.44L833.53 7.78999Z" fill="#BDAD83"/>
<path fill-rule="evenodd" clip-rule="evenodd" d="M832.04 7.78999L829.69 5.44L827.77 7.36L825.43 5.00999L823.08 7.36L827.77 12.05L832.04 7.78999Z" fill="#BDAD83"/>
<path fill-rule="evenodd" clip-rule="evenodd" d="M832.78 14.25L837.96 19.43L845.48 11.9L843.14 9.56L837.96 14.73L835.13 11.9L832.78 9.56L827.61 14.73L822.43 9.56L820.08 11.9L827.61 19.43L832.78 14.25Z" fill="#BDAD83"/>
<path fill-rule="evenodd" clip-rule="evenodd" d="M837.96 21.94L835.13 19.11L832.78 16.77L827.61 21.94L822.43 16.77L820.08 19.11L827.61 26.63L832.78 21.46L837.96 26.63L845.48 19.11L843.13 16.77L837.96 21.94Z" fill="#BDAD83"/>
<path fill-rule="evenodd" clip-rule="evenodd" d="M837.48 27.1L835.13 24.75L832.78 27.1L830.44 24.75L828.09 27.1L832.78 31.79L837.48 27.1Z" fill="#BDAD83"/>
<path fill-rule="evenodd" clip-rule="evenodd" d="M1030.48 2.34999L1028.13 0L1025.78 2.34999L1023.44 0L1021.09 2.34999L1025.78 7.03999L1030.48 2.34999Z" fill="#BDAD83"/>
<path fill-rule="evenodd" clip-rule="evenodd" d="M1026.53 7.78999L1030.96 12.22L1035.65 7.53L1033.31 5.17999L1030.96 7.53L1028.88 5.44L1026.53 7.78999Z" fill="#BDAD83"/>
<path fill-rule="evenodd" clip-rule="evenodd" d="M1025.04 7.78999L1022.69 5.44L1020.77 7.36L1018.43 5.00999L1016.08 7.36L1020.77 12.05L1025.04 7.78999Z" fill="#BDAD83"/>
<path fill-rule="evenodd" clip-rule="evenodd" d="M1025.78 14.25L1030.96 19.43L1038.48 11.9L1036.14 9.56L1030.96 14.73L1028.13 11.9L1025.78 9.56L1020.61 14.73L1015.43 9.56L1013.08 11.9L1020.61 19.43L1025.78 14.25Z" fill="#BDAD83"/>
<path fill-rule="evenodd" clip-rule="evenodd" d="M1030.96 21.94L1028.13 19.11L1025.78 16.77L1020.61 21.94L1015.43 16.77L1013.08 19.11L1020.61 26.63L1025.78 21.46L1030.96 26.63L1038.48 19.11L1036.13 16.77L1030.96 21.94Z" fill="#BDAD83"/>
<path fill-rule="evenodd" clip-rule="evenodd" d="M1030.48 27.1L1028.13 24.75L1025.78 27.1L1023.44 24.75L1021.09 27.1L1025.78 31.79L1030.48 27.1Z" fill="#BDAD83"/>
<path fill-rule="evenodd" clip-rule="evenodd" d="M933.48 2.34999L931.13 0L928.78 2.34999L926.44 0L924.09 2.34999L928.78 7.03999L933.48 2.34999Z" fill="#BDAD83"/>
<path fill-rule="evenodd" clip-rule="evenodd" d="M929.53 7.78999L933.96 12.22L938.65 7.53L936.31 5.17999L933.96 7.53L931.88 5.44L929.53 7.78999Z" fill="#BDAD83"/>
<path fill-rule="evenodd" clip-rule="evenodd" d="M928.04 7.78999L925.69 5.44L923.77 7.36L921.43 5.00999L919.08 7.36L923.77 12.05L928.04 7.78999Z" fill="#BDAD83"/>
<path fill-rule="evenodd" clip-rule="evenodd" d="M928.78 14.25L933.96 19.43L941.48 11.9L939.14 9.56L933.96 14.73L931.13 11.9L928.78 9.56L923.61 14.73L918.43 9.56L916.08 11.9L923.61 19.43L928.78 14.25Z" fill="#BDAD83"/>
<path fill-rule="evenodd" clip-rule="evenodd" d="M933.96 21.94L931.13 19.11L928.78 16.77L923.61 21.94L918.43 16.77L916.08 19.11L923.61 26.63L928.78 21.46L933.96 26.63L941.48 19.11L939.13 16.77L933.96 21.94Z" fill="#BDAD83"/>
<path fill-rule="evenodd" clip-rule="evenodd" d="M933.48 27.1L931.13 24.75L928.78 27.1L926.44 24.75L924.09 27.1L928.78 31.79L933.48 27.1Z" fill="#BDAD83"/>
<path fill-rule="evenodd" clip-rule="evenodd" d="M1126.48 2.34999L1124.13 0L1121.78 2.34999L1119.44 0L1117.09 2.34999L1121.78 7.03999L1126.48 2.34999Z" fill="#BDAD83"/>
<path fill-rule="evenodd" clip-rule="evenodd" d="M1122.53 7.78999L1126.96 12.22L1131.65 7.53L1129.31 5.17999L1126.96 7.53L1124.88 5.44L1122.53 7.78999Z" fill="#BDAD83"/>
<path fill-rule="evenodd" clip-rule="evenodd" d="M1121.04 7.78999L1118.69 5.44L1116.77 7.36L1114.43 5.00999L1112.08 7.36L1116.77 12.05L1121.04 7.78999Z" fill="#BDAD83"/>
<path fill-rule="evenodd" clip-rule="evenodd" d="M1121.78 14.25L1126.96 19.43L1134.48 11.9L1132.14 9.56L1126.96 14.73L1124.13 11.9L1121.78 9.56L1116.61 14.73L1111.43 9.56L1109.08 11.9L1116.61 19.43L1121.78 14.25Z" fill="#BDAD83"/>
<path fill-rule="evenodd" clip-rule="evenodd" d="M1126.96 21.94L1124.13 19.11L1121.78 16.77L1116.61 21.94L1111.43 16.77L1109.08 19.11L1116.61 26.63L1121.78 21.46L1126.96 26.63L1134.48 19.11L1132.13 16.77L1126.96 21.94Z" fill="#BDAD83"/>
<path fill-rule="evenodd" clip-rule="evenodd" d="M1126.48 27.1L1124.13 24.75L1121.78 27.1L1119.44 24.75L1117.09 27.1L1121.78 31.79L1126.48 27.1Z" fill="#BDAD83"/>
<path fill-rule="evenodd" clip-rule="evenodd" d="M885.4 2.34999L883.05 0L880.7 2.34999L878.36 0L876.01 2.34999L880.7 7.03999L885.4 2.34999Z" fill="#BDAD83"/>
<path fill-rule="evenodd" clip-rule="evenodd" d="M881.45 7.78999L885.88 12.22L890.57 7.53L888.23 5.17999L885.88 7.53L883.8 5.44L881.45 7.78999Z" fill="#BDAD83"/>
<path fill-rule="evenodd" clip-rule="evenodd" d="M879.96 7.78999L877.61 5.44L875.69 7.36L873.35 5.00999L871 7.36L875.69 12.05L879.96 7.78999Z" fill="#BDAD83"/>
<path fill-rule="evenodd" clip-rule="evenodd" d="M880.7 14.25L885.88 19.43L893.4 11.9L891.06 9.56L885.88 14.73L883.05 11.9L880.7 9.56L875.53 14.73L870.35 9.56L868 11.9L875.53 19.43L880.7 14.25Z" fill="#BDAD83"/>
<path fill-rule="evenodd" clip-rule="evenodd" d="M885.88 21.94L883.05 19.11L880.7 16.77L875.53 21.94L870.35 16.77L868 19.11L875.53 26.63L880.7 21.46L885.88 26.63L893.4 19.11L891.05 16.77L885.88 21.94Z" fill="#BDAD83"/>
<path fill-rule="evenodd" clip-rule="evenodd" d="M885.4 27.1L883.05 24.75L880.7 27.1L878.36 24.75L876.01 27.1L880.7 31.79L885.4 27.1Z" fill="#BDAD83"/>
<path fill-rule="evenodd" clip-rule="evenodd" d="M1078.4 2.34999L1076.05 0L1073.7 2.34999L1071.36 0L1069.01 2.34999L1073.7 7.03999L1078.4 2.34999Z" fill="#BDAD83"/>
<path fill-rule="evenodd" clip-rule="evenodd" d="M1074.45 7.78999L1078.88 12.22L1083.57 7.53L1081.23 5.17999L1078.88 7.53L1076.8 5.44L1074.45 7.78999Z" fill="#BDAD83"/>
<path fill-rule="evenodd" clip-rule="evenodd" d="M1072.96 7.78999L1070.61 5.44L1068.69 7.36L1066.35 5.00999L1064 7.36L1068.69 12.05L1072.96 7.78999Z" fill="#BDAD83"/>
<path fill-rule="evenodd" clip-rule="evenodd" d="M1073.7 14.25L1078.88 19.43L1086.4 11.9L1084.06 9.56L1078.88 14.73L1076.05 11.9L1073.7 9.56L1068.53 14.73L1063.35 9.56L1061 11.9L1068.53 19.43L1073.7 14.25Z" fill="#BDAD83"/>
<path fill-rule="evenodd" clip-rule="evenodd" d="M1078.88 21.94L1076.05 19.11L1073.7 16.77L1068.53 21.94L1063.35 16.77L1061 19.11L1068.53 26.63L1073.7 21.46L1078.88 26.63L1086.4 19.11L1084.05 16.77L1078.88 21.94Z" fill="#BDAD83"/>
<path fill-rule="evenodd" clip-rule="evenodd" d="M1078.4 27.1L1076.05 24.75L1073.7 27.1L1071.36 24.75L1069.01 27.1L1073.7 31.79L1078.4 27.1Z" fill="#BDAD83"/>
<path fill-rule="evenodd" clip-rule="evenodd" d="M813.43 14.34L811.09 12L808.74 14.34L806.39 12L804.05 14.34L808.74 19.04L813.43 14.34Z" fill="#BDAD83"/>
<path fill-rule="evenodd" clip-rule="evenodd" d="M809.49 19.78L813.92 24.21L818.61 19.52L816.26 17.18L813.92 19.52L811.83 17.43L809.49 19.78Z" fill="#BDAD83"/>
<path fill-rule="evenodd" clip-rule="evenodd" d="M808 19.78L805.65 17.43L803.73 19.35L801.38 17.01L799.04 19.35L803.73 24.05L808 19.78Z" fill="#BDAD83"/>
<path fill-rule="evenodd" clip-rule="evenodd" d="M808.74 26.24L813.92 31.42L821.44 23.9L819.09 21.55L813.92 26.73L808.74 21.55L806.39 23.9L803.57 26.73L798.39 21.55L796.04 23.9L803.57 31.42L808.74 26.24Z" fill="#BDAD83"/>
<path fill-rule="evenodd" clip-rule="evenodd" d="M813.92 33.93L811.09 31.1L808.74 28.76L806.39 31.1L803.56 33.93L798.39 28.76L796.04 31.1L803.56 38.63L808.74 33.45L813.92 38.63L821.44 31.1L819.09 28.76L813.92 33.93Z" fill="#BDAD83"/>
<path fill-rule="evenodd" clip-rule="evenodd" d="M813.43 39.1L811.09 36.75L808.74 39.1L806.39 36.75L804.05 39.1L808.74 43.79L813.43 39.1Z" fill="#BDAD83"/>
<path fill-rule="evenodd" clip-rule="evenodd" d="M1006.43 14.34L1004.09 12L1001.74 14.34L999.39 12L997.05 14.34L1001.74 19.04L1006.43 14.34Z" fill="#BDAD83"/>
<path fill-rule="evenodd" clip-rule="evenodd" d="M1002.49 19.78L1006.92 24.21L1011.61 19.52L1009.26 17.18L1006.92 19.52L1004.83 17.43L1002.49 19.78Z" fill="#BDAD83"/>
<path fill-rule="evenodd" clip-rule="evenodd" d="M1001 19.78L998.65 17.43L996.73 19.35L994.38 17.01L992.04 19.35L996.73 24.05L1001 19.78Z" fill="#BDAD83"/>
<path fill-rule="evenodd" clip-rule="evenodd" d="M1001.74 26.24L1006.92 31.42L1014.44 23.9L1012.09 21.55L1006.92 26.73L1001.74 21.55L999.39 23.9L996.57 26.73L991.39 21.55L989.04 23.9L996.57 31.42L1001.74 26.24Z" fill="#BDAD83"/>
<path fill-rule="evenodd" clip-rule="evenodd" d="M1006.92 33.93L1004.09 31.1L1001.74 28.76L999.39 31.1L996.56 33.93L991.39 28.76L989.04 31.1L996.56 38.63L1001.74 33.45L1006.92 38.63L1014.44 31.1L1012.09 28.76L1006.92 33.93Z" fill="#BDAD83"/>
<path fill-rule="evenodd" clip-rule="evenodd" d="M1006.43 39.1L1004.09 36.75L1001.74 39.1L999.39 36.75L997.05 39.1L1001.74 43.79L1006.43 39.1Z" fill="#BDAD83"/>
<path fill-rule="evenodd" clip-rule="evenodd" d="M909.43 14.34L907.09 12L904.74 14.34L902.39 12L900.05 14.34L904.74 19.04L909.43 14.34Z" fill="#BDAD83"/>
<path fill-rule="evenodd" clip-rule="evenodd" d="M905.49 19.78L909.92 24.21L914.61 19.52L912.26 17.18L909.92 19.52L907.83 17.43L905.49 19.78Z" fill="#BDAD83"/>
<path fill-rule="evenodd" clip-rule="evenodd" d="M904 19.78L901.65 17.43L899.73 19.35L897.38 17.01L895.04 19.35L899.73 24.05L904 19.78Z" fill="#BDAD83"/>
<path fill-rule="evenodd" clip-rule="evenodd" d="M904.74 26.24L909.92 31.42L917.44 23.9L915.09 21.55L909.92 26.73L904.74 21.55L902.39 23.9L899.57 26.73L894.39 21.55L892.04 23.9L899.57 31.42L904.74 26.24Z" fill="#BDAD83"/>
<path fill-rule="evenodd" clip-rule="evenodd" d="M909.92 33.93L907.09 31.1L904.74 28.76L902.39 31.1L899.56 33.93L894.39 28.76L892.04 31.1L899.56 38.63L904.74 33.45L909.92 38.63L917.44 31.1L915.09 28.76L909.92 33.93Z" fill="#BDAD83"/>
<path fill-rule="evenodd" clip-rule="evenodd" d="M909.43 39.1L907.09 36.75L904.74 39.1L902.39 36.75L900.05 39.1L904.74 43.79L909.43 39.1Z" fill="#BDAD83"/>
<path fill-rule="evenodd" clip-rule="evenodd" d="M1102.43 14.34L1100.09 12L1097.74 14.34L1095.39 12L1093.05 14.34L1097.74 19.04L1102.43 14.34Z" fill="#BDAD83"/>
<path fill-rule="evenodd" clip-rule="evenodd" d="M1098.49 19.78L1102.92 24.21L1107.61 19.52L1105.26 17.18L1102.92 19.52L1100.83 17.43L1098.49 19.78Z" fill="#BDAD83"/>
<path fill-rule="evenodd" clip-rule="evenodd" d="M1097 19.78L1094.65 17.43L1092.73 19.35L1090.38 17.01L1088.04 19.35L1092.73 24.05L1097 19.78Z" fill="#BDAD83"/>
<path fill-rule="evenodd" clip-rule="evenodd" d="M1097.74 26.24L1102.92 31.42L1110.44 23.9L1108.09 21.55L1102.92 26.73L1097.74 21.55L1095.39 23.9L1092.57 26.73L1087.39 21.55L1085.04 23.9L1092.57 31.42L1097.74 26.24Z" fill="#BDAD83"/>
<path fill-rule="evenodd" clip-rule="evenodd" d="M1102.92 33.93L1100.09 31.1L1097.74 28.76L1095.39 31.1L1092.56 33.93L1087.39 28.76L1085.04 31.1L1092.56 38.63L1097.74 33.45L1102.92 38.63L1110.44 31.1L1108.09 28.76L1102.92 33.93Z" fill="#BDAD83"/>
<path fill-rule="evenodd" clip-rule="evenodd" d="M1102.43 39.1L1100.09 36.75L1097.74 39.1L1095.39 36.75L1093.05 39.1L1097.74 43.79L1102.43 39.1Z" fill="#BDAD83"/>
<path fill-rule="evenodd" clip-rule="evenodd" d="M861.39 14.34L859.05 12L856.7 14.34L854.35 12L852.01 14.34L856.7 19.04L861.39 14.34Z" fill="#BDAD83"/>
<path fill-rule="evenodd" clip-rule="evenodd" d="M857.45 19.78L861.88 24.21L866.57 19.52L864.22 17.18L861.88 19.52L859.79 17.43L857.45 19.78Z" fill="#BDAD83"/>
<path fill-rule="evenodd" clip-rule="evenodd" d="M855.96 19.78L853.61 17.43L851.69 19.35L849.34 17.01L847 19.35L851.69 24.05L855.96 19.78Z" fill="#BDAD83"/>
<path fill-rule="evenodd" clip-rule="evenodd" d="M856.7 26.24L861.88 31.42L869.4 23.9L867.05 21.55L861.88 26.73L856.7 21.55L854.35 23.9L851.53 26.73L846.35 21.55L844 23.9L851.53 31.42L856.7 26.24Z" fill="#BDAD83"/>
<path fill-rule="evenodd" clip-rule="evenodd" d="M861.88 33.93L859.05 31.1L856.7 28.76L854.35 31.1L851.52 33.93L846.35 28.76L844 31.1L851.52 38.63L856.7 33.45L861.88 38.63L869.4 31.1L867.05 28.76L861.88 33.93Z" fill="#BDAD83"/>
<path fill-rule="evenodd" clip-rule="evenodd" d="M861.39 39.1L859.05 36.75L856.7 39.1L854.35 36.75L852.01 39.1L856.7 43.79L861.39 39.1Z" fill="#BDAD83"/>
<path fill-rule="evenodd" clip-rule="evenodd" d="M1054.39 14.34L1052.05 12L1049.7 14.34L1047.35 12L1045.01 14.34L1049.7 19.04L1054.39 14.34Z" fill="#BDAD83"/>
<path fill-rule="evenodd" clip-rule="evenodd" d="M1050.45 19.78L1054.88 24.21L1059.57 19.52L1057.22 17.18L1054.88 19.52L1052.79 17.43L1050.45 19.78Z" fill="#BDAD83"/>
<path fill-rule="evenodd" clip-rule="evenodd" d="M1048.96 19.78L1046.61 17.43L1044.69 19.35L1042.34 17.01L1040 19.35L1044.69 24.05L1048.96 19.78Z" fill="#BDAD83"/>
<path fill-rule="evenodd" clip-rule="evenodd" d="M1049.7 26.24L1054.88 31.42L1062.4 23.9L1060.05 21.55L1054.88 26.73L1049.7 21.55L1047.35 23.9L1044.53 26.73L1039.35 21.55L1037 23.9L1044.53 31.42L1049.7 26.24Z" fill="#BDAD83"/>
<path fill-rule="evenodd" clip-rule="evenodd" d="M1054.88 33.93L1052.05 31.1L1049.7 28.76L1047.35 31.1L1044.52 33.93L1039.35 28.76L1037 31.1L1044.52 38.63L1049.7 33.45L1054.88 38.63L1062.4 31.1L1060.05 28.76L1054.88 33.93Z" fill="#BDAD83"/>
<path fill-rule="evenodd" clip-rule="evenodd" d="M1054.39 39.1L1052.05 36.75L1049.7 39.1L1047.35 36.75L1045.01 39.1L1049.7 43.79L1054.39 39.1Z" fill="#BDAD83"/>
<path fill-rule="evenodd" clip-rule="evenodd" d="M957.39 14.34L955.05 12L952.7 14.34L950.35 12L948.01 14.34L952.7 19.04L957.39 14.34Z" fill="#BDAD83"/>
<path fill-rule="evenodd" clip-rule="evenodd" d="M953.45 19.78L957.88 24.21L962.57 19.52L960.22 17.18L957.88 19.52L955.79 17.43L953.45 19.78Z" fill="#BDAD83"/>
<path fill-rule="evenodd" clip-rule="evenodd" d="M951.96 19.78L949.61 17.43L947.69 19.35L945.34 17.01L943 19.35L947.69 24.05L951.96 19.78Z" fill="#BDAD83"/>
<path fill-rule="evenodd" clip-rule="evenodd" d="M952.7 26.24L957.88 31.42L965.4 23.9L963.05 21.55L957.88 26.73L952.7 21.55L950.35 23.9L947.53 26.73L942.35 21.55L940 23.9L947.53 31.42L952.7 26.24Z" fill="#BDAD83"/>
<path fill-rule="evenodd" clip-rule="evenodd" d="M957.88 33.93L955.05 31.1L952.7 28.76L950.35 31.1L947.52 33.93L942.35 28.76L940 31.1L947.52 38.63L952.7 33.45L957.88 38.63L965.4 31.1L963.05 28.76L957.88 33.93Z" fill="#BDAD83"/>
<path fill-rule="evenodd" clip-rule="evenodd" d="M957.39 39.1L955.05 36.75L952.7 39.1L950.35 36.75L948.01 39.1L952.7 43.79L957.39 39.1Z" fill="#BDAD83"/>
<path fill-rule="evenodd" clip-rule="evenodd" d="M1150.39 14.34L1148.05 12L1145.7 14.34L1143.35 12L1141.01 14.34L1145.7 19.04L1150.39 14.34Z" fill="#BDAD83"/>
<path fill-rule="evenodd" clip-rule="evenodd" d="M1146.45 19.78L1150.88 24.21L1155.57 19.52L1153.22 17.18L1150.88 19.52L1148.79 17.43L1146.45 19.78Z" fill="#BDAD83"/>
<path fill-rule="evenodd" clip-rule="evenodd" d="M1144.96 19.78L1142.61 17.43L1140.69 19.35L1138.34 17.01L1136 19.35L1140.69 24.05L1144.96 19.78Z" fill="#BDAD83"/>
<path fill-rule="evenodd" clip-rule="evenodd" d="M1145.7 26.24L1150.88 31.42L1158.4 23.9L1156.05 21.55L1150.88 26.73L1145.7 21.55L1143.35 23.9L1140.53 26.73L1135.35 21.55L1133 23.9L1140.53 31.42L1145.7 26.24Z" fill="#BDAD83"/>
<path fill-rule="evenodd" clip-rule="evenodd" d="M1150.88 33.93L1148.05 31.1L1145.7 28.76L1143.35 31.1L1140.52 33.93L1135.35 28.76L1133 31.1L1140.52 38.63L1145.7 33.45L1150.88 38.63L1158.4 31.1L1156.05 28.76L1150.88 33.93Z" fill="#BDAD83"/>
<path fill-rule="evenodd" clip-rule="evenodd" d="M1150.39 39.1L1148.05 36.75L1145.7 39.1L1143.35 36.75L1141.01 39.1L1145.7 43.79L1150.39 39.1Z" fill="#BDAD83"/>
<path fill-rule="evenodd" clip-rule="evenodd" d="M789.39 2.34999L787.04 0L784.7 2.34999L782.35 0L780.01 2.34999L784.7 7.03999L789.39 2.34999Z" fill="#BDAD83"/>
<path fill-rule="evenodd" clip-rule="evenodd" d="M785.44 7.78999L789.87 12.22L794.57 7.53L792.22 5.17999L789.87 7.53L787.79 5.44L785.44 7.78999Z" fill="#BDAD83"/>
<path fill-rule="evenodd" clip-rule="evenodd" d="M783.95 7.78999L781.61 5.44L779.69 7.36L777.34 5.00999L774.99 7.36L779.69 12.05L783.95 7.78999Z" fill="#BDAD83"/>
<path fill-rule="evenodd" clip-rule="evenodd" d="M784.7 14.25L789.87 19.43L797.4 11.9L795.05 9.56L789.87 14.73L787.05 11.9L784.7 9.56L782.35 11.9L779.52 14.73L774.35 9.56L772 11.9L779.52 19.43L784.7 14.25Z" fill="#BDAD83"/>
<path fill-rule="evenodd" clip-rule="evenodd" d="M789.87 21.94L784.7 16.77L782.35 19.11L779.52 21.94L774.35 16.77L772 19.11L779.52 26.63L784.7 21.46L789.87 26.63L797.4 19.11L795.05 16.77L789.87 21.94Z" fill="#BDAD83"/>
<path fill-rule="evenodd" clip-rule="evenodd" d="M789.39 27.1L787.04 24.75L784.7 27.1L782.35 24.75L780.01 27.1L784.7 31.79L789.39 27.1Z" fill="#BDAD83"/>
<path fill-rule="evenodd" clip-rule="evenodd" d="M982.39 2.34999L980.04 0L977.7 2.34999L975.35 0L973.01 2.34999L977.7 7.03999L982.39 2.34999Z" fill="#BDAD83"/>
<path fill-rule="evenodd" clip-rule="evenodd" d="M978.44 7.78999L982.87 12.22L987.57 7.53L985.22 5.17999L982.87 7.53L980.79 5.44L978.44 7.78999Z" fill="#BDAD83"/>
<path fill-rule="evenodd" clip-rule="evenodd" d="M976.95 7.78999L974.61 5.44L972.69 7.36L970.34 5.00999L967.99 7.36L972.69 12.05L976.95 7.78999Z" fill="#BDAD83"/>
<path fill-rule="evenodd" clip-rule="evenodd" d="M977.7 14.25L982.87 19.43L990.4 11.9L988.05 9.56L982.87 14.73L980.05 11.9L977.7 9.56L975.35 11.9L972.52 14.73L967.35 9.56L965 11.9L972.52 19.43L977.7 14.25Z" fill="#BDAD83"/>
<path fill-rule="evenodd" clip-rule="evenodd" d="M982.87 21.94L977.7 16.77L975.35 19.11L972.52 21.94L967.35 16.77L965 19.11L972.52 26.63L977.7 21.46L982.87 26.63L990.4 19.11L988.05 16.77L982.87 21.94Z" fill="#BDAD83"/>
<path fill-rule="evenodd" clip-rule="evenodd" d="M982.39 27.1L980.04 24.75L977.7 27.1L975.35 24.75L973.01 27.1L977.7 31.79L982.39 27.1Z" fill="#BDAD83"/>
<path fill-rule="evenodd" clip-rule="evenodd" d="M451.48 2.34999L449.13 0L446.78 2.34999L444.44 0L442.09 2.34999L446.78 7.03999L451.48 2.34999Z" fill="#BDAD83"/>
<path fill-rule="evenodd" clip-rule="evenodd" d="M447.53 7.78999L451.96 12.22L456.65 7.53L454.31 5.17999L451.96 7.53L449.88 5.44L447.53 7.78999Z" fill="#BDAD83"/>
<path fill-rule="evenodd" clip-rule="evenodd" d="M446.04 7.78999L443.69 5.44L441.77 7.36L439.43 5.00999L437.08 7.36L441.77 12.05L446.04 7.78999Z" fill="#BDAD83"/>
<path fill-rule="evenodd" clip-rule="evenodd" d="M446.78 14.25L451.96 19.43L459.48 11.9L457.14 9.56L451.96 14.73L449.13 11.9L446.78 9.56L441.61 14.73L436.43 9.56L434.08 11.9L441.61 19.43L446.78 14.25Z" fill="#BDAD83"/>
<path fill-rule="evenodd" clip-rule="evenodd" d="M451.96 21.94L449.13 19.11L446.78 16.77L441.61 21.94L436.43 16.77L434.08 19.11L441.61 26.63L446.78 21.46L451.96 26.63L459.48 19.11L457.13 16.77L451.96 21.94Z" fill="#BDAD83"/>
<path fill-rule="evenodd" clip-rule="evenodd" d="M451.48 27.1L449.13 24.75L446.78 27.1L444.44 24.75L442.09 27.1L446.78 31.79L451.48 27.1Z" fill="#BDAD83"/>
<path fill-rule="evenodd" clip-rule="evenodd" d="M644.48 2.34999L642.13 0L639.78 2.34999L637.44 0L635.09 2.34999L639.78 7.03999L644.48 2.34999Z" fill="#BDAD83"/>
<path fill-rule="evenodd" clip-rule="evenodd" d="M640.53 7.78999L644.96 12.22L649.65 7.53L647.31 5.17999L644.96 7.53L642.88 5.44L640.53 7.78999Z" fill="#BDAD83"/>
<path fill-rule="evenodd" clip-rule="evenodd" d="M639.04 7.78999L636.69 5.44L634.77 7.36L632.43 5.00999L630.08 7.36L634.77 12.05L639.04 7.78999Z" fill="#BDAD83"/>
<path fill-rule="evenodd" clip-rule="evenodd" d="M639.78 14.25L644.96 19.43L652.48 11.9L650.14 9.56L644.96 14.73L642.13 11.9L639.78 9.56L634.61 14.73L629.43 9.56L627.08 11.9L634.61 19.43L639.78 14.25Z" fill="#BDAD83"/>
<path fill-rule="evenodd" clip-rule="evenodd" d="M644.96 21.94L642.13 19.11L639.78 16.77L634.61 21.94L629.43 16.77L627.08 19.11L634.61 26.63L639.78 21.46L644.96 26.63L652.48 19.11L650.13 16.77L644.96 21.94Z" fill="#BDAD83"/>
<path fill-rule="evenodd" clip-rule="evenodd" d="M644.48 27.1L642.13 24.75L639.78 27.1L637.44 24.75L635.09 27.1L639.78 31.79L644.48 27.1Z" fill="#BDAD83"/>
<path fill-rule="evenodd" clip-rule="evenodd" d="M547.48 2.34999L545.13 0L542.78 2.34999L540.44 0L538.09 2.34999L542.78 7.03999L547.48 2.34999Z" fill="#BDAD83"/>
<path fill-rule="evenodd" clip-rule="evenodd" d="M543.53 7.78999L547.96 12.22L552.65 7.53L550.31 5.17999L547.96 7.53L545.88 5.44L543.53 7.78999Z" fill="#BDAD83"/>
<path fill-rule="evenodd" clip-rule="evenodd" d="M542.04 7.78999L539.69 5.44L537.77 7.36L535.43 5.00999L533.08 7.36L537.77 12.05L542.04 7.78999Z" fill="#BDAD83"/>
<path fill-rule="evenodd" clip-rule="evenodd" d="M542.78 14.25L547.96 19.43L555.48 11.9L553.14 9.56L547.96 14.73L545.13 11.9L542.78 9.56L537.61 14.73L532.43 9.56L530.08 11.9L537.61 19.43L542.78 14.25Z" fill="#BDAD83"/>
<path fill-rule="evenodd" clip-rule="evenodd" d="M547.96 21.94L545.13 19.11L542.78 16.77L537.61 21.94L532.43 16.77L530.08 19.11L537.61 26.63L542.78 21.46L547.96 26.63L555.48 19.11L553.13 16.77L547.96 21.94Z" fill="#BDAD83"/>
<path fill-rule="evenodd" clip-rule="evenodd" d="M547.48 27.1L545.13 24.75L542.78 27.1L540.44 24.75L538.09 27.1L542.78 31.79L547.48 27.1Z" fill="#BDAD83"/>
<path fill-rule="evenodd" clip-rule="evenodd" d="M740.48 2.34999L738.13 0L735.78 2.34999L733.44 0L731.09 2.34999L735.78 7.03999L740.48 2.34999Z" fill="#BDAD83"/>
<path fill-rule="evenodd" clip-rule="evenodd" d="M736.53 7.78999L740.96 12.22L745.65 7.53L743.31 5.17999L740.96 7.53L738.88 5.44L736.53 7.78999Z" fill="#BDAD83"/>
<path fill-rule="evenodd" clip-rule="evenodd" d="M735.04 7.78999L732.69 5.44L730.77 7.36L728.43 5.00999L726.08 7.36L730.77 12.05L735.04 7.78999Z" fill="#BDAD83"/>
<path fill-rule="evenodd" clip-rule="evenodd" d="M735.78 14.25L740.96 19.43L748.48 11.9L746.14 9.56L740.96 14.73L738.13 11.9L735.78 9.56L730.61 14.73L725.43 9.56L723.08 11.9L730.61 19.43L735.78 14.25Z" fill="#BDAD83"/>
<path fill-rule="evenodd" clip-rule="evenodd" d="M740.96 21.94L738.13 19.11L735.78 16.77L730.61 21.94L725.43 16.77L723.08 19.11L730.61 26.63L735.78 21.46L740.96 26.63L748.48 19.11L746.13 16.77L740.96 21.94Z" fill="#BDAD83"/>
<path fill-rule="evenodd" clip-rule="evenodd" d="M740.48 27.1L738.13 24.75L735.78 27.1L733.44 24.75L731.09 27.1L735.78 31.79L740.48 27.1Z" fill="#BDAD83"/>
<path fill-rule="evenodd" clip-rule="evenodd" d="M499.4 2.34999L497.05 0L494.7 2.34999L492.36 0L490.01 2.34999L494.7 7.03999L499.4 2.34999Z" fill="#BDAD83"/>
<path fill-rule="evenodd" clip-rule="evenodd" d="M495.45 7.78999L499.88 12.22L504.57 7.53L502.23 5.17999L499.88 7.53L497.8 5.44L495.45 7.78999Z" fill="#BDAD83"/>
<path fill-rule="evenodd" clip-rule="evenodd" d="M493.96 7.78999L491.61 5.44L489.69 7.36L487.35 5.00999L485 7.36L489.69 12.05L493.96 7.78999Z" fill="#BDAD83"/>
<path fill-rule="evenodd" clip-rule="evenodd" d="M494.7 14.25L499.88 19.43L507.4 11.9L505.06 9.56L499.88 14.73L497.05 11.9L494.7 9.56L489.53 14.73L484.35 9.56L482 11.9L489.53 19.43L494.7 14.25Z" fill="#BDAD83"/>
<path fill-rule="evenodd" clip-rule="evenodd" d="M499.88 21.94L497.05 19.11L494.7 16.77L489.53 21.94L484.35 16.77L482 19.11L489.53 26.63L494.7 21.46L499.88 26.63L507.4 19.11L505.05 16.77L499.88 21.94Z" fill="#BDAD83"/>
<path fill-rule="evenodd" clip-rule="evenodd" d="M499.4 27.1L497.05 24.75L494.7 27.1L492.36 24.75L490.01 27.1L494.7 31.79L499.4 27.1Z" fill="#BDAD83"/>
<path fill-rule="evenodd" clip-rule="evenodd" d="M692.4 2.34999L690.05 0L687.7 2.34999L685.36 0L683.01 2.34999L687.7 7.03999L692.4 2.34999Z" fill="#BDAD83"/>
<path fill-rule="evenodd" clip-rule="evenodd" d="M688.45 7.78999L692.88 12.22L697.57 7.53L695.23 5.17999L692.88 7.53L690.8 5.44L688.45 7.78999Z" fill="#BDAD83"/>
<path fill-rule="evenodd" clip-rule="evenodd" d="M686.96 7.78999L684.61 5.44L682.69 7.36L680.35 5.00999L678 7.36L682.69 12.05L686.96 7.78999Z" fill="#BDAD83"/>
<path fill-rule="evenodd" clip-rule="evenodd" d="M687.7 14.25L692.88 19.43L700.4 11.9L698.06 9.56L692.88 14.73L690.05 11.9L687.7 9.56L682.53 14.73L677.35 9.56L675 11.9L682.53 19.43L687.7 14.25Z" fill="#BDAD83"/>
<path fill-rule="evenodd" clip-rule="evenodd" d="M692.88 21.94L690.05 19.11L687.7 16.77L682.53 21.94L677.35 16.77L675 19.11L682.53 26.63L687.7 21.46L692.88 26.63L700.4 19.11L698.05 16.77L692.88 21.94Z" fill="#BDAD83"/>
<path fill-rule="evenodd" clip-rule="evenodd" d="M692.4 27.1L690.05 24.75L687.7 27.1L685.36 24.75L683.01 27.1L687.7 31.79L692.4 27.1Z" fill="#BDAD83"/>
<path fill-rule="evenodd" clip-rule="evenodd" d="M427.43 14.34L425.09 12L422.74 14.34L420.39 12L418.05 14.34L422.74 19.04L427.43 14.34Z" fill="#BDAD83"/>
<path fill-rule="evenodd" clip-rule="evenodd" d="M423.49 19.78L427.92 24.21L432.61 19.52L430.26 17.18L427.92 19.52L425.83 17.43L423.49 19.78Z" fill="#BDAD83"/>
<path fill-rule="evenodd" clip-rule="evenodd" d="M422 19.78L419.65 17.43L417.73 19.35L415.38 17.01L413.04 19.35L417.73 24.05L422 19.78Z" fill="#BDAD83"/>
<path fill-rule="evenodd" clip-rule="evenodd" d="M422.74 26.24L427.92 31.42L435.44 23.9L433.09 21.55L427.92 26.73L422.74 21.55L420.39 23.9L417.57 26.73L412.39 21.55L410.04 23.9L417.57 31.42L422.74 26.24Z" fill="#BDAD83"/>
<path fill-rule="evenodd" clip-rule="evenodd" d="M427.92 33.93L425.09 31.1L422.74 28.76L420.39 31.1L417.56 33.93L412.39 28.76L410.04 31.1L417.56 38.63L422.74 33.45L427.92 38.63L435.44 31.1L433.09 28.76L427.92 33.93Z" fill="#BDAD83"/>
<path fill-rule="evenodd" clip-rule="evenodd" d="M427.43 39.1L425.09 36.75L422.74 39.1L420.39 36.75L418.05 39.1L422.74 43.79L427.43 39.1Z" fill="#BDAD83"/>
<path fill-rule="evenodd" clip-rule="evenodd" d="M620.43 14.34L618.09 12L615.74 14.34L613.39 12L611.05 14.34L615.74 19.04L620.43 14.34Z" fill="#BDAD83"/>
<path fill-rule="evenodd" clip-rule="evenodd" d="M616.49 19.78L620.92 24.21L625.61 19.52L623.26 17.18L620.92 19.52L618.83 17.43L616.49 19.78Z" fill="#BDAD83"/>
<path fill-rule="evenodd" clip-rule="evenodd" d="M615 19.78L612.65 17.43L610.73 19.35L608.38 17.01L606.04 19.35L610.73 24.05L615 19.78Z" fill="#BDAD83"/>
<path fill-rule="evenodd" clip-rule="evenodd" d="M615.74 26.24L620.92 31.42L628.44 23.9L626.09 21.55L620.92 26.73L615.74 21.55L613.39 23.9L610.57 26.73L605.39 21.55L603.04 23.9L610.57 31.42L615.74 26.24Z" fill="#BDAD83"/>
<path fill-rule="evenodd" clip-rule="evenodd" d="M620.92 33.93L618.09 31.1L615.74 28.76L613.39 31.1L610.56 33.93L605.39 28.76L603.04 31.1L610.56 38.63L615.74 33.45L620.92 38.63L628.44 31.1L626.09 28.76L620.92 33.93Z" fill="#BDAD83"/>
<path fill-rule="evenodd" clip-rule="evenodd" d="M620.43 39.1L618.09 36.75L615.74 39.1L613.39 36.75L611.05 39.1L615.74 43.79L620.43 39.1Z" fill="#BDAD83"/>
<path fill-rule="evenodd" clip-rule="evenodd" d="M523.43 14.34L521.09 12L518.74 14.34L516.39 12L514.05 14.34L518.74 19.04L523.43 14.34Z" fill="#BDAD83"/>
<path fill-rule="evenodd" clip-rule="evenodd" d="M519.49 19.78L523.92 24.21L528.61 19.52L526.26 17.18L523.92 19.52L521.83 17.43L519.49 19.78Z" fill="#BDAD83"/>
<path fill-rule="evenodd" clip-rule="evenodd" d="M518 19.78L515.65 17.43L513.73 19.35L511.38 17.01L509.04 19.35L513.73 24.05L518 19.78Z" fill="#BDAD83"/>
<path fill-rule="evenodd" clip-rule="evenodd" d="M518.74 26.24L523.92 31.42L531.44 23.9L529.09 21.55L523.92 26.73L518.74 21.55L516.39 23.9L513.57 26.73L508.39 21.55L506.04 23.9L513.57 31.42L518.74 26.24Z" fill="#BDAD83"/>
<path fill-rule="evenodd" clip-rule="evenodd" d="M523.92 33.93L521.09 31.1L518.74 28.76L516.39 31.1L513.56 33.93L508.39 28.76L506.04 31.1L513.56 38.63L518.74 33.45L523.92 38.63L531.44 31.1L529.09 28.76L523.92 33.93Z" fill="#BDAD83"/>
<path fill-rule="evenodd" clip-rule="evenodd" d="M523.43 39.1L521.09 36.75L518.74 39.1L516.39 36.75L514.05 39.1L518.74 43.79L523.43 39.1Z" fill="#BDAD83"/>
<path fill-rule="evenodd" clip-rule="evenodd" d="M716.43 14.34L714.09 12L711.74 14.34L709.39 12L707.05 14.34L711.74 19.04L716.43 14.34Z" fill="#BDAD83"/>
<path fill-rule="evenodd" clip-rule="evenodd" d="M712.49 19.78L716.92 24.21L721.61 19.52L719.26 17.18L716.92 19.52L714.83 17.43L712.49 19.78Z" fill="#BDAD83"/>
<path fill-rule="evenodd" clip-rule="evenodd" d="M711 19.78L708.65 17.43L706.73 19.35L704.38 17.01L702.04 19.35L706.73 24.05L711 19.78Z" fill="#BDAD83"/>
<path fill-rule="evenodd" clip-rule="evenodd" d="M711.74 26.24L716.92 31.42L724.44 23.9L722.09 21.55L716.92 26.73L711.74 21.55L709.39 23.9L706.57 26.73L701.39 21.55L699.04 23.9L706.57 31.42L711.74 26.24Z" fill="#BDAD83"/>
<path fill-rule="evenodd" clip-rule="evenodd" d="M716.92 33.93L714.09 31.1L711.74 28.76L709.39 31.1L706.56 33.93L701.39 28.76L699.04 31.1L706.56 38.63L711.74 33.45L716.92 38.63L724.44 31.1L722.09 28.76L716.92 33.93Z" fill="#BDAD83"/>
<path fill-rule="evenodd" clip-rule="evenodd" d="M716.43 39.1L714.09 36.75L711.74 39.1L709.39 36.75L707.05 39.1L711.74 43.79L716.43 39.1Z" fill="#BDAD83"/>
<path fill-rule="evenodd" clip-rule="evenodd" d="M475.39 14.34L473.05 12L470.7 14.34L468.35 12L466.01 14.34L470.7 19.04L475.39 14.34Z" fill="#BDAD83"/>
<path fill-rule="evenodd" clip-rule="evenodd" d="M471.45 19.78L475.88 24.21L480.57 19.52L478.22 17.18L475.88 19.52L473.79 17.43L471.45 19.78Z" fill="#BDAD83"/>
<path fill-rule="evenodd" clip-rule="evenodd" d="M469.96 19.78L467.61 17.43L465.69 19.35L463.34 17.01L461 19.35L465.69 24.05L469.96 19.78Z" fill="#BDAD83"/>
<path fill-rule="evenodd" clip-rule="evenodd" d="M470.7 26.24L475.88 31.42L483.4 23.9L481.05 21.55L475.88 26.73L470.7 21.55L468.35 23.9L465.53 26.73L460.35 21.55L458 23.9L465.53 31.42L470.7 26.24Z" fill="#BDAD83"/>
<path fill-rule="evenodd" clip-rule="evenodd" d="M475.88 33.93L473.05 31.1L470.7 28.76L468.35 31.1L465.52 33.93L460.35 28.76L458 31.1L465.52 38.63L470.7 33.45L475.88 38.63L483.4 31.1L481.05 28.76L475.88 33.93Z" fill="#BDAD83"/>
<path fill-rule="evenodd" clip-rule="evenodd" d="M475.39 39.1L473.05 36.75L470.7 39.1L468.35 36.75L466.01 39.1L470.7 43.79L475.39 39.1Z" fill="#BDAD83"/>
<path fill-rule="evenodd" clip-rule="evenodd" d="M668.39 14.34L666.05 12L663.7 14.34L661.35 12L659.01 14.34L663.7 19.04L668.39 14.34Z" fill="#BDAD83"/>
<path fill-rule="evenodd" clip-rule="evenodd" d="M664.45 19.78L668.88 24.21L673.57 19.52L671.22 17.18L668.88 19.52L666.79 17.43L664.45 19.78Z" fill="#BDAD83"/>
<path fill-rule="evenodd" clip-rule="evenodd" d="M662.96 19.78L660.61 17.43L658.69 19.35L656.34 17.01L654 19.35L658.69 24.05L662.96 19.78Z" fill="#BDAD83"/>
<path fill-rule="evenodd" clip-rule="evenodd" d="M663.7 26.24L668.88 31.42L676.4 23.9L674.05 21.55L668.88 26.73L663.7 21.55L661.35 23.9L658.53 26.73L653.35 21.55L651 23.9L658.53 31.42L663.7 26.24Z" fill="#BDAD83"/>
<path fill-rule="evenodd" clip-rule="evenodd" d="M668.88 33.93L666.05 31.1L663.7 28.76L661.35 31.1L658.52 33.93L653.35 28.76L651 31.1L658.52 38.63L663.7 33.45L668.88 38.63L676.4 31.1L674.05 28.76L668.88 33.93Z" fill="#BDAD83"/>
<path fill-rule="evenodd" clip-rule="evenodd" d="M668.39 39.1L666.05 36.75L663.7 39.1L661.35 36.75L659.01 39.1L663.7 43.79L668.39 39.1Z" fill="#BDAD83"/>
<path fill-rule="evenodd" clip-rule="evenodd" d="M571.39 14.34L569.05 12L566.7 14.34L564.35 12L562.01 14.34L566.7 19.04L571.39 14.34Z" fill="#BDAD83"/>
<path fill-rule="evenodd" clip-rule="evenodd" d="M567.45 19.78L571.88 24.21L576.57 19.52L574.22 17.18L571.88 19.52L569.79 17.43L567.45 19.78Z" fill="#BDAD83"/>
<path fill-rule="evenodd" clip-rule="evenodd" d="M565.96 19.78L563.61 17.43L561.69 19.35L559.34 17.01L557 19.35L561.69 24.05L565.96 19.78Z" fill="#BDAD83"/>
<path fill-rule="evenodd" clip-rule="evenodd" d="M566.7 26.24L571.88 31.42L579.4 23.9L577.05 21.55L571.88 26.73L566.7 21.55L564.35 23.9L561.53 26.73L556.35 21.55L554 23.9L561.53 31.42L566.7 26.24Z" fill="#BDAD83"/>
<path fill-rule="evenodd" clip-rule="evenodd" d="M571.88 33.93L569.05 31.1L566.7 28.76L564.35 31.1L561.52 33.93L556.35 28.76L554 31.1L561.52 38.63L566.7 33.45L571.88 38.63L579.4 31.1L577.05 28.76L571.88 33.93Z" fill="#BDAD83"/>
<path fill-rule="evenodd" clip-rule="evenodd" d="M571.39 39.1L569.05 36.75L566.7 39.1L564.35 36.75L562.01 39.1L566.7 43.79L571.39 39.1Z" fill="#BDAD83"/>
<path fill-rule="evenodd" clip-rule="evenodd" d="M764.39 14.34L762.05 12L759.7 14.34L757.35 12L755.01 14.34L759.7 19.04L764.39 14.34Z" fill="#BDAD83"/>
<path fill-rule="evenodd" clip-rule="evenodd" d="M760.45 19.78L764.88 24.21L769.57 19.52L767.22 17.18L764.88 19.52L762.79 17.43L760.45 19.78Z" fill="#BDAD83"/>
<path fill-rule="evenodd" clip-rule="evenodd" d="M758.96 19.78L756.61 17.43L754.69 19.35L752.34 17.01L750 19.35L754.69 24.05L758.96 19.78Z" fill="#BDAD83"/>
<path fill-rule="evenodd" clip-rule="evenodd" d="M759.7 26.24L764.88 31.42L772.4 23.9L770.05 21.55L764.88 26.73L759.7 21.55L757.35 23.9L754.53 26.73L749.35 21.55L747 23.9L754.53 31.42L759.7 26.24Z" fill="#BDAD83"/>
<path fill-rule="evenodd" clip-rule="evenodd" d="M764.88 33.93L762.05 31.1L759.7 28.76L757.35 31.1L754.52 33.93L749.35 28.76L747 31.1L754.52 38.63L759.7 33.45L764.88 38.63L772.4 31.1L770.05 28.76L764.88 33.93Z" fill="#BDAD83"/>
<path fill-rule="evenodd" clip-rule="evenodd" d="M764.39 39.1L762.05 36.75L759.7 39.1L757.35 36.75L755.01 39.1L759.7 43.79L764.39 39.1Z" fill="#BDAD83"/>
<path fill-rule="evenodd" clip-rule="evenodd" d="M403.39 2.34999L401.04 0L398.7 2.34999L396.35 0L394.01 2.34999L398.7 7.03999L403.39 2.34999Z" fill="#BDAD83"/>
<path fill-rule="evenodd" clip-rule="evenodd" d="M399.44 7.78999L403.87 12.22L408.57 7.53L406.22 5.17999L403.87 7.53L401.79 5.44L399.44 7.78999Z" fill="#BDAD83"/>
<path fill-rule="evenodd" clip-rule="evenodd" d="M397.95 7.78999L395.61 5.44L393.69 7.36L391.34 5.00999L388.99 7.36L393.69 12.05L397.95 7.78999Z" fill="#BDAD83"/>
<path fill-rule="evenodd" clip-rule="evenodd" d="M398.7 14.25L403.87 19.43L411.4 11.9L409.05 9.56L403.87 14.73L401.05 11.9L398.7 9.56L396.35 11.9L393.52 14.73L388.35 9.56L386 11.9L393.52 19.43L398.7 14.25Z" fill="#BDAD83"/>
<path fill-rule="evenodd" clip-rule="evenodd" d="M403.87 21.94L398.7 16.77L396.35 19.11L393.52 21.94L388.35 16.77L386 19.11L393.52 26.63L398.7 21.46L403.87 26.63L411.4 19.11L409.05 16.77L403.87 21.94Z" fill="#BDAD83"/>
<path fill-rule="evenodd" clip-rule="evenodd" d="M403.39 27.1L401.04 24.75L398.7 27.1L396.35 24.75L394.01 27.1L398.7 31.79L403.39 27.1Z" fill="#BDAD83"/>
<path fill-rule="evenodd" clip-rule="evenodd" d="M596.39 2.34999L594.04 0L591.7 2.34999L589.35 0L587.01 2.34999L591.7 7.03999L596.39 2.34999Z" fill="#BDAD83"/>
<path fill-rule="evenodd" clip-rule="evenodd" d="M592.44 7.78999L596.87 12.22L601.57 7.53L599.22 5.17999L596.87 7.53L594.79 5.44L592.44 7.78999Z" fill="#BDAD83"/>
<path fill-rule="evenodd" clip-rule="evenodd" d="M590.95 7.78999L588.61 5.44L586.69 7.36L584.34 5.00999L581.99 7.36L586.69 12.05L590.95 7.78999Z" fill="#BDAD83"/>
<path fill-rule="evenodd" clip-rule="evenodd" d="M591.7 14.25L596.87 19.43L604.4 11.9L602.05 9.56L596.87 14.73L594.05 11.9L591.7 9.56L589.35 11.9L586.52 14.73L581.35 9.56L579 11.9L586.52 19.43L591.7 14.25Z" fill="#BDAD83"/>
<path fill-rule="evenodd" clip-rule="evenodd" d="M596.87 21.94L591.7 16.77L589.35 19.11L586.52 21.94L581.35 16.77L579 19.11L586.52 26.63L591.7 21.46L596.87 26.63L604.4 19.11L602.05 16.77L596.87 21.94Z" fill="#BDAD83"/>
<path fill-rule="evenodd" clip-rule="evenodd" d="M596.39 27.1L594.04 24.75L591.7 27.1L589.35 24.75L587.01 27.1L591.7 31.79L596.39 27.1Z" fill="#BDAD83"/>
<path fill-rule="evenodd" clip-rule="evenodd" d="M1223.48 2.34999L1221.13 0L1218.78 2.34999L1216.44 0L1214.09 2.34999L1218.78 7.03999L1223.48 2.34999Z" fill="#BDAD83"/>
<path fill-rule="evenodd" clip-rule="evenodd" d="M1219.53 7.78999L1223.96 12.22L1228.65 7.53L1226.31 5.17999L1223.96 7.53L1221.88 5.44L1219.53 7.78999Z" fill="#BDAD83"/>
<path fill-rule="evenodd" clip-rule="evenodd" d="M1218.04 7.78999L1215.69 5.44L1213.77 7.36L1211.43 5.00999L1209.08 7.36L1213.77 12.05L1218.04 7.78999Z" fill="#BDAD83"/>
<path fill-rule="evenodd" clip-rule="evenodd" d="M1218.78 14.25L1223.96 19.43L1231.48 11.9L1229.14 9.56L1223.96 14.73L1221.13 11.9L1218.78 9.56L1213.61 14.73L1208.43 9.56L1206.08 11.9L1213.61 19.43L1218.78 14.25Z" fill="#BDAD83"/>
<path fill-rule="evenodd" clip-rule="evenodd" d="M1223.96 21.94L1221.13 19.11L1218.78 16.77L1213.61 21.94L1208.43 16.77L1206.08 19.11L1213.61 26.63L1218.78 21.46L1223.96 26.63L1231.48 19.11L1229.13 16.77L1223.96 21.94Z" fill="#BDAD83"/>
<path fill-rule="evenodd" clip-rule="evenodd" d="M1223.48 27.1L1221.13 24.75L1218.78 27.1L1216.44 24.75L1214.09 27.1L1218.78 31.79L1223.48 27.1Z" fill="#BDAD83"/>
<path fill-rule="evenodd" clip-rule="evenodd" d="M1416.48 2.34999L1414.13 0L1411.78 2.34999L1409.44 0L1407.09 2.34999L1411.78 7.03999L1416.48 2.34999Z" fill="#BDAD83"/>
<path fill-rule="evenodd" clip-rule="evenodd" d="M1412.53 7.78999L1416.96 12.22L1421.65 7.53L1419.31 5.17999L1416.96 7.53L1414.88 5.44L1412.53 7.78999Z" fill="#BDAD83"/>
<path fill-rule="evenodd" clip-rule="evenodd" d="M1411.04 7.78999L1408.69 5.44L1406.77 7.36L1404.43 5.00999L1402.08 7.36L1406.77 12.05L1411.04 7.78999Z" fill="#BDAD83"/>
<path fill-rule="evenodd" clip-rule="evenodd" d="M1411.78 14.25L1416.96 19.43L1424.48 11.9L1422.14 9.56L1416.96 14.73L1414.13 11.9L1411.78 9.56L1406.61 14.73L1401.43 9.56L1399.08 11.9L1406.61 19.43L1411.78 14.25Z" fill="#BDAD83"/>
<path fill-rule="evenodd" clip-rule="evenodd" d="M1416.96 21.94L1414.13 19.11L1411.78 16.77L1406.61 21.94L1401.43 16.77L1399.08 19.11L1406.61 26.63L1411.78 21.46L1416.96 26.63L1424.48 19.11L1422.13 16.77L1416.96 21.94Z" fill="#BDAD83"/>
<path fill-rule="evenodd" clip-rule="evenodd" d="M1416.48 27.1L1414.13 24.75L1411.78 27.1L1409.44 24.75L1407.09 27.1L1411.78 31.79L1416.48 27.1Z" fill="#BDAD83"/>
<path fill-rule="evenodd" clip-rule="evenodd" d="M1319.48 2.34999L1317.13 0L1314.78 2.34999L1312.44 0L1310.09 2.34999L1314.78 7.03999L1319.48 2.34999Z" fill="#BDAD83"/>
<path fill-rule="evenodd" clip-rule="evenodd" d="M1315.53 7.78999L1319.96 12.22L1324.65 7.53L1322.31 5.17999L1319.96 7.53L1317.88 5.44L1315.53 7.78999Z" fill="#BDAD83"/>
<path fill-rule="evenodd" clip-rule="evenodd" d="M1314.04 7.78999L1311.69 5.44L1309.77 7.36L1307.43 5.00999L1305.08 7.36L1309.77 12.05L1314.04 7.78999Z" fill="#BDAD83"/>
<path fill-rule="evenodd" clip-rule="evenodd" d="M1314.78 14.25L1319.96 19.43L1327.48 11.9L1325.14 9.56L1319.96 14.73L1317.13 11.9L1314.78 9.56L1309.61 14.73L1304.43 9.56L1302.08 11.9L1309.61 19.43L1314.78 14.25Z" fill="#BDAD83"/>
<path fill-rule="evenodd" clip-rule="evenodd" d="M1319.96 21.94L1317.13 19.11L1314.78 16.77L1309.61 21.94L1304.43 16.77L1302.08 19.11L1309.61 26.63L1314.78 21.46L1319.96 26.63L1327.48 19.11L1325.13 16.77L1319.96 21.94Z" fill="#BDAD83"/>
<path fill-rule="evenodd" clip-rule="evenodd" d="M1319.48 27.1L1317.13 24.75L1314.78 27.1L1312.44 24.75L1310.09 27.1L1314.78 31.79L1319.48 27.1Z" fill="#BDAD83"/>
<path fill-rule="evenodd" clip-rule="evenodd" d="M1512.48 2.34999L1510.13 0L1507.78 2.34999L1505.44 0L1503.09 2.34999L1507.78 7.03999L1512.48 2.34999Z" fill="#BDAD83"/>
<path fill-rule="evenodd" clip-rule="evenodd" d="M1508.53 7.78999L1512.96 12.22L1517.65 7.53L1515.31 5.17999L1512.96 7.53L1510.88 5.44L1508.53 7.78999Z" fill="#BDAD83"/>
<path fill-rule="evenodd" clip-rule="evenodd" d="M1507.04 7.78999L1504.69 5.44L1502.77 7.36L1500.43 5.00999L1498.08 7.36L1502.77 12.05L1507.04 7.78999Z" fill="#BDAD83"/>
<path fill-rule="evenodd" clip-rule="evenodd" d="M1507.78 14.25L1512.96 19.43L1520.48 11.9L1518.14 9.56L1512.96 14.73L1510.13 11.9L1507.78 9.56L1502.61 14.73L1497.43 9.56L1495.08 11.9L1502.61 19.43L1507.78 14.25Z" fill="#BDAD83"/>
<path fill-rule="evenodd" clip-rule="evenodd" d="M1512.96 21.94L1510.13 19.11L1507.78 16.77L1502.61 21.94L1497.43 16.77L1495.08 19.11L1502.61 26.63L1507.78 21.46L1512.96 26.63L1520.48 19.11L1518.13 16.77L1512.96 21.94Z" fill="#BDAD83"/>
<path fill-rule="evenodd" clip-rule="evenodd" d="M1512.48 27.1L1510.13 24.75L1507.78 27.1L1505.44 24.75L1503.09 27.1L1507.78 31.79L1512.48 27.1Z" fill="#BDAD83"/>
<path fill-rule="evenodd" clip-rule="evenodd" d="M1271.4 2.34999L1269.05 0L1266.7 2.34999L1264.36 0L1262.01 2.34999L1266.7 7.03999L1271.4 2.34999Z" fill="#BDAD83"/>
<path fill-rule="evenodd" clip-rule="evenodd" d="M1267.45 7.78999L1271.88 12.22L1276.57 7.53L1274.23 5.17999L1271.88 7.53L1269.8 5.44L1267.45 7.78999Z" fill="#BDAD83"/>
<path fill-rule="evenodd" clip-rule="evenodd" d="M1265.96 7.78999L1263.61 5.44L1261.69 7.36L1259.35 5.00999L1257 7.36L1261.69 12.05L1265.96 7.78999Z" fill="#BDAD83"/>
<path fill-rule="evenodd" clip-rule="evenodd" d="M1266.7 14.25L1271.88 19.43L1279.4 11.9L1277.06 9.56L1271.88 14.73L1269.05 11.9L1266.7 9.56L1261.53 14.73L1256.35 9.56L1254 11.9L1261.53 19.43L1266.7 14.25Z" fill="#BDAD83"/>
<path fill-rule="evenodd" clip-rule="evenodd" d="M1271.88 21.94L1269.05 19.11L1266.7 16.77L1261.53 21.94L1256.35 16.77L1254 19.11L1261.53 26.63L1266.7 21.46L1271.88 26.63L1279.4 19.11L1277.05 16.77L1271.88 21.94Z" fill="#BDAD83"/>
<path fill-rule="evenodd" clip-rule="evenodd" d="M1271.4 27.1L1269.05 24.75L1266.7 27.1L1264.36 24.75L1262.01 27.1L1266.7 31.79L1271.4 27.1Z" fill="#BDAD83"/>
<path fill-rule="evenodd" clip-rule="evenodd" d="M1464.4 2.34999L1462.05 0L1459.7 2.34999L1457.36 0L1455.01 2.34999L1459.7 7.03999L1464.4 2.34999Z" fill="#BDAD83"/>
<path fill-rule="evenodd" clip-rule="evenodd" d="M1460.45 7.78999L1464.88 12.22L1469.57 7.53L1467.23 5.17999L1464.88 7.53L1462.8 5.44L1460.45 7.78999Z" fill="#BDAD83"/>
<path fill-rule="evenodd" clip-rule="evenodd" d="M1458.96 7.78999L1456.61 5.44L1454.69 7.36L1452.35 5.00999L1450 7.36L1454.69 12.05L1458.96 7.78999Z" fill="#BDAD83"/>
<path fill-rule="evenodd" clip-rule="evenodd" d="M1459.7 14.25L1464.88 19.43L1472.4 11.9L1470.06 9.56L1464.88 14.73L1462.05 11.9L1459.7 9.56L1454.53 14.73L1449.35 9.56L1447 11.9L1454.53 19.43L1459.7 14.25Z" fill="#BDAD83"/>
<path fill-rule="evenodd" clip-rule="evenodd" d="M1464.88 21.94L1462.05 19.11L1459.7 16.77L1454.53 21.94L1449.35 16.77L1447 19.11L1454.53 26.63L1459.7 21.46L1464.88 26.63L1472.4 19.11L1470.05 16.77L1464.88 21.94Z" fill="#BDAD83"/>
<path fill-rule="evenodd" clip-rule="evenodd" d="M1464.4 27.1L1462.05 24.75L1459.7 27.1L1457.36 24.75L1455.01 27.1L1459.7 31.79L1464.4 27.1Z" fill="#BDAD83"/>
<path fill-rule="evenodd" clip-rule="evenodd" d="M1199.43 14.34L1197.09 12L1194.74 14.34L1192.39 12L1190.05 14.34L1194.74 19.04L1199.43 14.34Z" fill="#BDAD83"/>
<path fill-rule="evenodd" clip-rule="evenodd" d="M1195.49 19.78L1199.92 24.21L1204.61 19.52L1202.26 17.18L1199.92 19.52L1197.83 17.43L1195.49 19.78Z" fill="#BDAD83"/>
<path fill-rule="evenodd" clip-rule="evenodd" d="M1194 19.78L1191.65 17.43L1189.73 19.35L1187.38 17.01L1185.04 19.35L1189.73 24.05L1194 19.78Z" fill="#BDAD83"/>
<path fill-rule="evenodd" clip-rule="evenodd" d="M1194.74 26.24L1199.92 31.42L1207.44 23.9L1205.09 21.55L1199.92 26.73L1194.74 21.55L1192.39 23.9L1189.57 26.73L1184.39 21.55L1182.04 23.9L1189.57 31.42L1194.74 26.24Z" fill="#BDAD83"/>
<path fill-rule="evenodd" clip-rule="evenodd" d="M1199.92 33.93L1197.09 31.1L1194.74 28.76L1192.39 31.1L1189.56 33.93L1184.39 28.76L1182.04 31.1L1189.56 38.63L1194.74 33.45L1199.92 38.63L1207.44 31.1L1205.09 28.76L1199.92 33.93Z" fill="#BDAD83"/>
<path fill-rule="evenodd" clip-rule="evenodd" d="M1199.43 39.1L1197.09 36.75L1194.74 39.1L1192.39 36.75L1190.05 39.1L1194.74 43.79L1199.43 39.1Z" fill="#BDAD83"/>
<path fill-rule="evenodd" clip-rule="evenodd" d="M1392.43 14.34L1390.09 12L1387.74 14.34L1385.39 12L1383.05 14.34L1387.74 19.04L1392.43 14.34Z" fill="#BDAD83"/>
<path fill-rule="evenodd" clip-rule="evenodd" d="M1388.49 19.78L1392.92 24.21L1397.61 19.52L1395.26 17.18L1392.92 19.52L1390.83 17.43L1388.49 19.78Z" fill="#BDAD83"/>
<path fill-rule="evenodd" clip-rule="evenodd" d="M1387 19.78L1384.65 17.43L1382.73 19.35L1380.38 17.01L1378.04 19.35L1382.73 24.05L1387 19.78Z" fill="#BDAD83"/>
<path fill-rule="evenodd" clip-rule="evenodd" d="M1387.74 26.24L1392.92 31.42L1400.44 23.9L1398.09 21.55L1392.92 26.73L1387.74 21.55L1385.39 23.9L1382.57 26.73L1377.39 21.55L1375.04 23.9L1382.57 31.42L1387.74 26.24Z" fill="#BDAD83"/>
<path fill-rule="evenodd" clip-rule="evenodd" d="M1392.92 33.93L1390.09 31.1L1387.74 28.76L1385.39 31.1L1382.56 33.93L1377.39 28.76L1375.04 31.1L1382.56 38.63L1387.74 33.45L1392.92 38.63L1400.44 31.1L1398.09 28.76L1392.92 33.93Z" fill="#BDAD83"/>
<path fill-rule="evenodd" clip-rule="evenodd" d="M1392.43 39.1L1390.09 36.75L1387.74 39.1L1385.39 36.75L1383.05 39.1L1387.74 43.79L1392.43 39.1Z" fill="#BDAD83"/>
<path fill-rule="evenodd" clip-rule="evenodd" d="M1295.43 14.34L1293.09 12L1290.74 14.34L1288.39 12L1286.05 14.34L1290.74 19.04L1295.43 14.34Z" fill="#BDAD83"/>
<path fill-rule="evenodd" clip-rule="evenodd" d="M1291.49 19.78L1295.92 24.21L1300.61 19.52L1298.26 17.18L1295.92 19.52L1293.83 17.43L1291.49 19.78Z" fill="#BDAD83"/>
<path fill-rule="evenodd" clip-rule="evenodd" d="M1290 19.78L1287.65 17.43L1285.73 19.35L1283.38 17.01L1281.04 19.35L1285.73 24.05L1290 19.78Z" fill="#BDAD83"/>
<path fill-rule="evenodd" clip-rule="evenodd" d="M1290.74 26.24L1295.92 31.42L1303.44 23.9L1301.09 21.55L1295.92 26.73L1290.74 21.55L1288.39 23.9L1285.57 26.73L1280.39 21.55L1278.04 23.9L1285.57 31.42L1290.74 26.24Z" fill="#BDAD83"/>
<path fill-rule="evenodd" clip-rule="evenodd" d="M1295.92 33.93L1293.09 31.1L1290.74 28.76L1288.39 31.1L1285.56 33.93L1280.39 28.76L1278.04 31.1L1285.56 38.63L1290.74 33.45L1295.92 38.63L1303.44 31.1L1301.09 28.76L1295.92 33.93Z" fill="#BDAD83"/>
<path fill-rule="evenodd" clip-rule="evenodd" d="M1295.43 39.1L1293.09 36.75L1290.74 39.1L1288.39 36.75L1286.05 39.1L1290.74 43.79L1295.43 39.1Z" fill="#BDAD83"/>
<path fill-rule="evenodd" clip-rule="evenodd" d="M1488.43 14.34L1486.09 12L1483.74 14.34L1481.39 12L1479.05 14.34L1483.74 19.04L1488.43 14.34Z" fill="#BDAD83"/>
<path fill-rule="evenodd" clip-rule="evenodd" d="M1484.49 19.78L1488.92 24.21L1493.61 19.52L1491.26 17.18L1488.92 19.52L1486.83 17.43L1484.49 19.78Z" fill="#BDAD83"/>
<path fill-rule="evenodd" clip-rule="evenodd" d="M1483 19.78L1480.65 17.43L1478.73 19.35L1476.38 17.01L1474.04 19.35L1478.73 24.05L1483 19.78Z" fill="#BDAD83"/>
<path fill-rule="evenodd" clip-rule="evenodd" d="M1483.74 26.24L1488.92 31.42L1496.44 23.9L1494.09 21.55L1488.92 26.73L1483.74 21.55L1481.39 23.9L1478.57 26.73L1473.39 21.55L1471.04 23.9L1478.57 31.42L1483.74 26.24Z" fill="#BDAD83"/>
<path fill-rule="evenodd" clip-rule="evenodd" d="M1488.92 33.93L1486.09 31.1L1483.74 28.76L1481.39 31.1L1478.56 33.93L1473.39 28.76L1471.04 31.1L1478.56 38.63L1483.74 33.45L1488.92 38.63L1496.44 31.1L1494.09 28.76L1488.92 33.93Z" fill="#BDAD83"/>
<path fill-rule="evenodd" clip-rule="evenodd" d="M1488.43 39.1L1486.09 36.75L1483.74 39.1L1481.39 36.75L1479.05 39.1L1483.74 43.79L1488.43 39.1Z" fill="#BDAD83"/>
<path fill-rule="evenodd" clip-rule="evenodd" d="M1247.39 14.34L1245.05 12L1242.7 14.34L1240.35 12L1238.01 14.34L1242.7 19.04L1247.39 14.34Z" fill="#BDAD83"/>
<path fill-rule="evenodd" clip-rule="evenodd" d="M1243.45 19.78L1247.88 24.21L1252.57 19.52L1250.22 17.18L1247.88 19.52L1245.79 17.43L1243.45 19.78Z" fill="#BDAD83"/>
<path fill-rule="evenodd" clip-rule="evenodd" d="M1241.96 19.78L1239.61 17.43L1237.69 19.35L1235.34 17.01L1233 19.35L1237.69 24.05L1241.96 19.78Z" fill="#BDAD83"/>
<path fill-rule="evenodd" clip-rule="evenodd" d="M1242.7 26.24L1247.88 31.42L1255.4 23.9L1253.05 21.55L1247.88 26.73L1242.7 21.55L1240.35 23.9L1237.53 26.73L1232.35 21.55L1230 23.9L1237.53 31.42L1242.7 26.24Z" fill="#BDAD83"/>
<path fill-rule="evenodd" clip-rule="evenodd" d="M1247.88 33.93L1245.05 31.1L1242.7 28.76L1240.35 31.1L1237.52 33.93L1232.35 28.76L1230 31.1L1237.52 38.63L1242.7 33.45L1247.88 38.63L1255.4 31.1L1253.05 28.76L1247.88 33.93Z" fill="#BDAD83"/>
<path fill-rule="evenodd" clip-rule="evenodd" d="M1247.39 39.1L1245.05 36.75L1242.7 39.1L1240.35 36.75L1238.01 39.1L1242.7 43.79L1247.39 39.1Z" fill="#BDAD83"/>
<path fill-rule="evenodd" clip-rule="evenodd" d="M1440.39 14.34L1438.05 12L1435.7 14.34L1433.35 12L1431.01 14.34L1435.7 19.04L1440.39 14.34Z" fill="#BDAD83"/>
<path fill-rule="evenodd" clip-rule="evenodd" d="M1436.45 19.78L1440.88 24.21L1445.57 19.52L1443.22 17.18L1440.88 19.52L1438.79 17.43L1436.45 19.78Z" fill="#BDAD83"/>
<path fill-rule="evenodd" clip-rule="evenodd" d="M1434.96 19.78L1432.61 17.43L1430.69 19.35L1428.34 17.01L1426 19.35L1430.69 24.05L1434.96 19.78Z" fill="#BDAD83"/>
<path fill-rule="evenodd" clip-rule="evenodd" d="M1435.7 26.24L1440.88 31.42L1448.4 23.9L1446.05 21.55L1440.88 26.73L1435.7 21.55L1433.35 23.9L1430.53 26.73L1425.35 21.55L1423 23.9L1430.53 31.42L1435.7 26.24Z" fill="#BDAD83"/>
<path fill-rule="evenodd" clip-rule="evenodd" d="M1440.88 33.93L1438.05 31.1L1435.7 28.76L1433.35 31.1L1430.52 33.93L1425.35 28.76L1423 31.1L1430.52 38.63L1435.7 33.45L1440.88 38.63L1448.4 31.1L1446.05 28.76L1440.88 33.93Z" fill="#BDAD83"/>
<path fill-rule="evenodd" clip-rule="evenodd" d="M1440.39 39.1L1438.05 36.75L1435.7 39.1L1433.35 36.75L1431.01 39.1L1435.7 43.79L1440.39 39.1Z" fill="#BDAD83"/>
<path fill-rule="evenodd" clip-rule="evenodd" d="M1343.39 14.34L1341.05 12L1338.7 14.34L1336.35 12L1334.01 14.34L1338.7 19.04L1343.39 14.34Z" fill="#BDAD83"/>
<path fill-rule="evenodd" clip-rule="evenodd" d="M1339.45 19.78L1343.88 24.21L1348.57 19.52L1346.22 17.18L1343.88 19.52L1341.79 17.43L1339.45 19.78Z" fill="#BDAD83"/>
<path fill-rule="evenodd" clip-rule="evenodd" d="M1337.96 19.78L1335.61 17.43L1333.69 19.35L1331.34 17.01L1329 19.35L1333.69 24.05L1337.96 19.78Z" fill="#BDAD83"/>
<path fill-rule="evenodd" clip-rule="evenodd" d="M1338.7 26.24L1343.88 31.42L1351.4 23.9L1349.05 21.55L1343.88 26.73L1338.7 21.55L1336.35 23.9L1333.53 26.73L1328.35 21.55L1326 23.9L1333.53 31.42L1338.7 26.24Z" fill="#BDAD83"/>
<path fill-rule="evenodd" clip-rule="evenodd" d="M1343.88 33.93L1341.05 31.1L1338.7 28.76L1336.35 31.1L1333.52 33.93L1328.35 28.76L1326 31.1L1333.52 38.63L1338.7 33.45L1343.88 38.63L1351.4 31.1L1349.05 28.76L1343.88 33.93Z" fill="#BDAD83"/>
<path fill-rule="evenodd" clip-rule="evenodd" d="M1343.39 39.1L1341.05 36.75L1338.7 39.1L1336.35 36.75L1334.01 39.1L1338.7 43.79L1343.39 39.1Z" fill="#BDAD83"/>
<path fill-rule="evenodd" clip-rule="evenodd" d="M1536.39 14.34L1534.05 12L1531.7 14.34L1529.35 12L1527.01 14.34L1531.7 19.04L1536.39 14.34Z" fill="#BDAD83"/>
<path fill-rule="evenodd" clip-rule="evenodd" d="M1532.45 19.78L1536.88 24.21L1541.57 19.52L1539.22 17.18L1536.88 19.52L1534.79 17.43L1532.45 19.78Z" fill="#BDAD83"/>
<path fill-rule="evenodd" clip-rule="evenodd" d="M1530.96 19.78L1528.61 17.43L1526.69 19.35L1524.34 17.01L1522 19.35L1526.69 24.05L1530.96 19.78Z" fill="#BDAD83"/>
<path fill-rule="evenodd" clip-rule="evenodd" d="M1531.7 26.24L1536.88 31.42L1544.4 23.9L1542.05 21.55L1536.88 26.73L1531.7 21.55L1529.35 23.9L1526.53 26.73L1521.35 21.55L1519 23.9L1526.53 31.42L1531.7 26.24Z" fill="#BDAD83"/>
<path fill-rule="evenodd" clip-rule="evenodd" d="M1536.88 33.93L1534.05 31.1L1531.7 28.76L1529.35 31.1L1526.52 33.93L1521.35 28.76L1519 31.1L1526.52 38.63L1531.7 33.45L1536.88 38.63L1544.4 31.1L1542.05 28.76L1536.88 33.93Z" fill="#BDAD83"/>
<path fill-rule="evenodd" clip-rule="evenodd" d="M1536.39 39.1L1534.05 36.75L1531.7 39.1L1529.35 36.75L1527.01 39.1L1531.7 43.79L1536.39 39.1Z" fill="#BDAD83"/>
<path fill-rule="evenodd" clip-rule="evenodd" d="M1175.39 2.34999L1173.04 0L1170.7 2.34999L1168.35 0L1166.01 2.34999L1170.7 7.03999L1175.39 2.34999Z" fill="#BDAD83"/>
<path fill-rule="evenodd" clip-rule="evenodd" d="M1171.44 7.78999L1175.87 12.22L1180.57 7.53L1178.22 5.17999L1175.87 7.53L1173.79 5.44L1171.44 7.78999Z" fill="#BDAD83"/>
<path fill-rule="evenodd" clip-rule="evenodd" d="M1169.95 7.78999L1167.61 5.44L1165.69 7.36L1163.34 5.00999L1160.99 7.36L1165.69 12.05L1169.95 7.78999Z" fill="#BDAD83"/>
<path fill-rule="evenodd" clip-rule="evenodd" d="M1170.7 14.25L1175.87 19.43L1183.4 11.9L1181.05 9.56L1175.87 14.73L1173.05 11.9L1170.7 9.56L1168.35 11.9L1165.52 14.73L1160.35 9.56L1158 11.9L1165.52 19.43L1170.7 14.25Z" fill="#BDAD83"/>
<path fill-rule="evenodd" clip-rule="evenodd" d="M1175.87 21.94L1170.7 16.77L1168.35 19.11L1165.52 21.94L1160.35 16.77L1158 19.11L1165.52 26.63L1170.7 21.46L1175.87 26.63L1183.4 19.11L1181.05 16.77L1175.87 21.94Z" fill="#BDAD83"/>
<path fill-rule="evenodd" clip-rule="evenodd" d="M1175.39 27.1L1173.04 24.75L1170.7 27.1L1168.35 24.75L1166.01 27.1L1170.7 31.79L1175.39 27.1Z" fill="#BDAD83"/>
<path fill-rule="evenodd" clip-rule="evenodd" d="M1368.39 2.34999L1366.04 0L1363.7 2.34999L1361.35 0L1359.01 2.34999L1363.7 7.03999L1368.39 2.34999Z" fill="#BDAD83"/>
<path fill-rule="evenodd" clip-rule="evenodd" d="M1364.44 7.78999L1368.87 12.22L1373.57 7.53L1371.22 5.17999L1368.87 7.53L1366.79 5.44L1364.44 7.78999Z" fill="#BDAD83"/>
<path fill-rule="evenodd" clip-rule="evenodd" d="M1362.95 7.78999L1360.61 5.44L1358.69 7.36L1356.34 5.00999L1353.99 7.36L1358.69 12.05L1362.95 7.78999Z" fill="#BDAD83"/>
<path fill-rule="evenodd" clip-rule="evenodd" d="M1363.7 14.25L1368.87 19.43L1376.4 11.9L1374.05 9.56L1368.87 14.73L1366.05 11.9L1363.7 9.56L1361.35 11.9L1358.52 14.73L1353.35 9.56L1351 11.9L1358.52 19.43L1363.7 14.25Z" fill="#BDAD83"/>
<path fill-rule="evenodd" clip-rule="evenodd" d="M1368.87 21.94L1363.7 16.77L1361.35 19.11L1358.52 21.94L1353.35 16.77L1351 19.11L1358.52 26.63L1363.7 21.46L1368.87 26.63L1376.4 19.11L1374.05 16.77L1368.87 21.94Z" fill="#BDAD83"/>
<path fill-rule="evenodd" clip-rule="evenodd" d="M1368.39 27.1L1366.04 24.75L1363.7 27.1L1361.35 24.75L1359.01 27.1L1363.7 31.79L1368.39 27.1Z" fill="#BDAD83"/>
</svg>
