<svg width="1543" height="39" viewBox="0 0 1543 39" fill="none" xmlns="http://www.w3.org/2000/svg">
<path fill-rule="evenodd" clip-rule="evenodd" d="M41.43 14.34L39.09 12L36.74 14.34L34.39 12L32.05 14.34L36.74 19.04L41.43 14.34Z" fill="#BDAD83"/>
<path fill-rule="evenodd" clip-rule="evenodd" d="M37.49 19.78L41.92 24.21L46.61 19.52L44.26 17.18L41.92 19.52L39.83 17.43L37.49 19.78Z" fill="#BDAD83"/>
<path fill-rule="evenodd" clip-rule="evenodd" d="M36 19.78L33.65 17.43L31.73 19.35L29.38 17.01L27.04 19.35L31.73 24.05L36 19.78Z" fill="#BDAD83"/>
<path fill-rule="evenodd" clip-rule="evenodd" d="M36.74 26.24L41.92 31.42L49.44 23.9L47.09 21.55L41.92 26.73L36.74 21.55L34.39 23.9L31.57 26.73L26.39 21.55L24.04 23.9L31.57 31.42L36.74 26.24Z" fill="#BDAD83"/>
<path fill-rule="evenodd" clip-rule="evenodd" d="M41.92 33.93L39.09 31.1L36.74 28.76L34.39 31.1L31.56 33.93L26.39 28.76L24.04 31.1L31.56 38.63L36.74 33.45L41.92 38.63L49.44 31.1L47.09 28.76L41.92 33.93Z" fill="#BDAD83"/>
<path fill-rule="evenodd" clip-rule="evenodd" d="M17.39 2.34999L15.04 0L12.7 2.34999L10.35 0L8.00998 2.34999L12.7 7.03999L17.39 2.34999Z" fill="#BDAD83"/>
<path fill-rule="evenodd" clip-rule="evenodd" d="M13.44 7.78999L17.87 12.22L22.57 7.53L20.22 5.17999L17.87 7.53L15.79 5.44L13.44 7.78999Z" fill="#BDAD83"/>
<path fill-rule="evenodd" clip-rule="evenodd" d="M11.95 7.78999L9.60999 5.44L7.69 7.36L5.34 5.00999L2.98999 7.36L7.69 12.05L11.95 7.78999Z" fill="#BDAD83"/>
<path fill-rule="evenodd" clip-rule="evenodd" d="M12.7 14.25L17.87 19.43L25.4 11.9L23.05 9.56L17.87 14.73L15.05 11.9L12.7 9.56L10.35 11.9L7.51999 14.73L2.34998 9.56L0 11.9L7.51999 19.43L12.7 14.25Z" fill="#BDAD83"/>
<path fill-rule="evenodd" clip-rule="evenodd" d="M17.87 21.94L12.7 16.77L10.35 19.11L7.51999 21.94L2.34998 16.77L0 19.11L7.51999 26.63L12.7 21.46L17.87 26.63L25.4 19.11L23.05 16.77L17.87 21.94Z" fill="#BDAD83"/>
<path fill-rule="evenodd" clip-rule="evenodd" d="M237.43 14.34L235.09 12L232.74 14.34L230.39 12L228.05 14.34L232.74 19.04L237.43 14.34Z" fill="#BDAD83"/>
<path fill-rule="evenodd" clip-rule="evenodd" d="M233.49 19.78L237.92 24.21L242.61 19.52L240.26 17.18L237.92 19.52L235.83 17.43L233.49 19.78Z" fill="#BDAD83"/>
<path fill-rule="evenodd" clip-rule="evenodd" d="M232 19.78L229.65 17.43L227.73 19.35L225.38 17.01L223.04 19.35L227.73 24.05L232 19.78Z" fill="#BDAD83"/>
<path fill-rule="evenodd" clip-rule="evenodd" d="M232.74 26.24L237.92 31.42L245.44 23.9L243.09 21.55L237.92 26.73L232.74 21.55L230.39 23.9L227.57 26.73L222.39 21.55L220.04 23.9L227.57 31.42L232.74 26.24Z" fill="#BDAD83"/>
<path fill-rule="evenodd" clip-rule="evenodd" d="M237.92 33.93L235.09 31.1L232.74 28.76L230.39 31.1L227.56 33.93L222.39 28.76L220.04 31.1L227.56 38.63L232.74 33.45L237.92 38.63L245.44 31.1L243.09 28.76L237.92 33.93Z" fill="#BDAD83"/>
<path fill-rule="evenodd" clip-rule="evenodd" d="M213.39 2.34999L211.04 0L208.7 2.34999L206.35 0L204.01 2.34999L208.7 7.03999L213.39 2.34999Z" fill="#BDAD83"/>
<path fill-rule="evenodd" clip-rule="evenodd" d="M209.44 7.78999L213.87 12.22L218.57 7.53L216.22 5.17999L213.87 7.53L211.79 5.44L209.44 7.78999Z" fill="#BDAD83"/>
<path fill-rule="evenodd" clip-rule="evenodd" d="M207.95 7.78999L205.61 5.44L203.69 7.36L201.34 5.00999L198.99 7.36L203.69 12.05L207.95 7.78999Z" fill="#BDAD83"/>
<path fill-rule="evenodd" clip-rule="evenodd" d="M208.7 14.25L213.87 19.43L221.4 11.9L219.05 9.56L213.87 14.73L211.05 11.9L208.7 9.56L206.35 11.9L203.52 14.73L198.35 9.56L196 11.9L203.52 19.43L208.7 14.25Z" fill="#BDAD83"/>
<path fill-rule="evenodd" clip-rule="evenodd" d="M213.87 21.94L208.7 16.77L206.35 19.11L203.52 21.94L198.35 16.77L196 19.11L203.52 26.63L208.7 21.46L213.87 26.63L221.4 19.11L219.05 16.77L213.87 21.94Z" fill="#BDAD83"/>
<path fill-rule="evenodd" clip-rule="evenodd" d="M139.43 14.34L137.09 12L134.74 14.34L132.39 12L130.05 14.34L134.74 19.04L139.43 14.34Z" fill="#BDAD83"/>
<path fill-rule="evenodd" clip-rule="evenodd" d="M135.49 19.78L139.92 24.21L144.61 19.52L142.26 17.18L139.92 19.52L137.83 17.43L135.49 19.78Z" fill="#BDAD83"/>
<path fill-rule="evenodd" clip-rule="evenodd" d="M134 19.78L131.65 17.43L129.73 19.35L127.38 17.01L125.04 19.35L129.73 24.05L134 19.78Z" fill="#BDAD83"/>
<path fill-rule="evenodd" clip-rule="evenodd" d="M134.74 26.24L139.92 31.42L147.44 23.9L145.09 21.55L139.92 26.73L134.74 21.55L132.39 23.9L129.57 26.73L124.39 21.55L122.04 23.9L129.57 31.42L134.74 26.24Z" fill="#BDAD83"/>
<path fill-rule="evenodd" clip-rule="evenodd" d="M139.92 33.93L137.09 31.1L134.74 28.76L132.39 31.1L129.56 33.93L124.39 28.76L122.04 31.1L129.56 38.63L134.74 33.45L139.92 38.63L147.44 31.1L145.09 28.76L139.92 33.93Z" fill="#BDAD83"/>
<path fill-rule="evenodd" clip-rule="evenodd" d="M115.39 2.34999L113.04 0L110.7 2.34999L108.35 0L106.01 2.34999L110.7 7.03999L115.39 2.34999Z" fill="#BDAD83"/>
<path fill-rule="evenodd" clip-rule="evenodd" d="M111.44 7.78999L115.87 12.22L120.57 7.53L118.22 5.17999L115.87 7.53L113.79 5.44L111.44 7.78999Z" fill="#BDAD83"/>
<path fill-rule="evenodd" clip-rule="evenodd" d="M109.95 7.78999L107.61 5.44L105.69 7.36L103.34 5.00999L100.99 7.36L105.69 12.05L109.95 7.78999Z" fill="#BDAD83"/>
<path fill-rule="evenodd" clip-rule="evenodd" d="M110.7 14.25L115.87 19.43L123.4 11.9L121.05 9.56L115.87 14.73L113.05 11.9L110.7 9.56L108.35 11.9L105.52 14.73L100.35 9.56L98 11.9L105.52 19.43L110.7 14.25Z" fill="#BDAD83"/>
<path fill-rule="evenodd" clip-rule="evenodd" d="M115.87 21.94L110.7 16.77L108.35 19.11L105.52 21.94L100.35 16.77L98 19.11L105.52 26.63L110.7 21.46L115.87 26.63L123.4 19.11L121.05 16.77L115.87 21.94Z" fill="#BDAD83"/>
<path fill-rule="evenodd" clip-rule="evenodd" d="M335.43 14.34L333.09 12L330.74 14.34L328.39 12L326.05 14.34L330.74 19.04L335.43 14.34Z" fill="#BDAD83"/>
<path fill-rule="evenodd" clip-rule="evenodd" d="M331.49 19.78L335.92 24.21L340.61 19.52L338.26 17.18L335.92 19.52L333.83 17.43L331.49 19.78Z" fill="#BDAD83"/>
<path fill-rule="evenodd" clip-rule="evenodd" d="M330 19.78L327.65 17.43L325.73 19.35L323.38 17.01L321.04 19.35L325.73 24.05L330 19.78Z" fill="#BDAD83"/>
<path fill-rule="evenodd" clip-rule="evenodd" d="M330.74 26.24L335.92 31.42L343.44 23.9L341.09 21.55L335.92 26.73L330.74 21.55L328.39 23.9L325.57 26.73L320.39 21.55L318.04 23.9L325.57 31.42L330.74 26.24Z" fill="#BDAD83"/>
<path fill-rule="evenodd" clip-rule="evenodd" d="M335.92 33.93L333.09 31.1L330.74 28.76L328.39 31.1L325.56 33.93L320.39 28.76L318.04 31.1L325.56 38.63L330.74 33.45L335.92 38.63L343.44 31.1L341.09 28.76L335.92 33.93Z" fill="#BDAD83"/>
<path fill-rule="evenodd" clip-rule="evenodd" d="M311.39 2.34999L309.04 0L306.7 2.34999L304.35 0L302.01 2.34999L306.7 7.03999L311.39 2.34999Z" fill="#BDAD83"/>
<path fill-rule="evenodd" clip-rule="evenodd" d="M307.44 7.78999L311.87 12.22L316.57 7.53L314.22 5.17999L311.87 7.53L309.79 5.44L307.44 7.78999Z" fill="#BDAD83"/>
<path fill-rule="evenodd" clip-rule="evenodd" d="M305.95 7.78999L303.61 5.44L301.69 7.36L299.34 5.00999L296.99 7.36L301.69 12.05L305.95 7.78999Z" fill="#BDAD83"/>
<path fill-rule="evenodd" clip-rule="evenodd" d="M306.7 14.25L311.87 19.43L319.4 11.9L317.05 9.56L311.87 14.73L309.05 11.9L306.7 9.56L304.35 11.9L301.52 14.73L296.35 9.56L294 11.9L301.52 19.43L306.7 14.25Z" fill="#BDAD83"/>
<path fill-rule="evenodd" clip-rule="evenodd" d="M311.87 21.94L306.7 16.77L304.35 19.11L301.52 21.94L296.35 16.77L294 19.11L301.52 26.63L306.7 21.46L311.87 26.63L319.4 19.11L317.05 16.77L311.87 21.94Z" fill="#BDAD83"/>
<path fill-rule="evenodd" clip-rule="evenodd" d="M90.43 14.34L88.09 12L85.74 14.34L83.39 12L81.05 14.34L85.74 19.04L90.43 14.34Z" fill="#BDAD83"/>
<path fill-rule="evenodd" clip-rule="evenodd" d="M86.49 19.78L90.92 24.21L95.61 19.52L93.26 17.18L90.92 19.52L88.83 17.43L86.49 19.78Z" fill="#BDAD83"/>
<path fill-rule="evenodd" clip-rule="evenodd" d="M85 19.78L82.65 17.43L80.73 19.35L78.38 17.01L76.04 19.35L80.73 24.05L85 19.78Z" fill="#BDAD83"/>
<path fill-rule="evenodd" clip-rule="evenodd" d="M85.74 26.24L90.92 31.42L98.44 23.9L96.09 21.55L90.92 26.73L85.74 21.55L83.39 23.9L80.57 26.73L75.39 21.55L73.04 23.9L80.57 31.42L85.74 26.24Z" fill="#BDAD83"/>
<path fill-rule="evenodd" clip-rule="evenodd" d="M90.92 33.93L88.09 31.1L85.74 28.76L83.39 31.1L80.56 33.93L75.39 28.76L73.04 31.1L80.56 38.63L85.74 33.45L90.92 38.63L98.44 31.1L96.09 28.76L90.92 33.93Z" fill="#BDAD83"/>
<path fill-rule="evenodd" clip-rule="evenodd" d="M66.39 2.34999L64.04 0L61.7 2.34999L59.35 0L57.01 2.34999L61.7 7.03999L66.39 2.34999Z" fill="#BDAD83"/>
<path fill-rule="evenodd" clip-rule="evenodd" d="M62.44 7.78999L66.87 12.22L71.57 7.53L69.22 5.17999L66.87 7.53L64.79 5.44L62.44 7.78999Z" fill="#BDAD83"/>
<path fill-rule="evenodd" clip-rule="evenodd" d="M60.95 7.78999L58.61 5.44L56.69 7.36L54.34 5.00999L51.99 7.36L56.69 12.05L60.95 7.78999Z" fill="#BDAD83"/>
<path fill-rule="evenodd" clip-rule="evenodd" d="M61.7 14.25L66.87 19.43L74.4 11.9L72.05 9.56L66.87 14.73L64.05 11.9L61.7 9.56L59.35 11.9L56.52 14.73L51.35 9.56L49 11.9L56.52 19.43L61.7 14.25Z" fill="#BDAD83"/>
<path fill-rule="evenodd" clip-rule="evenodd" d="M66.87 21.94L61.7 16.77L59.35 19.11L56.52 21.94L51.35 16.77L49 19.11L56.52 26.63L61.7 21.46L66.87 26.63L74.4 19.11L72.05 16.77L66.87 21.94Z" fill="#BDAD83"/>
<path fill-rule="evenodd" clip-rule="evenodd" d="M286.43 14.34L284.09 12L281.74 14.34L279.39 12L277.05 14.34L281.74 19.04L286.43 14.34Z" fill="#BDAD83"/>
<path fill-rule="evenodd" clip-rule="evenodd" d="M282.49 19.78L286.92 24.21L291.61 19.52L289.26 17.18L286.92 19.52L284.83 17.43L282.49 19.78Z" fill="#BDAD83"/>
<path fill-rule="evenodd" clip-rule="evenodd" d="M281 19.78L278.65 17.43L276.73 19.35L274.38 17.01L272.04 19.35L276.73 24.05L281 19.78Z" fill="#BDAD83"/>
<path fill-rule="evenodd" clip-rule="evenodd" d="M281.74 26.24L286.92 31.42L294.44 23.9L292.09 21.55L286.92 26.73L281.74 21.55L279.39 23.9L276.57 26.73L271.39 21.55L269.04 23.9L276.57 31.42L281.74 26.24Z" fill="#BDAD83"/>
<path fill-rule="evenodd" clip-rule="evenodd" d="M286.92 33.93L284.09 31.1L281.74 28.76L279.39 31.1L276.56 33.93L271.39 28.76L269.04 31.1L276.56 38.63L281.74 33.45L286.92 38.63L294.44 31.1L292.09 28.76L286.92 33.93Z" fill="#BDAD83"/>
<path fill-rule="evenodd" clip-rule="evenodd" d="M262.39 2.34999L260.04 0L257.7 2.34999L255.35 0L253.01 2.34999L257.7 7.03999L262.39 2.34999Z" fill="#BDAD83"/>
<path fill-rule="evenodd" clip-rule="evenodd" d="M258.44 7.78999L262.87 12.22L267.57 7.53L265.22 5.17999L262.87 7.53L260.79 5.44L258.44 7.78999Z" fill="#BDAD83"/>
<path fill-rule="evenodd" clip-rule="evenodd" d="M256.95 7.78999L254.61 5.44L252.69 7.36L250.34 5.00999L247.99 7.36L252.69 12.05L256.95 7.78999Z" fill="#BDAD83"/>
<path fill-rule="evenodd" clip-rule="evenodd" d="M257.7 14.25L262.87 19.43L270.4 11.9L268.05 9.56L262.87 14.73L260.05 11.9L257.7 9.56L255.35 11.9L252.52 14.73L247.35 9.56L245 11.9L252.52 19.43L257.7 14.25Z" fill="#BDAD83"/>
<path fill-rule="evenodd" clip-rule="evenodd" d="M262.87 21.94L257.7 16.77L255.35 19.11L252.52 21.94L247.35 16.77L245 19.11L252.52 26.63L257.7 21.46L262.87 26.63L270.4 19.11L268.05 16.77L262.87 21.94Z" fill="#BDAD83"/>
<path fill-rule="evenodd" clip-rule="evenodd" d="M188.43 14.34L186.09 12L183.74 14.34L181.39 12L179.05 14.34L183.74 19.04L188.43 14.34Z" fill="#BDAD83"/>
<path fill-rule="evenodd" clip-rule="evenodd" d="M184.49 19.78L188.92 24.21L193.61 19.52L191.26 17.18L188.92 19.52L186.83 17.43L184.49 19.78Z" fill="#BDAD83"/>
<path fill-rule="evenodd" clip-rule="evenodd" d="M183 19.78L180.65 17.43L178.73 19.35L176.38 17.01L174.04 19.35L178.73 24.05L183 19.78Z" fill="#BDAD83"/>
<path fill-rule="evenodd" clip-rule="evenodd" d="M183.74 26.24L188.92 31.42L196.44 23.9L194.09 21.55L188.92 26.73L183.74 21.55L181.39 23.9L178.57 26.73L173.39 21.55L171.04 23.9L178.57 31.42L183.74 26.24Z" fill="#BDAD83"/>
<path fill-rule="evenodd" clip-rule="evenodd" d="M188.92 33.93L186.09 31.1L183.74 28.76L181.39 31.1L178.56 33.93L173.39 28.76L171.04 31.1L178.56 38.63L183.74 33.45L188.92 38.63L196.44 31.1L194.09 28.76L188.92 33.93Z" fill="#BDAD83"/>
<path fill-rule="evenodd" clip-rule="evenodd" d="M164.39 2.34999L162.04 0L159.7 2.34999L157.35 0L155.01 2.34999L159.7 7.03999L164.39 2.34999Z" fill="#BDAD83"/>
<path fill-rule="evenodd" clip-rule="evenodd" d="M160.44 7.78999L164.87 12.22L169.57 7.53L167.22 5.17999L164.87 7.53L162.79 5.44L160.44 7.78999Z" fill="#BDAD83"/>
<path fill-rule="evenodd" clip-rule="evenodd" d="M158.95 7.78999L156.61 5.44L154.69 7.36L152.34 5.00999L149.99 7.36L154.69 12.05L158.95 7.78999Z" fill="#BDAD83"/>
<path fill-rule="evenodd" clip-rule="evenodd" d="M159.7 14.25L164.87 19.43L172.4 11.9L170.05 9.56L164.87 14.73L162.05 11.9L159.7 9.56L157.35 11.9L154.52 14.73L149.35 9.56L147 11.9L154.52 19.43L159.7 14.25Z" fill="#BDAD83"/>
<path fill-rule="evenodd" clip-rule="evenodd" d="M164.87 21.94L159.7 16.77L157.35 19.11L154.52 21.94L149.35 16.77L147 19.11L154.52 26.63L159.7 21.46L164.87 26.63L172.4 19.11L170.05 16.77L164.87 21.94Z" fill="#BDAD83"/>
<path fill-rule="evenodd" clip-rule="evenodd" d="M384.43 14.34L382.09 12L379.74 14.34L377.39 12L375.05 14.34L379.74 19.04L384.43 14.34Z" fill="#BDAD83"/>
<path fill-rule="evenodd" clip-rule="evenodd" d="M380.49 19.78L384.92 24.21L389.61 19.52L387.26 17.18L384.92 19.52L382.83 17.43L380.49 19.78Z" fill="#BDAD83"/>
<path fill-rule="evenodd" clip-rule="evenodd" d="M379 19.78L376.65 17.43L374.73 19.35L372.38 17.01L370.04 19.35L374.73 24.05L379 19.78Z" fill="#BDAD83"/>
<path fill-rule="evenodd" clip-rule="evenodd" d="M379.74 26.24L384.92 31.42L392.44 23.9L390.09 21.55L384.92 26.73L379.74 21.55L377.39 23.9L374.57 26.73L369.39 21.55L367.04 23.9L374.57 31.42L379.74 26.24Z" fill="#BDAD83"/>
<path fill-rule="evenodd" clip-rule="evenodd" d="M384.92 33.93L382.09 31.1L379.74 28.76L377.39 31.1L374.56 33.93L369.39 28.76L367.04 31.1L374.56 38.63L379.74 33.45L384.92 38.63L392.44 31.1L390.09 28.76L384.92 33.93Z" fill="#BDAD83"/>
<path fill-rule="evenodd" clip-rule="evenodd" d="M360.39 2.34999L358.04 0L355.7 2.34999L353.35 0L351.01 2.34999L355.7 7.03999L360.39 2.34999Z" fill="#BDAD83"/>
<path fill-rule="evenodd" clip-rule="evenodd" d="M356.44 7.78999L360.87 12.22L365.57 7.53L363.22 5.17999L360.87 7.53L358.79 5.44L356.44 7.78999Z" fill="#BDAD83"/>
<path fill-rule="evenodd" clip-rule="evenodd" d="M354.95 7.78999L352.61 5.44L350.69 7.36L348.34 5.00999L345.99 7.36L350.69 12.05L354.95 7.78999Z" fill="#BDAD83"/>
<path fill-rule="evenodd" clip-rule="evenodd" d="M355.7 14.25L360.87 19.43L368.4 11.9L366.05 9.56L360.87 14.73L358.05 11.9L355.7 9.56L353.35 11.9L350.52 14.73L345.35 9.56L343 11.9L350.52 19.43L355.7 14.25Z" fill="#BDAD83"/>
<path fill-rule="evenodd" clip-rule="evenodd" d="M360.87 21.94L355.7 16.77L353.35 19.11L350.52 21.94L345.35 16.77L343 19.11L350.52 26.63L355.7 21.46L360.87 26.63L368.4 19.11L366.05 16.77L360.87 21.94Z" fill="#BDAD83"/>
<path fill-rule="evenodd" clip-rule="evenodd" d="M823.43 14.34L821.09 12L818.74 14.34L816.39 12L814.05 14.34L818.74 19.04L823.43 14.34Z" fill="#BDAD83"/>
<path fill-rule="evenodd" clip-rule="evenodd" d="M819.49 19.78L823.92 24.21L828.61 19.52L826.26 17.18L823.92 19.52L821.83 17.43L819.49 19.78Z" fill="#BDAD83"/>
<path fill-rule="evenodd" clip-rule="evenodd" d="M818 19.78L815.65 17.43L813.73 19.35L811.38 17.01L809.04 19.35L813.73 24.05L818 19.78Z" fill="#BDAD83"/>
<path fill-rule="evenodd" clip-rule="evenodd" d="M818.74 26.24L823.92 31.42L831.44 23.9L829.09 21.55L823.92 26.73L818.74 21.55L816.39 23.9L813.57 26.73L808.39 21.55L806.04 23.9L813.57 31.42L818.74 26.24Z" fill="#BDAD83"/>
<path fill-rule="evenodd" clip-rule="evenodd" d="M823.92 33.93L821.09 31.1L818.74 28.76L816.39 31.1L813.56 33.93L808.39 28.76L806.04 31.1L813.56 38.63L818.74 33.45L823.92 38.63L831.44 31.1L829.09 28.76L823.92 33.93Z" fill="#BDAD83"/>
<path fill-rule="evenodd" clip-rule="evenodd" d="M799.39 2.34999L797.04 0L794.7 2.34999L792.35 0L790.01 2.34999L794.7 7.03999L799.39 2.34999Z" fill="#BDAD83"/>
<path fill-rule="evenodd" clip-rule="evenodd" d="M795.44 7.78999L799.87 12.22L804.57 7.53L802.22 5.17999L799.87 7.53L797.79 5.44L795.44 7.78999Z" fill="#BDAD83"/>
<path fill-rule="evenodd" clip-rule="evenodd" d="M793.95 7.78999L791.61 5.44L789.69 7.36L787.34 5.00999L784.99 7.36L789.69 12.05L793.95 7.78999Z" fill="#BDAD83"/>
<path fill-rule="evenodd" clip-rule="evenodd" d="M794.7 14.25L799.87 19.43L807.4 11.9L805.05 9.56L799.87 14.73L797.05 11.9L794.7 9.56L792.35 11.9L789.52 14.73L784.35 9.56L782 11.9L789.52 19.43L794.7 14.25Z" fill="#BDAD83"/>
<path fill-rule="evenodd" clip-rule="evenodd" d="M799.87 21.94L794.7 16.77L792.35 19.11L789.52 21.94L784.35 16.77L782 19.11L789.52 26.63L794.7 21.46L799.87 26.63L807.4 19.11L805.05 16.77L799.87 21.94Z" fill="#BDAD83"/>
<path fill-rule="evenodd" clip-rule="evenodd" d="M1019.43 14.34L1017.09 12L1014.74 14.34L1012.39 12L1010.05 14.34L1014.74 19.04L1019.43 14.34Z" fill="#BDAD83"/>
<path fill-rule="evenodd" clip-rule="evenodd" d="M1015.49 19.78L1019.92 24.21L1024.61 19.52L1022.26 17.18L1019.92 19.52L1017.83 17.43L1015.49 19.78Z" fill="#BDAD83"/>
<path fill-rule="evenodd" clip-rule="evenodd" d="M1014 19.78L1011.65 17.43L1009.73 19.35L1007.38 17.01L1005.04 19.35L1009.73 24.05L1014 19.78Z" fill="#BDAD83"/>
<path fill-rule="evenodd" clip-rule="evenodd" d="M1014.74 26.24L1019.92 31.42L1027.44 23.9L1025.09 21.55L1019.92 26.73L1014.74 21.55L1012.39 23.9L1009.57 26.73L1004.39 21.55L1002.04 23.9L1009.57 31.42L1014.74 26.24Z" fill="#BDAD83"/>
<path fill-rule="evenodd" clip-rule="evenodd" d="M1019.92 33.93L1017.09 31.1L1014.74 28.76L1012.39 31.1L1009.56 33.93L1004.39 28.76L1002.04 31.1L1009.56 38.63L1014.74 33.45L1019.92 38.63L1027.44 31.1L1025.09 28.76L1019.92 33.93Z" fill="#BDAD83"/>
<path fill-rule="evenodd" clip-rule="evenodd" d="M995.39 2.34999L993.04 0L990.7 2.34999L988.35 0L986.01 2.34999L990.7 7.03999L995.39 2.34999Z" fill="#BDAD83"/>
<path fill-rule="evenodd" clip-rule="evenodd" d="M991.44 7.78999L995.87 12.22L1000.57 7.53L998.22 5.17999L995.87 7.53L993.79 5.44L991.44 7.78999Z" fill="#BDAD83"/>
<path fill-rule="evenodd" clip-rule="evenodd" d="M989.95 7.78999L987.61 5.44L985.69 7.36L983.34 5.00999L980.99 7.36L985.69 12.05L989.95 7.78999Z" fill="#BDAD83"/>
<path fill-rule="evenodd" clip-rule="evenodd" d="M990.7 14.25L995.87 19.43L1003.4 11.9L1001.05 9.56L995.87 14.73L993.05 11.9L990.7 9.56L988.35 11.9L985.52 14.73L980.35 9.56L978 11.9L985.52 19.43L990.7 14.25Z" fill="#BDAD83"/>
<path fill-rule="evenodd" clip-rule="evenodd" d="M995.87 21.94L990.7 16.77L988.35 19.11L985.52 21.94L980.35 16.77L978 19.11L985.52 26.63L990.7 21.46L995.87 26.63L1003.4 19.11L1001.05 16.77L995.87 21.94Z" fill="#BDAD83"/>
<path fill-rule="evenodd" clip-rule="evenodd" d="M921.43 14.34L919.09 12L916.74 14.34L914.39 12L912.05 14.34L916.74 19.04L921.43 14.34Z" fill="#BDAD83"/>
<path fill-rule="evenodd" clip-rule="evenodd" d="M917.49 19.78L921.92 24.21L926.61 19.52L924.26 17.18L921.92 19.52L919.83 17.43L917.49 19.78Z" fill="#BDAD83"/>
<path fill-rule="evenodd" clip-rule="evenodd" d="M916 19.78L913.65 17.43L911.73 19.35L909.38 17.01L907.04 19.35L911.73 24.05L916 19.78Z" fill="#BDAD83"/>
<path fill-rule="evenodd" clip-rule="evenodd" d="M916.74 26.24L921.92 31.42L929.44 23.9L927.09 21.55L921.92 26.73L916.74 21.55L914.39 23.9L911.57 26.73L906.39 21.55L904.04 23.9L911.57 31.42L916.74 26.24Z" fill="#BDAD83"/>
<path fill-rule="evenodd" clip-rule="evenodd" d="M921.92 33.93L919.09 31.1L916.74 28.76L914.39 31.1L911.56 33.93L906.39 28.76L904.04 31.1L911.56 38.63L916.74 33.45L921.92 38.63L929.44 31.1L927.09 28.76L921.92 33.93Z" fill="#BDAD83"/>
<path fill-rule="evenodd" clip-rule="evenodd" d="M897.39 2.34999L895.04 0L892.7 2.34999L890.35 0L888.01 2.34999L892.7 7.03999L897.39 2.34999Z" fill="#BDAD83"/>
<path fill-rule="evenodd" clip-rule="evenodd" d="M893.44 7.78999L897.87 12.22L902.57 7.53L900.22 5.17999L897.87 7.53L895.79 5.44L893.44 7.78999Z" fill="#BDAD83"/>
<path fill-rule="evenodd" clip-rule="evenodd" d="M891.95 7.78999L889.61 5.44L887.69 7.36L885.34 5.00999L882.99 7.36L887.69 12.05L891.95 7.78999Z" fill="#BDAD83"/>
<path fill-rule="evenodd" clip-rule="evenodd" d="M892.7 14.25L897.87 19.43L905.4 11.9L903.05 9.56L897.87 14.73L895.05 11.9L892.7 9.56L890.35 11.9L887.52 14.73L882.35 9.56L880 11.9L887.52 19.43L892.7 14.25Z" fill="#BDAD83"/>
<path fill-rule="evenodd" clip-rule="evenodd" d="M897.87 21.94L892.7 16.77L890.35 19.11L887.52 21.94L882.35 16.77L880 19.11L887.52 26.63L892.7 21.46L897.87 26.63L905.4 19.11L903.05 16.77L897.87 21.94Z" fill="#BDAD83"/>
<path fill-rule="evenodd" clip-rule="evenodd" d="M1117.43 14.34L1115.09 12L1112.74 14.34L1110.39 12L1108.05 14.34L1112.74 19.04L1117.43 14.34Z" fill="#BDAD83"/>
<path fill-rule="evenodd" clip-rule="evenodd" d="M1113.49 19.78L1117.92 24.21L1122.61 19.52L1120.26 17.18L1117.92 19.52L1115.83 17.43L1113.49 19.78Z" fill="#BDAD83"/>
<path fill-rule="evenodd" clip-rule="evenodd" d="M1112 19.78L1109.65 17.43L1107.73 19.35L1105.38 17.01L1103.04 19.35L1107.73 24.05L1112 19.78Z" fill="#BDAD83"/>
<path fill-rule="evenodd" clip-rule="evenodd" d="M1112.74 26.24L1117.92 31.42L1125.44 23.9L1123.09 21.55L1117.92 26.73L1112.74 21.55L1110.39 23.9L1107.57 26.73L1102.39 21.55L1100.04 23.9L1107.57 31.42L1112.74 26.24Z" fill="#BDAD83"/>
<path fill-rule="evenodd" clip-rule="evenodd" d="M1117.92 33.93L1115.09 31.1L1112.74 28.76L1110.39 31.1L1107.56 33.93L1102.39 28.76L1100.04 31.1L1107.56 38.63L1112.74 33.45L1117.92 38.63L1125.44 31.1L1123.09 28.76L1117.92 33.93Z" fill="#BDAD83"/>
<path fill-rule="evenodd" clip-rule="evenodd" d="M1093.39 2.34999L1091.04 0L1088.7 2.34999L1086.35 0L1084.01 2.34999L1088.7 7.03999L1093.39 2.34999Z" fill="#BDAD83"/>
<path fill-rule="evenodd" clip-rule="evenodd" d="M1089.44 7.78999L1093.87 12.22L1098.57 7.53L1096.22 5.17999L1093.87 7.53L1091.79 5.44L1089.44 7.78999Z" fill="#BDAD83"/>
<path fill-rule="evenodd" clip-rule="evenodd" d="M1087.95 7.78999L1085.61 5.44L1083.69 7.36L1081.34 5.00999L1078.99 7.36L1083.69 12.05L1087.95 7.78999Z" fill="#BDAD83"/>
<path fill-rule="evenodd" clip-rule="evenodd" d="M1088.7 14.25L1093.87 19.43L1101.4 11.9L1099.05 9.56L1093.87 14.73L1091.05 11.9L1088.7 9.56L1086.35 11.9L1083.52 14.73L1078.35 9.56L1076 11.9L1083.52 19.43L1088.7 14.25Z" fill="#BDAD83"/>
<path fill-rule="evenodd" clip-rule="evenodd" d="M1093.87 21.94L1088.7 16.77L1086.35 19.11L1083.52 21.94L1078.35 16.77L1076 19.11L1083.52 26.63L1088.7 21.46L1093.87 26.63L1101.4 19.11L1099.05 16.77L1093.87 21.94Z" fill="#BDAD83"/>
<path fill-rule="evenodd" clip-rule="evenodd" d="M872.43 14.34L870.09 12L867.74 14.34L865.39 12L863.05 14.34L867.74 19.04L872.43 14.34Z" fill="#BDAD83"/>
<path fill-rule="evenodd" clip-rule="evenodd" d="M868.49 19.78L872.92 24.21L877.61 19.52L875.26 17.18L872.92 19.52L870.83 17.43L868.49 19.78Z" fill="#BDAD83"/>
<path fill-rule="evenodd" clip-rule="evenodd" d="M867 19.78L864.65 17.43L862.73 19.35L860.38 17.01L858.04 19.35L862.73 24.05L867 19.78Z" fill="#BDAD83"/>
<path fill-rule="evenodd" clip-rule="evenodd" d="M867.74 26.24L872.92 31.42L880.44 23.9L878.09 21.55L872.92 26.73L867.74 21.55L865.39 23.9L862.57 26.73L857.39 21.55L855.04 23.9L862.57 31.42L867.74 26.24Z" fill="#BDAD83"/>
<path fill-rule="evenodd" clip-rule="evenodd" d="M872.92 33.93L870.09 31.1L867.74 28.76L865.39 31.1L862.56 33.93L857.39 28.76L855.04 31.1L862.56 38.63L867.74 33.45L872.92 38.63L880.44 31.1L878.09 28.76L872.92 33.93Z" fill="#BDAD83"/>
<path fill-rule="evenodd" clip-rule="evenodd" d="M848.39 2.34999L846.04 0L843.7 2.34999L841.35 0L839.01 2.34999L843.7 7.03999L848.39 2.34999Z" fill="#BDAD83"/>
<path fill-rule="evenodd" clip-rule="evenodd" d="M844.44 7.78999L848.87 12.22L853.57 7.53L851.22 5.17999L848.87 7.53L846.79 5.44L844.44 7.78999Z" fill="#BDAD83"/>
<path fill-rule="evenodd" clip-rule="evenodd" d="M842.95 7.78999L840.61 5.44L838.69 7.36L836.34 5.00999L833.99 7.36L838.69 12.05L842.95 7.78999Z" fill="#BDAD83"/>
<path fill-rule="evenodd" clip-rule="evenodd" d="M843.7 14.25L848.87 19.43L856.4 11.9L854.05 9.56L848.87 14.73L846.05 11.9L843.7 9.56L841.35 11.9L838.52 14.73L833.35 9.56L831 11.9L838.52 19.43L843.7 14.25Z" fill="#BDAD83"/>
<path fill-rule="evenodd" clip-rule="evenodd" d="M848.87 21.94L843.7 16.77L841.35 19.11L838.52 21.94L833.35 16.77L831 19.11L838.52 26.63L843.7 21.46L848.87 26.63L856.4 19.11L854.05 16.77L848.87 21.94Z" fill="#BDAD83"/>
<path fill-rule="evenodd" clip-rule="evenodd" d="M1068.43 14.34L1066.09 12L1063.74 14.34L1061.39 12L1059.05 14.34L1063.74 19.04L1068.43 14.34Z" fill="#BDAD83"/>
<path fill-rule="evenodd" clip-rule="evenodd" d="M1064.49 19.78L1068.92 24.21L1073.61 19.52L1071.26 17.18L1068.92 19.52L1066.83 17.43L1064.49 19.78Z" fill="#BDAD83"/>
<path fill-rule="evenodd" clip-rule="evenodd" d="M1063 19.78L1060.65 17.43L1058.73 19.35L1056.38 17.01L1054.04 19.35L1058.73 24.05L1063 19.78Z" fill="#BDAD83"/>
<path fill-rule="evenodd" clip-rule="evenodd" d="M1063.74 26.24L1068.92 31.42L1076.44 23.9L1074.09 21.55L1068.92 26.73L1063.74 21.55L1061.39 23.9L1058.57 26.73L1053.39 21.55L1051.04 23.9L1058.57 31.42L1063.74 26.24Z" fill="#BDAD83"/>
<path fill-rule="evenodd" clip-rule="evenodd" d="M1068.92 33.93L1066.09 31.1L1063.74 28.76L1061.39 31.1L1058.56 33.93L1053.39 28.76L1051.04 31.1L1058.56 38.63L1063.74 33.45L1068.92 38.63L1076.44 31.1L1074.09 28.76L1068.92 33.93Z" fill="#BDAD83"/>
<path fill-rule="evenodd" clip-rule="evenodd" d="M1044.39 2.34999L1042.04 0L1039.7 2.34999L1037.35 0L1035.01 2.34999L1039.7 7.03999L1044.39 2.34999Z" fill="#BDAD83"/>
<path fill-rule="evenodd" clip-rule="evenodd" d="M1040.44 7.78999L1044.87 12.22L1049.57 7.53L1047.22 5.17999L1044.87 7.53L1042.79 5.44L1040.44 7.78999Z" fill="#BDAD83"/>
<path fill-rule="evenodd" clip-rule="evenodd" d="M1038.95 7.78999L1036.61 5.44L1034.69 7.36L1032.34 5.00999L1029.99 7.36L1034.69 12.05L1038.95 7.78999Z" fill="#BDAD83"/>
<path fill-rule="evenodd" clip-rule="evenodd" d="M1039.7 14.25L1044.87 19.43L1052.4 11.9L1050.05 9.56L1044.87 14.73L1042.05 11.9L1039.7 9.56L1037.35 11.9L1034.52 14.73L1029.35 9.56L1027 11.9L1034.52 19.43L1039.7 14.25Z" fill="#BDAD83"/>
<path fill-rule="evenodd" clip-rule="evenodd" d="M1044.87 21.94L1039.7 16.77L1037.35 19.11L1034.52 21.94L1029.35 16.77L1027 19.11L1034.52 26.63L1039.7 21.46L1044.87 26.63L1052.4 19.11L1050.05 16.77L1044.87 21.94Z" fill="#BDAD83"/>
<path fill-rule="evenodd" clip-rule="evenodd" d="M970.43 14.34L968.09 12L965.74 14.34L963.39 12L961.05 14.34L965.74 19.04L970.43 14.34Z" fill="#BDAD83"/>
<path fill-rule="evenodd" clip-rule="evenodd" d="M966.49 19.78L970.92 24.21L975.61 19.52L973.26 17.18L970.92 19.52L968.83 17.43L966.49 19.78Z" fill="#BDAD83"/>
<path fill-rule="evenodd" clip-rule="evenodd" d="M965 19.78L962.65 17.43L960.73 19.35L958.38 17.01L956.04 19.35L960.73 24.05L965 19.78Z" fill="#BDAD83"/>
<path fill-rule="evenodd" clip-rule="evenodd" d="M965.74 26.24L970.92 31.42L978.44 23.9L976.09 21.55L970.92 26.73L965.74 21.55L963.39 23.9L960.57 26.73L955.39 21.55L953.04 23.9L960.57 31.42L965.74 26.24Z" fill="#BDAD83"/>
<path fill-rule="evenodd" clip-rule="evenodd" d="M970.92 33.93L968.09 31.1L965.74 28.76L963.39 31.1L960.56 33.93L955.39 28.76L953.04 31.1L960.56 38.63L965.74 33.45L970.92 38.63L978.44 31.1L976.09 28.76L970.92 33.93Z" fill="#BDAD83"/>
<path fill-rule="evenodd" clip-rule="evenodd" d="M946.39 2.34999L944.04 0L941.7 2.34999L939.35 0L937.01 2.34999L941.7 7.03999L946.39 2.34999Z" fill="#BDAD83"/>
<path fill-rule="evenodd" clip-rule="evenodd" d="M942.44 7.78999L946.87 12.22L951.57 7.53L949.22 5.17999L946.87 7.53L944.79 5.44L942.44 7.78999Z" fill="#BDAD83"/>
<path fill-rule="evenodd" clip-rule="evenodd" d="M940.95 7.78999L938.61 5.44L936.69 7.36L934.34 5.00999L931.99 7.36L936.69 12.05L940.95 7.78999Z" fill="#BDAD83"/>
<path fill-rule="evenodd" clip-rule="evenodd" d="M941.7 14.25L946.87 19.43L954.4 11.9L952.05 9.56L946.87 14.73L944.05 11.9L941.7 9.56L939.35 11.9L936.52 14.73L931.35 9.56L929 11.9L936.52 19.43L941.7 14.25Z" fill="#BDAD83"/>
<path fill-rule="evenodd" clip-rule="evenodd" d="M946.87 21.94L941.7 16.77L939.35 19.11L936.52 21.94L931.35 16.77L929 19.11L936.52 26.63L941.7 21.46L946.87 26.63L954.4 19.11L952.05 16.77L946.87 21.94Z" fill="#BDAD83"/>
<path fill-rule="evenodd" clip-rule="evenodd" d="M1166.43 14.34L1164.09 12L1161.74 14.34L1159.39 12L1157.05 14.34L1161.74 19.04L1166.43 14.34Z" fill="#BDAD83"/>
<path fill-rule="evenodd" clip-rule="evenodd" d="M1162.49 19.78L1166.92 24.21L1171.61 19.52L1169.26 17.18L1166.92 19.52L1164.83 17.43L1162.49 19.78Z" fill="#BDAD83"/>
<path fill-rule="evenodd" clip-rule="evenodd" d="M1161 19.78L1158.65 17.43L1156.73 19.35L1154.38 17.01L1152.04 19.35L1156.73 24.05L1161 19.78Z" fill="#BDAD83"/>
<path fill-rule="evenodd" clip-rule="evenodd" d="M1161.74 26.24L1166.92 31.42L1174.44 23.9L1172.09 21.55L1166.92 26.73L1161.74 21.55L1159.39 23.9L1156.57 26.73L1151.39 21.55L1149.04 23.9L1156.57 31.42L1161.74 26.24Z" fill="#BDAD83"/>
<path fill-rule="evenodd" clip-rule="evenodd" d="M1166.92 33.93L1164.09 31.1L1161.74 28.76L1159.39 31.1L1156.56 33.93L1151.39 28.76L1149.04 31.1L1156.56 38.63L1161.74 33.45L1166.92 38.63L1174.44 31.1L1172.09 28.76L1166.92 33.93Z" fill="#BDAD83"/>
<path fill-rule="evenodd" clip-rule="evenodd" d="M1142.39 2.34999L1140.04 0L1137.7 2.34999L1135.35 0L1133.01 2.34999L1137.7 7.03999L1142.39 2.34999Z" fill="#BDAD83"/>
<path fill-rule="evenodd" clip-rule="evenodd" d="M1138.44 7.78999L1142.87 12.22L1147.57 7.53L1145.22 5.17999L1142.87 7.53L1140.79 5.44L1138.44 7.78999Z" fill="#BDAD83"/>
<path fill-rule="evenodd" clip-rule="evenodd" d="M1136.95 7.78999L1134.61 5.44L1132.69 7.36L1130.34 5.00999L1127.99 7.36L1132.69 12.05L1136.95 7.78999Z" fill="#BDAD83"/>
<path fill-rule="evenodd" clip-rule="evenodd" d="M1137.7 14.25L1142.87 19.43L1150.4 11.9L1148.05 9.56L1142.87 14.73L1140.05 11.9L1137.7 9.56L1135.35 11.9L1132.52 14.73L1127.35 9.56L1125 11.9L1132.52 19.43L1137.7 14.25Z" fill="#BDAD83"/>
<path fill-rule="evenodd" clip-rule="evenodd" d="M1142.87 21.94L1137.7 16.77L1135.35 19.11L1132.52 21.94L1127.35 16.77L1125 19.11L1132.52 26.63L1137.7 21.46L1142.87 26.63L1150.4 19.11L1148.05 16.77L1142.87 21.94Z" fill="#BDAD83"/>
<path fill-rule="evenodd" clip-rule="evenodd" d="M433.43 14.34L431.09 12L428.74 14.34L426.39 12L424.05 14.34L428.74 19.04L433.43 14.34Z" fill="#BDAD83"/>
<path fill-rule="evenodd" clip-rule="evenodd" d="M429.49 19.78L433.92 24.21L438.61 19.52L436.26 17.18L433.92 19.52L431.83 17.43L429.49 19.78Z" fill="#BDAD83"/>
<path fill-rule="evenodd" clip-rule="evenodd" d="M428 19.78L425.65 17.43L423.73 19.35L421.38 17.01L419.04 19.35L423.73 24.05L428 19.78Z" fill="#BDAD83"/>
<path fill-rule="evenodd" clip-rule="evenodd" d="M428.74 26.24L433.92 31.42L441.44 23.9L439.09 21.55L433.92 26.73L428.74 21.55L426.39 23.9L423.57 26.73L418.39 21.55L416.04 23.9L423.57 31.42L428.74 26.24Z" fill="#BDAD83"/>
<path fill-rule="evenodd" clip-rule="evenodd" d="M433.92 33.93L431.09 31.1L428.74 28.76L426.39 31.1L423.56 33.93L418.39 28.76L416.04 31.1L423.56 38.63L428.74 33.45L433.92 38.63L441.44 31.1L439.09 28.76L433.92 33.93Z" fill="#BDAD83"/>
<path fill-rule="evenodd" clip-rule="evenodd" d="M409.39 2.34999L407.04 0L404.7 2.34999L402.35 0L400.01 2.34999L404.7 7.03999L409.39 2.34999Z" fill="#BDAD83"/>
<path fill-rule="evenodd" clip-rule="evenodd" d="M405.44 7.78999L409.87 12.22L414.57 7.53L412.22 5.17999L409.87 7.53L407.79 5.44L405.44 7.78999Z" fill="#BDAD83"/>
<path fill-rule="evenodd" clip-rule="evenodd" d="M403.95 7.78999L401.61 5.44L399.69 7.36L397.34 5.00999L394.99 7.36L399.69 12.05L403.95 7.78999Z" fill="#BDAD83"/>
<path fill-rule="evenodd" clip-rule="evenodd" d="M404.7 14.25L409.87 19.43L417.4 11.9L415.05 9.56L409.87 14.73L407.05 11.9L404.7 9.56L402.35 11.9L399.52 14.73L394.35 9.56L392 11.9L399.52 19.43L404.7 14.25Z" fill="#BDAD83"/>
<path fill-rule="evenodd" clip-rule="evenodd" d="M409.87 21.94L404.7 16.77L402.35 19.11L399.52 21.94L394.35 16.77L392 19.11L399.52 26.63L404.7 21.46L409.87 26.63L417.4 19.11L415.05 16.77L409.87 21.94Z" fill="#BDAD83"/>
<path fill-rule="evenodd" clip-rule="evenodd" d="M629.43 14.34L627.09 12L624.74 14.34L622.39 12L620.05 14.34L624.74 19.04L629.43 14.34Z" fill="#BDAD83"/>
<path fill-rule="evenodd" clip-rule="evenodd" d="M625.49 19.78L629.92 24.21L634.61 19.52L632.26 17.18L629.92 19.52L627.83 17.43L625.49 19.78Z" fill="#BDAD83"/>
<path fill-rule="evenodd" clip-rule="evenodd" d="M624 19.78L621.65 17.43L619.73 19.35L617.38 17.01L615.04 19.35L619.73 24.05L624 19.78Z" fill="#BDAD83"/>
<path fill-rule="evenodd" clip-rule="evenodd" d="M624.74 26.24L629.92 31.42L637.44 23.9L635.09 21.55L629.92 26.73L624.74 21.55L622.39 23.9L619.57 26.73L614.39 21.55L612.04 23.9L619.57 31.42L624.74 26.24Z" fill="#BDAD83"/>
<path fill-rule="evenodd" clip-rule="evenodd" d="M629.92 33.93L627.09 31.1L624.74 28.76L622.39 31.1L619.56 33.93L614.39 28.76L612.04 31.1L619.56 38.63L624.74 33.45L629.92 38.63L637.44 31.1L635.09 28.76L629.92 33.93Z" fill="#BDAD83"/>
<path fill-rule="evenodd" clip-rule="evenodd" d="M605.39 2.34999L603.04 0L600.7 2.34999L598.35 0L596.01 2.34999L600.7 7.03999L605.39 2.34999Z" fill="#BDAD83"/>
<path fill-rule="evenodd" clip-rule="evenodd" d="M601.44 7.78999L605.87 12.22L610.57 7.53L608.22 5.17999L605.87 7.53L603.79 5.44L601.44 7.78999Z" fill="#BDAD83"/>
<path fill-rule="evenodd" clip-rule="evenodd" d="M599.95 7.78999L597.61 5.44L595.69 7.36L593.34 5.00999L590.99 7.36L595.69 12.05L599.95 7.78999Z" fill="#BDAD83"/>
<path fill-rule="evenodd" clip-rule="evenodd" d="M600.7 14.25L605.87 19.43L613.4 11.9L611.05 9.56L605.87 14.73L603.05 11.9L600.7 9.56L598.35 11.9L595.52 14.73L590.35 9.56L588 11.9L595.52 19.43L600.7 14.25Z" fill="#BDAD83"/>
<path fill-rule="evenodd" clip-rule="evenodd" d="M605.87 21.94L600.7 16.77L598.35 19.11L595.52 21.94L590.35 16.77L588 19.11L595.52 26.63L600.7 21.46L605.87 26.63L613.4 19.11L611.05 16.77L605.87 21.94Z" fill="#BDAD83"/>
<path fill-rule="evenodd" clip-rule="evenodd" d="M531.43 14.34L529.09 12L526.74 14.34L524.39 12L522.05 14.34L526.74 19.04L531.43 14.34Z" fill="#BDAD83"/>
<path fill-rule="evenodd" clip-rule="evenodd" d="M527.49 19.78L531.92 24.21L536.61 19.52L534.26 17.18L531.92 19.52L529.83 17.43L527.49 19.78Z" fill="#BDAD83"/>
<path fill-rule="evenodd" clip-rule="evenodd" d="M526 19.78L523.65 17.43L521.73 19.35L519.38 17.01L517.04 19.35L521.73 24.05L526 19.78Z" fill="#BDAD83"/>
<path fill-rule="evenodd" clip-rule="evenodd" d="M526.74 26.24L531.92 31.42L539.44 23.9L537.09 21.55L531.92 26.73L526.74 21.55L524.39 23.9L521.57 26.73L516.39 21.55L514.04 23.9L521.57 31.42L526.74 26.24Z" fill="#BDAD83"/>
<path fill-rule="evenodd" clip-rule="evenodd" d="M531.92 33.93L529.09 31.1L526.74 28.76L524.39 31.1L521.56 33.93L516.39 28.76L514.04 31.1L521.56 38.63L526.74 33.45L531.92 38.63L539.44 31.1L537.09 28.76L531.92 33.93Z" fill="#BDAD83"/>
<path fill-rule="evenodd" clip-rule="evenodd" d="M507.39 2.34999L505.04 0L502.7 2.34999L500.35 0L498.01 2.34999L502.7 7.03999L507.39 2.34999Z" fill="#BDAD83"/>
<path fill-rule="evenodd" clip-rule="evenodd" d="M503.44 7.78999L507.87 12.22L512.57 7.53L510.22 5.17999L507.87 7.53L505.79 5.44L503.44 7.78999Z" fill="#BDAD83"/>
<path fill-rule="evenodd" clip-rule="evenodd" d="M501.95 7.78999L499.61 5.44L497.69 7.36L495.34 5.00999L492.99 7.36L497.69 12.05L501.95 7.78999Z" fill="#BDAD83"/>
<path fill-rule="evenodd" clip-rule="evenodd" d="M502.7 14.25L507.87 19.43L515.4 11.9L513.05 9.56L507.87 14.73L505.05 11.9L502.7 9.56L500.35 11.9L497.52 14.73L492.35 9.56L490 11.9L497.52 19.43L502.7 14.25Z" fill="#BDAD83"/>
<path fill-rule="evenodd" clip-rule="evenodd" d="M507.87 21.94L502.7 16.77L500.35 19.11L497.52 21.94L492.35 16.77L490 19.11L497.52 26.63L502.7 21.46L507.87 26.63L515.4 19.11L513.05 16.77L507.87 21.94Z" fill="#BDAD83"/>
<path fill-rule="evenodd" clip-rule="evenodd" d="M727.43 14.34L725.09 12L722.74 14.34L720.39 12L718.05 14.34L722.74 19.04L727.43 14.34Z" fill="#BDAD83"/>
<path fill-rule="evenodd" clip-rule="evenodd" d="M723.49 19.78L727.92 24.21L732.61 19.52L730.26 17.18L727.92 19.52L725.83 17.43L723.49 19.78Z" fill="#BDAD83"/>
<path fill-rule="evenodd" clip-rule="evenodd" d="M722 19.78L719.65 17.43L717.73 19.35L715.38 17.01L713.04 19.35L717.73 24.05L722 19.78Z" fill="#BDAD83"/>
<path fill-rule="evenodd" clip-rule="evenodd" d="M722.74 26.24L727.92 31.42L735.44 23.9L733.09 21.55L727.92 26.73L722.74 21.55L720.39 23.9L717.57 26.73L712.39 21.55L710.04 23.9L717.57 31.42L722.74 26.24Z" fill="#BDAD83"/>
<path fill-rule="evenodd" clip-rule="evenodd" d="M727.92 33.93L725.09 31.1L722.74 28.76L720.39 31.1L717.56 33.93L712.39 28.76L710.04 31.1L717.56 38.63L722.74 33.45L727.92 38.63L735.44 31.1L733.09 28.76L727.92 33.93Z" fill="#BDAD83"/>
<path fill-rule="evenodd" clip-rule="evenodd" d="M703.39 2.34999L701.04 0L698.7 2.34999L696.35 0L694.01 2.34999L698.7 7.03999L703.39 2.34999Z" fill="#BDAD83"/>
<path fill-rule="evenodd" clip-rule="evenodd" d="M699.44 7.78999L703.87 12.22L708.57 7.53L706.22 5.17999L703.87 7.53L701.79 5.44L699.44 7.78999Z" fill="#BDAD83"/>
<path fill-rule="evenodd" clip-rule="evenodd" d="M697.95 7.78999L695.61 5.44L693.69 7.36L691.34 5.00999L688.99 7.36L693.69 12.05L697.95 7.78999Z" fill="#BDAD83"/>
<path fill-rule="evenodd" clip-rule="evenodd" d="M698.7 14.25L703.87 19.43L711.4 11.9L709.05 9.56L703.87 14.73L701.05 11.9L698.7 9.56L696.35 11.9L693.52 14.73L688.35 9.56L686 11.9L693.52 19.43L698.7 14.25Z" fill="#BDAD83"/>
<path fill-rule="evenodd" clip-rule="evenodd" d="M703.87 21.94L698.7 16.77L696.35 19.11L693.52 21.94L688.35 16.77L686 19.11L693.52 26.63L698.7 21.46L703.87 26.63L711.4 19.11L709.05 16.77L703.87 21.94Z" fill="#BDAD83"/>
<path fill-rule="evenodd" clip-rule="evenodd" d="M482.43 14.34L480.09 12L477.74 14.34L475.39 12L473.05 14.34L477.74 19.04L482.43 14.34Z" fill="#BDAD83"/>
<path fill-rule="evenodd" clip-rule="evenodd" d="M478.49 19.78L482.92 24.21L487.61 19.52L485.26 17.18L482.92 19.52L480.83 17.43L478.49 19.78Z" fill="#BDAD83"/>
<path fill-rule="evenodd" clip-rule="evenodd" d="M477 19.78L474.65 17.43L472.73 19.35L470.38 17.01L468.04 19.35L472.73 24.05L477 19.78Z" fill="#BDAD83"/>
<path fill-rule="evenodd" clip-rule="evenodd" d="M477.74 26.24L482.92 31.42L490.44 23.9L488.09 21.55L482.92 26.73L477.74 21.55L475.39 23.9L472.57 26.73L467.39 21.55L465.04 23.9L472.57 31.42L477.74 26.24Z" fill="#BDAD83"/>
<path fill-rule="evenodd" clip-rule="evenodd" d="M482.92 33.93L480.09 31.1L477.74 28.76L475.39 31.1L472.56 33.93L467.39 28.76L465.04 31.1L472.56 38.63L477.74 33.45L482.92 38.63L490.44 31.1L488.09 28.76L482.92 33.93Z" fill="#BDAD83"/>
<path fill-rule="evenodd" clip-rule="evenodd" d="M458.39 2.34999L456.04 0L453.7 2.34999L451.35 0L449.01 2.34999L453.7 7.03999L458.39 2.34999Z" fill="#BDAD83"/>
<path fill-rule="evenodd" clip-rule="evenodd" d="M454.44 7.78999L458.87 12.22L463.57 7.53L461.22 5.17999L458.87 7.53L456.79 5.44L454.44 7.78999Z" fill="#BDAD83"/>
<path fill-rule="evenodd" clip-rule="evenodd" d="M452.95 7.78999L450.61 5.44L448.69 7.36L446.34 5.00999L443.99 7.36L448.69 12.05L452.95 7.78999Z" fill="#BDAD83"/>
<path fill-rule="evenodd" clip-rule="evenodd" d="M453.7 14.25L458.87 19.43L466.4 11.9L464.05 9.56L458.87 14.73L456.05 11.9L453.7 9.56L451.35 11.9L448.52 14.73L443.35 9.56L441 11.9L448.52 19.43L453.7 14.25Z" fill="#BDAD83"/>
<path fill-rule="evenodd" clip-rule="evenodd" d="M458.87 21.94L453.7 16.77L451.35 19.11L448.52 21.94L443.35 16.77L441 19.11L448.52 26.63L453.7 21.46L458.87 26.63L466.4 19.11L464.05 16.77L458.87 21.94Z" fill="#BDAD83"/>
<path fill-rule="evenodd" clip-rule="evenodd" d="M678.43 14.34L676.09 12L673.74 14.34L671.39 12L669.05 14.34L673.74 19.04L678.43 14.34Z" fill="#BDAD83"/>
<path fill-rule="evenodd" clip-rule="evenodd" d="M674.49 19.78L678.92 24.21L683.61 19.52L681.26 17.18L678.92 19.52L676.83 17.43L674.49 19.78Z" fill="#BDAD83"/>
<path fill-rule="evenodd" clip-rule="evenodd" d="M673 19.78L670.65 17.43L668.73 19.35L666.38 17.01L664.04 19.35L668.73 24.05L673 19.78Z" fill="#BDAD83"/>
<path fill-rule="evenodd" clip-rule="evenodd" d="M673.74 26.24L678.92 31.42L686.44 23.9L684.09 21.55L678.92 26.73L673.74 21.55L671.39 23.9L668.57 26.73L663.39 21.55L661.04 23.9L668.57 31.42L673.74 26.24Z" fill="#BDAD83"/>
<path fill-rule="evenodd" clip-rule="evenodd" d="M678.92 33.93L676.09 31.1L673.74 28.76L671.39 31.1L668.56 33.93L663.39 28.76L661.04 31.1L668.56 38.63L673.74 33.45L678.92 38.63L686.44 31.1L684.09 28.76L678.92 33.93Z" fill="#BDAD83"/>
<path fill-rule="evenodd" clip-rule="evenodd" d="M654.39 2.34999L652.04 0L649.7 2.34999L647.35 0L645.01 2.34999L649.7 7.03999L654.39 2.34999Z" fill="#BDAD83"/>
<path fill-rule="evenodd" clip-rule="evenodd" d="M650.44 7.78999L654.87 12.22L659.57 7.53L657.22 5.17999L654.87 7.53L652.79 5.44L650.44 7.78999Z" fill="#BDAD83"/>
<path fill-rule="evenodd" clip-rule="evenodd" d="M648.95 7.78999L646.61 5.44L644.69 7.36L642.34 5.00999L639.99 7.36L644.69 12.05L648.95 7.78999Z" fill="#BDAD83"/>
<path fill-rule="evenodd" clip-rule="evenodd" d="M649.7 14.25L654.87 19.43L662.4 11.9L660.05 9.56L654.87 14.73L652.05 11.9L649.7 9.56L647.35 11.9L644.52 14.73L639.35 9.56L637 11.9L644.52 19.43L649.7 14.25Z" fill="#BDAD83"/>
<path fill-rule="evenodd" clip-rule="evenodd" d="M654.87 21.94L649.7 16.77L647.35 19.11L644.52 21.94L639.35 16.77L637 19.11L644.52 26.63L649.7 21.46L654.87 26.63L662.4 19.11L660.05 16.77L654.87 21.94Z" fill="#BDAD83"/>
<path fill-rule="evenodd" clip-rule="evenodd" d="M580.43 14.34L578.09 12L575.74 14.34L573.39 12L571.05 14.34L575.74 19.04L580.43 14.34Z" fill="#BDAD83"/>
<path fill-rule="evenodd" clip-rule="evenodd" d="M576.49 19.78L580.92 24.21L585.61 19.52L583.26 17.18L580.92 19.52L578.83 17.43L576.49 19.78Z" fill="#BDAD83"/>
<path fill-rule="evenodd" clip-rule="evenodd" d="M575 19.78L572.65 17.43L570.73 19.35L568.38 17.01L566.04 19.35L570.73 24.05L575 19.78Z" fill="#BDAD83"/>
<path fill-rule="evenodd" clip-rule="evenodd" d="M575.74 26.24L580.92 31.42L588.44 23.9L586.09 21.55L580.92 26.73L575.74 21.55L573.39 23.9L570.57 26.73L565.39 21.55L563.04 23.9L570.57 31.42L575.74 26.24Z" fill="#BDAD83"/>
<path fill-rule="evenodd" clip-rule="evenodd" d="M580.92 33.93L578.09 31.1L575.74 28.76L573.39 31.1L570.56 33.93L565.39 28.76L563.04 31.1L570.56 38.63L575.74 33.45L580.92 38.63L588.44 31.1L586.09 28.76L580.92 33.93Z" fill="#BDAD83"/>
<path fill-rule="evenodd" clip-rule="evenodd" d="M556.39 2.34999L554.04 0L551.7 2.34999L549.35 0L547.01 2.34999L551.7 7.03999L556.39 2.34999Z" fill="#BDAD83"/>
<path fill-rule="evenodd" clip-rule="evenodd" d="M552.44 7.78999L556.87 12.22L561.57 7.53L559.22 5.17999L556.87 7.53L554.79 5.44L552.44 7.78999Z" fill="#BDAD83"/>
<path fill-rule="evenodd" clip-rule="evenodd" d="M550.95 7.78999L548.61 5.44L546.69 7.36L544.34 5.00999L541.99 7.36L546.69 12.05L550.95 7.78999Z" fill="#BDAD83"/>
<path fill-rule="evenodd" clip-rule="evenodd" d="M551.7 14.25L556.87 19.43L564.4 11.9L562.05 9.56L556.87 14.73L554.05 11.9L551.7 9.56L549.35 11.9L546.52 14.73L541.35 9.56L539 11.9L546.52 19.43L551.7 14.25Z" fill="#BDAD83"/>
<path fill-rule="evenodd" clip-rule="evenodd" d="M556.87 21.94L551.7 16.77L549.35 19.11L546.52 21.94L541.35 16.77L539 19.11L546.52 26.63L551.7 21.46L556.87 26.63L564.4 19.11L562.05 16.77L556.87 21.94Z" fill="#BDAD83"/>
<path fill-rule="evenodd" clip-rule="evenodd" d="M776.43 14.34L774.09 12L771.74 14.34L769.39 12L767.05 14.34L771.74 19.04L776.43 14.34Z" fill="#BDAD83"/>
<path fill-rule="evenodd" clip-rule="evenodd" d="M772.49 19.78L776.92 24.21L781.61 19.52L779.26 17.18L776.92 19.52L774.83 17.43L772.49 19.78Z" fill="#BDAD83"/>
<path fill-rule="evenodd" clip-rule="evenodd" d="M771 19.78L768.65 17.43L766.73 19.35L764.38 17.01L762.04 19.35L766.73 24.05L771 19.78Z" fill="#BDAD83"/>
<path fill-rule="evenodd" clip-rule="evenodd" d="M771.74 26.24L776.92 31.42L784.44 23.9L782.09 21.55L776.92 26.73L771.74 21.55L769.39 23.9L766.57 26.73L761.39 21.55L759.04 23.9L766.57 31.42L771.74 26.24Z" fill="#BDAD83"/>
<path fill-rule="evenodd" clip-rule="evenodd" d="M776.92 33.93L774.09 31.1L771.74 28.76L769.39 31.1L766.56 33.93L761.39 28.76L759.04 31.1L766.56 38.63L771.74 33.45L776.92 38.63L784.44 31.1L782.09 28.76L776.92 33.93Z" fill="#BDAD83"/>
<path fill-rule="evenodd" clip-rule="evenodd" d="M752.39 2.34999L750.04 0L747.7 2.34999L745.35 0L743.01 2.34999L747.7 7.03999L752.39 2.34999Z" fill="#BDAD83"/>
<path fill-rule="evenodd" clip-rule="evenodd" d="M748.44 7.78999L752.87 12.22L757.57 7.53L755.22 5.17999L752.87 7.53L750.79 5.44L748.44 7.78999Z" fill="#BDAD83"/>
<path fill-rule="evenodd" clip-rule="evenodd" d="M746.95 7.78999L744.61 5.44L742.69 7.36L740.34 5.00999L737.99 7.36L742.69 12.05L746.95 7.78999Z" fill="#BDAD83"/>
<path fill-rule="evenodd" clip-rule="evenodd" d="M747.7 14.25L752.87 19.43L760.4 11.9L758.05 9.56L752.87 14.73L750.05 11.9L747.7 9.56L745.35 11.9L742.52 14.73L737.35 9.56L735 11.9L742.52 19.43L747.7 14.25Z" fill="#BDAD83"/>
<path fill-rule="evenodd" clip-rule="evenodd" d="M752.87 21.94L747.7 16.77L745.35 19.11L742.52 21.94L737.35 16.77L735 19.11L742.52 26.63L747.7 21.46L752.87 26.63L760.4 19.11L758.05 16.77L752.87 21.94Z" fill="#BDAD83"/>
<path fill-rule="evenodd" clip-rule="evenodd" d="M1215.43 14.34L1213.09 12L1210.74 14.34L1208.39 12L1206.05 14.34L1210.74 19.04L1215.43 14.34Z" fill="#BDAD83"/>
<path fill-rule="evenodd" clip-rule="evenodd" d="M1211.49 19.78L1215.92 24.21L1220.61 19.52L1218.26 17.18L1215.92 19.52L1213.83 17.43L1211.49 19.78Z" fill="#BDAD83"/>
<path fill-rule="evenodd" clip-rule="evenodd" d="M1210 19.78L1207.65 17.43L1205.73 19.35L1203.38 17.01L1201.04 19.35L1205.73 24.05L1210 19.78Z" fill="#BDAD83"/>
<path fill-rule="evenodd" clip-rule="evenodd" d="M1210.74 26.24L1215.92 31.42L1223.44 23.9L1221.09 21.55L1215.92 26.73L1210.74 21.55L1208.39 23.9L1205.57 26.73L1200.39 21.55L1198.04 23.9L1205.57 31.42L1210.74 26.24Z" fill="#BDAD83"/>
<path fill-rule="evenodd" clip-rule="evenodd" d="M1215.92 33.93L1213.09 31.1L1210.74 28.76L1208.39 31.1L1205.56 33.93L1200.39 28.76L1198.04 31.1L1205.56 38.63L1210.74 33.45L1215.92 38.63L1223.44 31.1L1221.09 28.76L1215.92 33.93Z" fill="#BDAD83"/>
<path fill-rule="evenodd" clip-rule="evenodd" d="M1191.39 2.34999L1189.04 0L1186.7 2.34999L1184.35 0L1182.01 2.34999L1186.7 7.03999L1191.39 2.34999Z" fill="#BDAD83"/>
<path fill-rule="evenodd" clip-rule="evenodd" d="M1187.44 7.78999L1191.87 12.22L1196.57 7.53L1194.22 5.17999L1191.87 7.53L1189.79 5.44L1187.44 7.78999Z" fill="#BDAD83"/>
<path fill-rule="evenodd" clip-rule="evenodd" d="M1185.95 7.78999L1183.61 5.44L1181.69 7.36L1179.34 5.00999L1176.99 7.36L1181.69 12.05L1185.95 7.78999Z" fill="#BDAD83"/>
<path fill-rule="evenodd" clip-rule="evenodd" d="M1186.7 14.25L1191.87 19.43L1199.4 11.9L1197.05 9.56L1191.87 14.73L1189.05 11.9L1186.7 9.56L1184.35 11.9L1181.52 14.73L1176.35 9.56L1174 11.9L1181.52 19.43L1186.7 14.25Z" fill="#BDAD83"/>
<path fill-rule="evenodd" clip-rule="evenodd" d="M1191.87 21.94L1186.7 16.77L1184.35 19.11L1181.52 21.94L1176.35 16.77L1174 19.11L1181.52 26.63L1186.7 21.46L1191.87 26.63L1199.4 19.11L1197.05 16.77L1191.87 21.94Z" fill="#BDAD83"/>
<path fill-rule="evenodd" clip-rule="evenodd" d="M1411.43 14.34L1409.09 12L1406.74 14.34L1404.39 12L1402.05 14.34L1406.74 19.04L1411.43 14.34Z" fill="#BDAD83"/>
<path fill-rule="evenodd" clip-rule="evenodd" d="M1407.49 19.78L1411.92 24.21L1416.61 19.52L1414.26 17.18L1411.92 19.52L1409.83 17.43L1407.49 19.78Z" fill="#BDAD83"/>
<path fill-rule="evenodd" clip-rule="evenodd" d="M1406 19.78L1403.65 17.43L1401.73 19.35L1399.38 17.01L1397.04 19.35L1401.73 24.05L1406 19.78Z" fill="#BDAD83"/>
<path fill-rule="evenodd" clip-rule="evenodd" d="M1406.74 26.24L1411.92 31.42L1419.44 23.9L1417.09 21.55L1411.92 26.73L1406.74 21.55L1404.39 23.9L1401.57 26.73L1396.39 21.55L1394.04 23.9L1401.57 31.42L1406.74 26.24Z" fill="#BDAD83"/>
<path fill-rule="evenodd" clip-rule="evenodd" d="M1411.92 33.93L1409.09 31.1L1406.74 28.76L1404.39 31.1L1401.56 33.93L1396.39 28.76L1394.04 31.1L1401.56 38.63L1406.74 33.45L1411.92 38.63L1419.44 31.1L1417.09 28.76L1411.92 33.93Z" fill="#BDAD83"/>
<path fill-rule="evenodd" clip-rule="evenodd" d="M1387.39 2.34999L1385.04 0L1382.7 2.34999L1380.35 0L1378.01 2.34999L1382.7 7.03999L1387.39 2.34999Z" fill="#BDAD83"/>
<path fill-rule="evenodd" clip-rule="evenodd" d="M1383.44 7.78999L1387.87 12.22L1392.57 7.53L1390.22 5.17999L1387.87 7.53L1385.79 5.44L1383.44 7.78999Z" fill="#BDAD83"/>
<path fill-rule="evenodd" clip-rule="evenodd" d="M1381.95 7.78999L1379.61 5.44L1377.69 7.36L1375.34 5.00999L1372.99 7.36L1377.69 12.05L1381.95 7.78999Z" fill="#BDAD83"/>
<path fill-rule="evenodd" clip-rule="evenodd" d="M1382.7 14.25L1387.87 19.43L1395.4 11.9L1393.05 9.56L1387.87 14.73L1385.05 11.9L1382.7 9.56L1380.35 11.9L1377.52 14.73L1372.35 9.56L1370 11.9L1377.52 19.43L1382.7 14.25Z" fill="#BDAD83"/>
<path fill-rule="evenodd" clip-rule="evenodd" d="M1387.87 21.94L1382.7 16.77L1380.35 19.11L1377.52 21.94L1372.35 16.77L1370 19.11L1377.52 26.63L1382.7 21.46L1387.87 26.63L1395.4 19.11L1393.05 16.77L1387.87 21.94Z" fill="#BDAD83"/>
<path fill-rule="evenodd" clip-rule="evenodd" d="M1313.43 14.34L1311.09 12L1308.74 14.34L1306.39 12L1304.05 14.34L1308.74 19.04L1313.43 14.34Z" fill="#BDAD83"/>
<path fill-rule="evenodd" clip-rule="evenodd" d="M1309.49 19.78L1313.92 24.21L1318.61 19.52L1316.26 17.18L1313.92 19.52L1311.83 17.43L1309.49 19.78Z" fill="#BDAD83"/>
<path fill-rule="evenodd" clip-rule="evenodd" d="M1308 19.78L1305.65 17.43L1303.73 19.35L1301.38 17.01L1299.04 19.35L1303.73 24.05L1308 19.78Z" fill="#BDAD83"/>
<path fill-rule="evenodd" clip-rule="evenodd" d="M1308.74 26.24L1313.92 31.42L1321.44 23.9L1319.09 21.55L1313.92 26.73L1308.74 21.55L1306.39 23.9L1303.57 26.73L1298.39 21.55L1296.04 23.9L1303.57 31.42L1308.74 26.24Z" fill="#BDAD83"/>
<path fill-rule="evenodd" clip-rule="evenodd" d="M1313.92 33.93L1311.09 31.1L1308.74 28.76L1306.39 31.1L1303.56 33.93L1298.39 28.76L1296.04 31.1L1303.56 38.63L1308.74 33.45L1313.92 38.63L1321.44 31.1L1319.09 28.76L1313.92 33.93Z" fill="#BDAD83"/>
<path fill-rule="evenodd" clip-rule="evenodd" d="M1289.39 2.34999L1287.04 0L1284.7 2.34999L1282.35 0L1280.01 2.34999L1284.7 7.03999L1289.39 2.34999Z" fill="#BDAD83"/>
<path fill-rule="evenodd" clip-rule="evenodd" d="M1285.44 7.78999L1289.87 12.22L1294.57 7.53L1292.22 5.17999L1289.87 7.53L1287.79 5.44L1285.44 7.78999Z" fill="#BDAD83"/>
<path fill-rule="evenodd" clip-rule="evenodd" d="M1283.95 7.78999L1281.61 5.44L1279.69 7.36L1277.34 5.00999L1274.99 7.36L1279.69 12.05L1283.95 7.78999Z" fill="#BDAD83"/>
<path fill-rule="evenodd" clip-rule="evenodd" d="M1284.7 14.25L1289.87 19.43L1297.4 11.9L1295.05 9.56L1289.87 14.73L1287.05 11.9L1284.7 9.56L1282.35 11.9L1279.52 14.73L1274.35 9.56L1272 11.9L1279.52 19.43L1284.7 14.25Z" fill="#BDAD83"/>
<path fill-rule="evenodd" clip-rule="evenodd" d="M1289.87 21.94L1284.7 16.77L1282.35 19.11L1279.52 21.94L1274.35 16.77L1272 19.11L1279.52 26.63L1284.7 21.46L1289.87 26.63L1297.4 19.11L1295.05 16.77L1289.87 21.94Z" fill="#BDAD83"/>
<path fill-rule="evenodd" clip-rule="evenodd" d="M1509.43 14.34L1507.09 12L1504.74 14.34L1502.39 12L1500.05 14.34L1504.74 19.04L1509.43 14.34Z" fill="#BDAD83"/>
<path fill-rule="evenodd" clip-rule="evenodd" d="M1505.49 19.78L1509.92 24.21L1514.61 19.52L1512.26 17.18L1509.92 19.52L1507.83 17.43L1505.49 19.78Z" fill="#BDAD83"/>
<path fill-rule="evenodd" clip-rule="evenodd" d="M1504 19.78L1501.65 17.43L1499.73 19.35L1497.38 17.01L1495.04 19.35L1499.73 24.05L1504 19.78Z" fill="#BDAD83"/>
<path fill-rule="evenodd" clip-rule="evenodd" d="M1504.74 26.24L1509.92 31.42L1517.44 23.9L1515.09 21.55L1509.92 26.73L1504.74 21.55L1502.39 23.9L1499.57 26.73L1494.39 21.55L1492.04 23.9L1499.57 31.42L1504.74 26.24Z" fill="#BDAD83"/>
<path fill-rule="evenodd" clip-rule="evenodd" d="M1509.92 33.93L1507.09 31.1L1504.74 28.76L1502.39 31.1L1499.56 33.93L1494.39 28.76L1492.04 31.1L1499.56 38.63L1504.74 33.45L1509.92 38.63L1517.44 31.1L1515.09 28.76L1509.92 33.93Z" fill="#BDAD83"/>
<path fill-rule="evenodd" clip-rule="evenodd" d="M1485.39 2.34999L1483.04 0L1480.7 2.34999L1478.35 0L1476.01 2.34999L1480.7 7.03999L1485.39 2.34999Z" fill="#BDAD83"/>
<path fill-rule="evenodd" clip-rule="evenodd" d="M1481.44 7.78999L1485.87 12.22L1490.57 7.53L1488.22 5.17999L1485.87 7.53L1483.79 5.44L1481.44 7.78999Z" fill="#BDAD83"/>
<path fill-rule="evenodd" clip-rule="evenodd" d="M1479.95 7.78999L1477.61 5.44L1475.69 7.36L1473.34 5.00999L1470.99 7.36L1475.69 12.05L1479.95 7.78999Z" fill="#BDAD83"/>
<path fill-rule="evenodd" clip-rule="evenodd" d="M1480.7 14.25L1485.87 19.43L1493.4 11.9L1491.05 9.56L1485.87 14.73L1483.05 11.9L1480.7 9.56L1478.35 11.9L1475.52 14.73L1470.35 9.56L1468 11.9L1475.52 19.43L1480.7 14.25Z" fill="#BDAD83"/>
<path fill-rule="evenodd" clip-rule="evenodd" d="M1485.87 21.94L1480.7 16.77L1478.35 19.11L1475.52 21.94L1470.35 16.77L1468 19.11L1475.52 26.63L1480.7 21.46L1485.87 26.63L1493.4 19.11L1491.05 16.77L1485.87 21.94Z" fill="#BDAD83"/>
<path fill-rule="evenodd" clip-rule="evenodd" d="M1264.43 14.34L1262.09 12L1259.74 14.34L1257.39 12L1255.05 14.34L1259.74 19.04L1264.43 14.34Z" fill="#BDAD83"/>
<path fill-rule="evenodd" clip-rule="evenodd" d="M1260.49 19.78L1264.92 24.21L1269.61 19.52L1267.26 17.18L1264.92 19.52L1262.83 17.43L1260.49 19.78Z" fill="#BDAD83"/>
<path fill-rule="evenodd" clip-rule="evenodd" d="M1259 19.78L1256.65 17.43L1254.73 19.35L1252.38 17.01L1250.04 19.35L1254.73 24.05L1259 19.78Z" fill="#BDAD83"/>
<path fill-rule="evenodd" clip-rule="evenodd" d="M1259.74 26.24L1264.92 31.42L1272.44 23.9L1270.09 21.55L1264.92 26.73L1259.74 21.55L1257.39 23.9L1254.57 26.73L1249.39 21.55L1247.04 23.9L1254.57 31.42L1259.74 26.24Z" fill="#BDAD83"/>
<path fill-rule="evenodd" clip-rule="evenodd" d="M1264.92 33.93L1262.09 31.1L1259.74 28.76L1257.39 31.1L1254.56 33.93L1249.39 28.76L1247.04 31.1L1254.56 38.63L1259.74 33.45L1264.92 38.63L1272.44 31.1L1270.09 28.76L1264.92 33.93Z" fill="#BDAD83"/>
<path fill-rule="evenodd" clip-rule="evenodd" d="M1240.39 2.34999L1238.04 0L1235.7 2.34999L1233.35 0L1231.01 2.34999L1235.7 7.03999L1240.39 2.34999Z" fill="#BDAD83"/>
<path fill-rule="evenodd" clip-rule="evenodd" d="M1236.44 7.78999L1240.87 12.22L1245.57 7.53L1243.22 5.17999L1240.87 7.53L1238.79 5.44L1236.44 7.78999Z" fill="#BDAD83"/>
<path fill-rule="evenodd" clip-rule="evenodd" d="M1234.95 7.78999L1232.61 5.44L1230.69 7.36L1228.34 5.00999L1225.99 7.36L1230.69 12.05L1234.95 7.78999Z" fill="#BDAD83"/>
<path fill-rule="evenodd" clip-rule="evenodd" d="M1235.7 14.25L1240.87 19.43L1248.4 11.9L1246.05 9.56L1240.87 14.73L1238.05 11.9L1235.7 9.56L1233.35 11.9L1230.52 14.73L1225.35 9.56L1223 11.9L1230.52 19.43L1235.7 14.25Z" fill="#BDAD83"/>
<path fill-rule="evenodd" clip-rule="evenodd" d="M1240.87 21.94L1235.7 16.77L1233.35 19.11L1230.52 21.94L1225.35 16.77L1223 19.11L1230.52 26.63L1235.7 21.46L1240.87 26.63L1248.4 19.11L1246.05 16.77L1240.87 21.94Z" fill="#BDAD83"/>
<path fill-rule="evenodd" clip-rule="evenodd" d="M1460.43 14.34L1458.09 12L1455.74 14.34L1453.39 12L1451.05 14.34L1455.74 19.04L1460.43 14.34Z" fill="#BDAD83"/>
<path fill-rule="evenodd" clip-rule="evenodd" d="M1456.49 19.78L1460.92 24.21L1465.61 19.52L1463.26 17.18L1460.92 19.52L1458.83 17.43L1456.49 19.78Z" fill="#BDAD83"/>
<path fill-rule="evenodd" clip-rule="evenodd" d="M1455 19.78L1452.65 17.43L1450.73 19.35L1448.38 17.01L1446.04 19.35L1450.73 24.05L1455 19.78Z" fill="#BDAD83"/>
<path fill-rule="evenodd" clip-rule="evenodd" d="M1455.74 26.24L1460.92 31.42L1468.44 23.9L1466.09 21.55L1460.92 26.73L1455.74 21.55L1453.39 23.9L1450.57 26.73L1445.39 21.55L1443.04 23.9L1450.57 31.42L1455.74 26.24Z" fill="#BDAD83"/>
<path fill-rule="evenodd" clip-rule="evenodd" d="M1460.92 33.93L1458.09 31.1L1455.74 28.76L1453.39 31.1L1450.56 33.93L1445.39 28.76L1443.04 31.1L1450.56 38.63L1455.74 33.45L1460.92 38.63L1468.44 31.1L1466.09 28.76L1460.92 33.93Z" fill="#BDAD83"/>
<path fill-rule="evenodd" clip-rule="evenodd" d="M1436.39 2.34999L1434.04 0L1431.7 2.34999L1429.35 0L1427.01 2.34999L1431.7 7.03999L1436.39 2.34999Z" fill="#BDAD83"/>
<path fill-rule="evenodd" clip-rule="evenodd" d="M1432.44 7.78999L1436.87 12.22L1441.57 7.53L1439.22 5.17999L1436.87 7.53L1434.79 5.44L1432.44 7.78999Z" fill="#BDAD83"/>
<path fill-rule="evenodd" clip-rule="evenodd" d="M1430.95 7.78999L1428.61 5.44L1426.69 7.36L1424.34 5.00999L1421.99 7.36L1426.69 12.05L1430.95 7.78999Z" fill="#BDAD83"/>
<path fill-rule="evenodd" clip-rule="evenodd" d="M1431.7 14.25L1436.87 19.43L1444.4 11.9L1442.05 9.56L1436.87 14.73L1434.05 11.9L1431.7 9.56L1429.35 11.9L1426.52 14.73L1421.35 9.56L1419 11.9L1426.52 19.43L1431.7 14.25Z" fill="#BDAD83"/>
<path fill-rule="evenodd" clip-rule="evenodd" d="M1436.87 21.94L1431.7 16.77L1429.35 19.11L1426.52 21.94L1421.35 16.77L1419 19.11L1426.52 26.63L1431.7 21.46L1436.87 26.63L1444.4 19.11L1442.05 16.77L1436.87 21.94Z" fill="#BDAD83"/>
<path fill-rule="evenodd" clip-rule="evenodd" d="M1362.43 14.34L1360.09 12L1357.74 14.34L1355.39 12L1353.05 14.34L1357.74 19.04L1362.43 14.34Z" fill="#BDAD83"/>
<path fill-rule="evenodd" clip-rule="evenodd" d="M1358.49 19.78L1362.92 24.21L1367.61 19.52L1365.26 17.18L1362.92 19.52L1360.83 17.43L1358.49 19.78Z" fill="#BDAD83"/>
<path fill-rule="evenodd" clip-rule="evenodd" d="M1357 19.78L1354.65 17.43L1352.73 19.35L1350.38 17.01L1348.04 19.35L1352.73 24.05L1357 19.78Z" fill="#BDAD83"/>
<path fill-rule="evenodd" clip-rule="evenodd" d="M1357.74 26.24L1362.92 31.42L1370.44 23.9L1368.09 21.55L1362.92 26.73L1357.74 21.55L1355.39 23.9L1352.57 26.73L1347.39 21.55L1345.04 23.9L1352.57 31.42L1357.74 26.24Z" fill="#BDAD83"/>
<path fill-rule="evenodd" clip-rule="evenodd" d="M1362.92 33.93L1360.09 31.1L1357.74 28.76L1355.39 31.1L1352.56 33.93L1347.39 28.76L1345.04 31.1L1352.56 38.63L1357.74 33.45L1362.92 38.63L1370.44 31.1L1368.09 28.76L1362.92 33.93Z" fill="#BDAD83"/>
<path fill-rule="evenodd" clip-rule="evenodd" d="M1338.39 2.34999L1336.04 0L1333.7 2.34999L1331.35 0L1329.01 2.34999L1333.7 7.03999L1338.39 2.34999Z" fill="#BDAD83"/>
<path fill-rule="evenodd" clip-rule="evenodd" d="M1334.44 7.78999L1338.87 12.22L1343.57 7.53L1341.22 5.17999L1338.87 7.53L1336.79 5.44L1334.44 7.78999Z" fill="#BDAD83"/>
<path fill-rule="evenodd" clip-rule="evenodd" d="M1332.95 7.78999L1330.61 5.44L1328.69 7.36L1326.34 5.00999L1323.99 7.36L1328.69 12.05L1332.95 7.78999Z" fill="#BDAD83"/>
<path fill-rule="evenodd" clip-rule="evenodd" d="M1333.7 14.25L1338.87 19.43L1346.4 11.9L1344.05 9.56L1338.87 14.73L1336.05 11.9L1333.7 9.56L1331.35 11.9L1328.52 14.73L1323.35 9.56L1321 11.9L1328.52 19.43L1333.7 14.25Z" fill="#BDAD83"/>
<path fill-rule="evenodd" clip-rule="evenodd" d="M1338.87 21.94L1333.7 16.77L1331.35 19.11L1328.52 21.94L1323.35 16.77L1321 19.11L1328.52 26.63L1333.7 21.46L1338.87 26.63L1346.4 19.11L1344.05 16.77L1338.87 21.94Z" fill="#BDAD83"/>
<path fill-rule="evenodd" clip-rule="evenodd" d="M1534.39 2.34999L1532.04 0L1529.7 2.34999L1527.35 0L1525.01 2.34999L1529.7 7.03999L1534.39 2.34999Z" fill="#BDAD83"/>
<path fill-rule="evenodd" clip-rule="evenodd" d="M1530.44 7.78999L1534.87 12.22L1539.57 7.53L1537.22 5.17999L1534.87 7.53L1532.79 5.44L1530.44 7.78999Z" fill="#BDAD83"/>
<path fill-rule="evenodd" clip-rule="evenodd" d="M1528.95 7.78999L1526.61 5.44L1524.69 7.36L1522.34 5.00999L1519.99 7.36L1524.69 12.05L1528.95 7.78999Z" fill="#BDAD83"/>
<path fill-rule="evenodd" clip-rule="evenodd" d="M1529.7 14.25L1534.87 19.43L1542.4 11.9L1540.05 9.56L1534.87 14.73L1532.05 11.9L1529.7 9.56L1527.35 11.9L1524.52 14.73L1519.35 9.56L1517 11.9L1524.52 19.43L1529.7 14.25Z" fill="#BDAD83"/>
<path fill-rule="evenodd" clip-rule="evenodd" d="M1534.87 21.94L1529.7 16.77L1527.35 19.11L1524.52 21.94L1519.35 16.77L1517 19.11L1524.52 26.63L1529.7 21.46L1534.87 26.63L1542.4 19.11L1540.05 16.77L1534.87 21.94Z" fill="#BDAD83"/>
</svg>
