<svg width="178" height="108" viewBox="0 0 178 108" fill="none" xmlns="http://www.w3.org/2000/svg">
<path fill-rule="evenodd" clip-rule="evenodd" d="M92.09 1.73999L90.34 0L88.6 1.73999L86.85 0L85.11 1.73999L88.6 5.23999L92.09 1.73999Z" fill="#BDAD83"/>
<path d="M15.41 85.0399C14.23 85.7999 12.86 86.1899 11.29 86.1899C9.06 86.1899 7.24 85.4299 5.83 83.8999C4.42 82.3699 3.71 80.4799 3.71 78.2299C3.71 75.8499 4.4 73.92 5.8 72.42C7.19 70.92 9.02 70.1799 11.29 70.1799C14.56 70.2199 16.73 71.5799 17.82 74.2499H21.38C21 72.6399 20.28 71.26 19.22 70.11C18.16 68.96 16.95 68.1299 15.61 67.5999C14.26 67.0699 12.84 66.8099 11.33 66.8099C8.17 66.8099 5.49 67.8399 3.29 69.9099C1.09 71.9799 0 74.7499 0 78.2299C0 81.7099 1.09 84.4399 3.28 86.4899C5.46 88.5399 8.14 89.5599 11.3 89.5599C13.74 89.5599 15.92 88.8999 17.84 87.5699C19.76 86.2399 20.99 84.2999 21.52 81.7299H17.92C17.43 83.17 16.6 84.2799 15.42 85.0399" fill="#BDAD83"/>
<path d="M32.83 66.9199L23.09 88.8199V89.3299H26.66L33.63 73.0699H33.66L40.6 89.3299H44.2V88.8199L34.42 66.9199H32.83Z" fill="#BDAD83"/>
<path d="M54.92 66.89L44.61 88.85V89.33H48.49L50.66 84.72H60.85L63.05 89.33H66.9V88.85L56.65 66.89H54.93H54.92ZM51.87 81.6L55.78 72.69L59.66 81.6H51.86H51.87Z" fill="#BDAD83"/>
<path d="M83.16 77.6199C84.9 76.7699 85.77 75.3399 85.77 73.3199C85.77 71.2999 85.13 69.7299 83.84 68.6599C82.56 67.5899 80.86 67.0499 78.76 67.0499H69.72V89.33H79.68C81.84 89.33 83.56 88.7399 84.84 87.5499C86.11 86.3599 86.75 84.7699 86.75 82.7799C86.75 80.1699 85.55 78.4499 83.15 77.6199M73.41 70.2699H78.5C79.62 70.2699 80.51 70.5299 81.16 71.0499C81.81 71.5699 82.13 72.36 82.13 73.42C82.11 75.42 80.9 76.4099 78.5 76.4099H73.41V70.2699ZM82.04 85.2099C81.38 85.7899 80.52 86.08 79.46 86.08H73.41V79.4299H79.04C80.33 79.4299 81.3 79.6599 81.94 80.1299C82.7 80.7699 83.09 81.6499 83.09 82.7699C83.05 83.8099 82.7 84.62 82.04 85.2" fill="#BDAD83"/>
<path d="M92.35 69.1799C90.95 70.5999 90.25 72.3499 90.25 74.4299C90.27 75.9799 90.69 77.3399 91.52 78.4999C92.35 79.6699 93.47 80.4999 94.89 80.9799L89.26 88.7799V89.3199H93.24L98.56 81.5499H103.46V89.3199H107.19V67.0399H97.99C95.64 67.0399 93.76 67.7499 92.36 69.1699M103.53 70.2999V78.5099H98.02C96.79 78.5099 95.79 78.1199 95.01 77.3299C94.23 76.5499 93.85 75.5499 93.85 74.3399C93.85 73.1299 94.24 72.1799 95.01 71.4299C95.78 70.6799 96.79 70.2999 98.02 70.2999H103.53Z" fill="#BDAD83"/>
<path d="M126.6 75.9999H116.42V67.0499H112.72V89.33H116.42V79.3999H126.6V89.33H130.32V67.0499H126.6V75.9999Z" fill="#BDAD83"/>
<path d="M149.9 72.1799C150.22 71.0599 150.63 70.3299 151.12 69.9999C151.62 69.6699 152.44 69.5499 153.59 69.6299V67.0799C151.47 66.6799 149.86 66.8399 148.78 67.5699C147.7 68.2999 146.93 69.4799 146.49 71.0899C146.11 72.5799 145.74 73.7499 145.38 74.6099C145.02 75.4699 144.54 76.0599 143.95 76.3799C143.25 76.7399 141.8 76.9199 139.59 76.9199V67.0499H135.86V89.3299H139.59V79.9399C141.73 79.9399 143.12 79.8199 143.76 79.5899L150.13 89.3299H154.33V88.7899L147.01 78.1299C148.13 77.1099 149.1 75.1299 149.91 72.1799" fill="#BDAD83"/>
<path d="M166.96 66.89H165.24L154.93 88.85V89.33H158.81L160.97 84.72H171.16L173.36 89.33H177.21V88.85L166.96 66.89ZM162.19 81.6L166.1 72.69L169.98 81.6H162.18H162.19Z" fill="#BDAD83"/>
<path fill-rule="evenodd" clip-rule="evenodd" d="M89.15 5.78998L92.45 9.08997L95.94 5.59998L94.2 3.84998L92.45 5.59998L90.9 4.03998L89.15 5.78998Z" fill="#BDAD83"/>
<path fill-rule="evenodd" clip-rule="evenodd" d="M88.04 5.78998L86.3 4.03998L84.87 5.46997L83.12 3.72998L81.37 5.46997L84.87 8.96997L88.04 5.78998Z" fill="#BDAD83"/>
<path fill-rule="evenodd" clip-rule="evenodd" d="M88.6 10.6L92.45 14.45L98.05 8.84998L96.3 7.10999L92.45 10.96L90.34 8.84998L88.6 7.10999L86.85 8.84998L84.75 10.96L80.89 7.10999L79.15 8.84998L84.75 14.45L88.6 10.6Z" fill="#BDAD83"/>
<path fill-rule="evenodd" clip-rule="evenodd" d="M92.45 16.32L90.34 14.22L88.6 12.47L86.85 14.22L84.74 16.32L80.89 12.47L79.14 14.22L84.74 19.82L88.6 15.96L92.45 19.82L98.05 14.22L96.3 12.47L92.45 16.32Z" fill="#BDAD83"/>
<path fill-rule="evenodd" clip-rule="evenodd" d="M92.09 20.17L90.34 18.42L88.6 20.17L86.85 18.42L85.11 20.17L88.6 23.66L92.09 20.17Z" fill="#BDAD83"/>
<path fill-rule="evenodd" clip-rule="evenodd" d="M89.15 24.21L92.45 27.51L95.94 24.02L94.2 22.27L92.45 24.02L90.9 22.47L89.15 24.21Z" fill="#BDAD83"/>
<path fill-rule="evenodd" clip-rule="evenodd" d="M88.04 24.21L86.3 22.47L84.87 23.89L83.12 22.15L81.37 23.89L84.87 27.39L88.04 24.21Z" fill="#BDAD83"/>
<path fill-rule="evenodd" clip-rule="evenodd" d="M88.6 29.02L92.45 32.87L98.05 27.27L96.3 25.53L92.45 29.38L90.34 27.27L88.6 25.53L86.85 27.27L84.75 29.38L80.89 25.53L79.15 27.27L84.75 32.87L88.6 29.02Z" fill="#BDAD83"/>
<path fill-rule="evenodd" clip-rule="evenodd" d="M92.45 34.75L90.34 32.64L88.6 30.89L86.85 32.64L84.74 34.75L80.89 30.89L79.14 32.64L84.74 38.24L88.6 34.39L92.45 38.24L98.05 32.64L96.3 30.89L92.45 34.75Z" fill="#BDAD83"/>
<path fill-rule="evenodd" clip-rule="evenodd" d="M92.09 38.59L90.34 36.84L88.6 38.59L86.85 36.84L85.11 38.59L88.6 42.08L92.09 38.59Z" fill="#BDAD83"/>
<path fill-rule="evenodd" clip-rule="evenodd" d="M89.15 42.6301L92.45 45.9301L95.94 42.4401L94.2 40.6901L92.45 42.4401L90.9 40.8901L89.15 42.6301Z" fill="#BDAD83"/>
<path fill-rule="evenodd" clip-rule="evenodd" d="M88.04 42.6299L86.3 40.89L84.87 42.3199L83.12 40.5699L81.37 42.3199L84.87 45.8099L88.04 42.6299Z" fill="#BDAD83"/>
<path fill-rule="evenodd" clip-rule="evenodd" d="M88.6 47.4401L92.45 51.3L98.05 45.7001L96.3 43.9501L92.45 47.8L90.34 45.7001L88.6 43.9501L86.85 45.7001L84.75 47.8L80.89 43.9501L79.15 45.7001L84.75 51.3L88.6 47.4401Z" fill="#BDAD83"/>
<path fill-rule="evenodd" clip-rule="evenodd" d="M92.45 53.17L90.34 51.0599L88.6 49.3199L86.85 51.0599L84.74 53.17L80.89 49.3199L79.14 51.0599L84.74 56.6599L88.6 52.8099L92.45 56.6599L98.05 51.0599L96.3 49.3199L92.45 53.17Z" fill="#BDAD83"/>
<path fill-rule="evenodd" clip-rule="evenodd" d="M113.46 20.17L111.71 18.42L109.97 20.17L108.22 18.42L106.48 20.17L109.97 23.66L113.46 20.17Z" fill="#BDAD83"/>
<path fill-rule="evenodd" clip-rule="evenodd" d="M110.52 24.21L113.82 27.51L117.31 24.02L115.57 22.27L113.82 24.02L112.27 22.47L110.52 24.21Z" fill="#BDAD83"/>
<path fill-rule="evenodd" clip-rule="evenodd" d="M109.41 24.21L107.67 22.47L106.24 23.89L104.49 22.15L102.75 23.89L106.24 27.39L109.41 24.21Z" fill="#BDAD83"/>
<path fill-rule="evenodd" clip-rule="evenodd" d="M109.97 29.02L113.82 32.87L119.42 27.27L117.67 25.53L113.82 29.38L111.72 27.27L109.97 25.53L108.22 27.27L106.12 29.38L102.26 25.53L100.52 27.27L106.12 32.87L109.97 29.02Z" fill="#BDAD83"/>
<path fill-rule="evenodd" clip-rule="evenodd" d="M113.82 34.75L111.71 32.64L109.97 30.89L108.22 32.64L106.12 34.75L102.26 30.89L100.52 32.64L106.12 38.24L109.97 34.39L113.82 38.24L119.42 32.64L117.67 30.89L113.82 34.75Z" fill="#BDAD83"/>
<path fill-rule="evenodd" clip-rule="evenodd" d="M113.46 38.59L111.71 36.84L109.97 38.59L108.22 36.84L106.48 38.59L109.97 42.08L113.46 38.59Z" fill="#BDAD83"/>
<path fill-rule="evenodd" clip-rule="evenodd" d="M110.52 42.6301L113.82 45.9301L117.31 42.4401L115.57 40.6901L113.82 42.4401L112.27 40.8901L110.52 42.6301Z" fill="#BDAD83"/>
<path fill-rule="evenodd" clip-rule="evenodd" d="M109.41 42.6299L107.67 40.89L106.24 42.3199L104.49 40.5699L102.75 42.3199L106.24 45.8099L109.41 42.6299Z" fill="#BDAD83"/>
<path fill-rule="evenodd" clip-rule="evenodd" d="M109.97 47.4401L113.82 51.3L119.42 45.7001L117.67 43.9501L113.82 47.8L111.72 45.7001L109.97 43.9501L108.22 45.7001L106.12 47.8L102.26 43.9501L100.52 45.7001L106.12 51.3L109.97 47.4401Z" fill="#BDAD83"/>
<path fill-rule="evenodd" clip-rule="evenodd" d="M113.82 53.17L111.71 51.0599L109.97 49.3199L108.22 51.0599L106.12 53.17L102.26 49.3199L100.52 51.0599L106.12 56.6599L109.97 52.8099L113.82 56.6599L119.42 51.0599L117.67 49.3199L113.82 53.17Z" fill="#BDAD83"/>
<path fill-rule="evenodd" clip-rule="evenodd" d="M134.83 38.59L133.09 36.84L131.34 38.59L129.59 36.84L127.85 38.59L131.34 42.08L134.83 38.59Z" fill="#BDAD83"/>
<path fill-rule="evenodd" clip-rule="evenodd" d="M131.89 42.6301L135.19 45.9301L138.69 42.4401L136.94 40.6901L135.19 42.4401L133.64 40.8901L131.89 42.6301Z" fill="#BDAD83"/>
<path fill-rule="evenodd" clip-rule="evenodd" d="M130.79 42.6299L129.04 40.89L127.61 42.3199L125.86 40.5699L124.12 42.3199L127.61 45.8099L130.79 42.6299Z" fill="#BDAD83"/>
<path fill-rule="evenodd" clip-rule="evenodd" d="M131.34 47.4401L135.19 51.3L140.79 45.7001L139.05 43.9501L135.19 47.8L133.09 45.7001L131.34 43.9501L129.59 45.7001L127.49 47.8L123.63 43.9501L121.89 45.7001L127.49 51.3L131.34 47.4401Z" fill="#BDAD83"/>
<path fill-rule="evenodd" clip-rule="evenodd" d="M135.19 53.17L133.09 51.0599L131.34 49.3199L129.59 51.0599L127.49 53.17L123.64 49.3199L121.89 51.0599L127.49 56.6599L131.34 52.8099L135.19 56.6599L140.79 51.0599L139.04 49.3199L135.19 53.17Z" fill="#BDAD83"/>
<path d="M49.58 98.58C50.46 98.58 51.23 98.7999 51.88 99.2399C52.53 99.6799 53.02 100.28 53.36 101.05H51.61C51.1 100.38 50.42 100.05 49.58 100.05C48.82 100.05 48.19 100.32 47.68 100.86C47.17 101.4 46.92 102.08 46.92 102.9C46.92 103.72 47.17 104.4 47.68 104.94C48.18 105.48 48.82 105.75 49.58 105.75C50.43 105.75 51.11 105.42 51.61 104.75H53.36C53.02 105.52 52.52 106.12 51.88 106.56C51.24 107 50.47 107.22 49.58 107.22C48.35 107.22 47.33 106.81 46.51 105.99C45.69 105.17 45.28 104.14 45.28 102.9C45.28 101.66 45.69 100.64 46.51 99.8099C47.33 98.9899 48.35 98.58 49.58 98.58Z" fill="#BDAD83"/>
<path d="M59.0299 98.7399L62.6499 107.05H60.9099L60.0999 105.21H56.3099L55.4999 107.05H53.8199L57.4399 98.7399H59.0399H59.0299ZM58.2099 100.92L56.9599 103.75H59.4499L58.2099 100.92Z" fill="#BDAD83"/>
<path d="M63.3799 101.3C63.3799 100.57 63.6199 99.9599 64.1099 99.4699C64.5999 98.9899 65.3099 98.7399 66.2599 98.7399H70.3699V107.05H68.7299V103.86H67.4099L64.9799 107.05H62.9399L65.4299 103.78C64.7599 103.65 64.2499 103.36 63.8999 102.9C63.5499 102.44 63.3699 101.9 63.3699 101.28L63.3799 101.3ZM68.7199 102.4V100.21H66.3699C65.9399 100.21 65.6099 100.31 65.3699 100.5C65.1299 100.7 65.0099 100.96 65.0099 101.3C65.0099 101.64 65.1299 101.9 65.3699 102.1C65.6099 102.3 65.9399 102.4 66.3599 102.4H68.7099H68.7199Z" fill="#BDAD83"/>
<path d="M79.61 107.06H77.97V103.63H73.94V107.06H72.3V98.7499H73.94V102.17H77.97V98.7499H79.61V107.06Z" fill="#BDAD83"/>
<path d="M88.51 105.97C87.7 106.81 86.66 107.22 85.4 107.22C84.14 107.22 83.1 106.8 82.29 105.97C81.48 105.14 81.08 104.11 81.08 102.9C81.08 101.69 81.48 100.66 82.29 99.83C83.1 99 84.13 98.58 85.4 98.58C86.67 98.58 87.7 99 88.51 99.83C89.32 100.66 89.72 101.69 89.72 102.9C89.72 104.11 89.31 105.13 88.51 105.97ZM83.49 104.92C84 105.48 84.64 105.75 85.41 105.75C86.18 105.75 86.82 105.47 87.33 104.92C87.84 104.36 88.09 103.69 88.09 102.9C88.09 102.11 87.84 101.42 87.33 100.87C86.82 100.32 86.18 100.04 85.41 100.04C84.64 100.04 84 100.32 83.49 100.87C82.98 101.42 82.73 102.1 82.73 102.9C82.73 103.7 82.98 104.37 83.49 104.92Z" fill="#BDAD83"/>
<path d="M96.8699 98.7399V100.21H92.84V107.06H91.2V98.7499H96.8699V98.7399Z" fill="#BDAD83"/>
<path d="M104.76 105.97C103.95 106.81 102.91 107.22 101.65 107.22C100.39 107.22 99.35 106.8 98.54 105.97C97.73 105.14 97.33 104.11 97.33 102.9C97.33 101.69 97.73 100.66 98.54 99.83C99.35 99 100.38 98.58 101.65 98.58C102.92 98.58 103.95 99 104.76 99.83C105.57 100.66 105.97 101.69 105.97 102.9C105.97 104.11 105.56 105.13 104.76 105.97ZM99.74 104.92C100.25 105.48 100.89 105.75 101.66 105.75C102.43 105.75 103.07 105.47 103.58 104.92C104.09 104.37 104.34 103.69 104.34 102.9C104.34 102.11 104.09 101.42 103.58 100.87C103.07 100.32 102.43 100.04 101.66 100.04C100.89 100.04 100.25 100.32 99.74 100.87C99.23 101.42 98.98 102.1 98.98 102.9C98.98 103.7 99.23 104.37 99.74 104.92Z" fill="#BDAD83"/>
<path d="M114.44 101.3C114.44 102.04 114.2 102.66 113.71 103.14C113.22 103.62 112.51 103.87 111.56 103.87H109.09V107.06H107.45V98.7499H111.56C112.5 98.7499 113.22 98.9899 113.71 99.4799C114.2 99.9599 114.44 100.57 114.44 101.31V101.3ZM109.1 100.21V102.4H111.45C111.87 102.4 112.2 102.3 112.44 102.1C112.68 101.9 112.8 101.63 112.8 101.3C112.8 100.97 112.68 100.7 112.44 100.5C112.2 100.3 111.87 100.21 111.44 100.21H109.09H109.1Z" fill="#BDAD83"/>
<path d="M119.7 98.58C120.58 98.58 121.35 98.7999 122 99.2399C122.65 99.6799 123.14 100.28 123.48 101.05H121.73C121.22 100.38 120.54 100.05 119.7 100.05C118.94 100.05 118.31 100.32 117.8 100.86C117.29 101.4 117.04 102.08 117.04 102.9C117.04 103.72 117.29 104.4 117.8 104.94C118.3 105.48 118.94 105.75 119.7 105.75C120.55 105.75 121.23 105.42 121.73 104.75H123.48C123.14 105.52 122.64 106.12 122 106.56C121.35 107 120.59 107.22 119.7 107.22C118.47 107.22 117.45 106.81 116.63 105.99C115.81 105.17 115.4 104.14 115.4 102.9C115.4 101.66 115.81 100.64 116.63 99.8099C117.45 98.9899 118.47 98.58 119.7 98.58Z" fill="#BDAD83"/>
<path d="M131.91 107.06H129.74L126.53 103.77V107.06H124.89V98.7499H126.53V102.12L129.84 98.7499H131.91L127.85 102.91L131.91 107.07V107.06Z" fill="#BDAD83"/>
</svg>
