<svg width="72" height="75" viewBox="0 0 72 75" fill="none" xmlns="http://www.w3.org/2000/svg">
<path fill-rule="evenodd" clip-rule="evenodd" d="M48.66 6.56L42.09 0L35.53 6.56L28.96 0L22.4 6.56L35.53 19.69L48.66 6.56Z" fill="#2A3928"/>
<path fill-rule="evenodd" clip-rule="evenodd" d="M37.61 21.78L50.01 34.18L63.15 21.05L56.58 14.49L50.01 21.05L44.18 15.21L37.61 21.78Z" fill="#2A3928"/>
<path fill-rule="evenodd" clip-rule="evenodd" d="M33.45 21.78L26.88 15.21L21.51 20.58L14.94 14.02L8.37 20.58L21.51 33.71L33.45 21.78Z" fill="#2A3928"/>
<path fill-rule="evenodd" clip-rule="evenodd" d="M35.53 39.86L50.01 54.34L71.06 33.29L64.5 26.73L50.01 41.21L42.1 33.29L35.53 26.73L28.96 33.29L21.05 41.21L6.56001 26.73L0 33.29L21.05 54.34L35.53 39.86Z" fill="#2A3928"/>
<path fill-rule="evenodd" clip-rule="evenodd" d="M50.01 61.38L42.09 53.46L35.53 46.9L28.96 53.46L21.04 61.38L6.56001 46.9L0 53.46L21.04 74.51L35.53 60.03L50.01 74.51L71.06 53.46L64.49 46.9L50.01 61.38Z" fill="#2A3928"/>
</svg>
