<svg xmlns="http://www.w3.org/2000/svg" version="1.1" xmlns:xlink="http://www.w3.org/1999/xlink" width="72" height="75"><svg width="72" height="75" viewBox="0 0 72 75" fill="none" xmlns="http://www.w3.org/2000/svg">
<path fill-rule="evenodd" clip-rule="evenodd" d="M48.67 6.57001L42.1 0L35.54 6.57001L28.97 0L22.41 6.57001L35.54 19.7L48.67 6.57001Z" fill="#BDAD83"></path>
<path fill-rule="evenodd" clip-rule="evenodd" d="M37.62 21.78L50.02 34.18L63.15 21.05L56.58 14.49L50.02 21.05L44.19 15.22L37.62 21.78Z" fill="#BDAD83"></path>
<path fill-rule="evenodd" clip-rule="evenodd" d="M33.45 21.78L26.88 15.22L21.52 20.59L14.95 14.02L8.38 20.59L21.52 33.72L33.45 21.78Z" fill="#BDAD83"></path>
<path fill-rule="evenodd" clip-rule="evenodd" d="M35.54 39.87L50.02 54.35L71.07 33.3L64.51 26.74L50.02 41.22L42.1 33.3L35.54 26.74L28.97 33.3L21.05 41.22L6.57001 26.74L0 33.3L21.05 54.35L35.54 39.87Z" fill="#BDAD83"></path>
<path fill-rule="evenodd" clip-rule="evenodd" d="M50.02 61.38L42.1 53.46L35.54 46.9L28.97 53.46L21.05 61.38L6.57001 46.9L0.0100098 53.46L21.05 74.51L35.54 60.03L50.02 74.51L71.07 53.46L64.5 46.9L50.02 61.38Z" fill="#BDAD83"></path>
</svg><style>@media (prefers-color-scheme: light) { :root { filter: none; } }
@media (prefers-color-scheme: dark) { :root { filter: none; } }
</style></svg>